<?xml version="1.0" encoding="UTF-8" standalone="no"?>
<!DOCTYPE svg PUBLIC "-//W3C//DTD SVG 1.1//EN"
 "http://www.w3.org/Graphics/SVG/1.1/DTD/svg11.dtd">
<!-- Generated by graphviz version 10.0.1 (20240210.2158)
 -->
<!-- Title: dependency&#45;cruiser output Pages: 1 -->
<svg width="511pt" height="462pt"
 viewBox="0.00 0.00 510.75 462.00" xmlns="http://www.w3.org/2000/svg" xmlns:xlink="http://www.w3.org/1999/xlink">
<g id="graph0" class="graph" transform="scale(1 1) rotate(0) translate(4 458)">
<title>dependency&#45;cruiser output</title>
<polygon fill="white" stroke="none" points="-4,4 -4,-458 506.75,-458 506.75,4 -4,4"/>
<g id="clust1" class="cluster">
<title>cluster_src</title>
<path fill="#ffffff" stroke="black" stroke-width="2" d="M20,-8C20,-8 482.75,-8 482.75,-8 488.75,-8 494.75,-14 494.75,-20 494.75,-20 494.75,-434 494.75,-434 494.75,-440 488.75,-446 482.75,-446 482.75,-446 20,-446 20,-446 14,-446 8,-440 8,-434 8,-434 8,-20 8,-20 8,-14 14,-8 20,-8"/>
<text text-anchor="middle" x="251.38" y="-433.45" font-family="Helvetica,sans-Serif" font-weight="bold" font-size="9.00">src</text>
</g>
<g id="clust2" class="cluster">
<title>cluster_src/modules</title>
<path fill="#ffffff" stroke="black" stroke-width="2" d="M100.75,-332C100.75,-332 153,-332 153,-332 159,-332 165,-338 165,-344 165,-344 165,-402 165,-402 165,-408 159,-414 153,-414 153,-414 100.75,-414 100.75,-414 94.75,-414 88.75,-408 88.75,-402 88.75,-402 88.75,-344 88.75,-344 88.75,-338 94.75,-332 100.75,-332"/>
<text text-anchor="middle" x="126.88" y="-401.45" font-family="Helvetica,sans-Serif" font-weight="bold" font-size="9.00">modules</text>
</g>
<g id="clust3" class="cluster">
<title>cluster_src/store</title>
<path fill="#ffffff" stroke="black" stroke-width="2" d="M103.88,-64C103.88,-64 412.75,-64 412.75,-64 418.75,-64 424.75,-70 424.75,-76 424.75,-76 424.75,-164 424.75,-164 424.75,-170 418.75,-176 412.75,-176 412.75,-176 103.87,-176 103.87,-176 97.87,-176 91.88,-170 91.88,-164 91.88,-164 91.88,-76 91.88,-76 91.88,-70 97.88,-64 103.88,-64"/>
<text text-anchor="middle" x="258.31" y="-163.45" font-family="Helvetica,sans-Serif" font-weight="bold" font-size="9.00">store</text>
</g>
<g id="clust4" class="cluster">
<title>cluster_src/templates</title>
<path fill="#ffffff" stroke="black" stroke-width="2" d="M185,-184C185,-184 269.5,-184 269.5,-184 275.5,-184 281.5,-190 281.5,-196 281.5,-196 281.5,-314 281.5,-314 281.5,-320 275.5,-326 269.5,-326 269.5,-326 185,-326 185,-326 179,-326 173,-320 173,-314 173,-314 173,-196 173,-196 173,-190 179,-184 185,-184"/>
<text text-anchor="middle" x="227.25" y="-313.45" font-family="Helvetica,sans-Serif" font-weight="bold" font-size="9.00">templates</text>
</g>
<!-- src/config.ts -->
<g id="node1" class="node">
<title>src/config.ts</title>
<g id="a_node1"><a xlink:href="src/config.ts" xlink:title="config.ts">
<path fill="#ddfeff" stroke="black" d="M340.71,-47.88C340.71,-47.88 298.54,-47.88 298.54,-47.88 295.58,-47.88 292.62,-44.92 292.62,-41.96 292.62,-41.96 292.62,-36.04 292.62,-36.04 292.62,-33.08 295.58,-30.12 298.54,-30.12 298.54,-30.12 340.71,-30.12 340.71,-30.12 343.67,-30.12 346.62,-33.08 346.62,-36.04 346.62,-36.04 346.62,-41.96 346.62,-41.96 346.62,-44.92 343.67,-47.88 340.71,-47.88"/>
<text text-anchor="start" x="302.75" y="-35.33" font-family="Helvetica,sans-Serif" font-size="9.00">config.ts</text>
</a>
</g>
</g>
<!-- src/consts.ts -->
<g id="node2" class="node">
<title>src/consts.ts</title>
<g id="a_node2"><a xlink:href="src/consts.ts" xlink:title="consts.ts">
<path fill="#ddfeff" stroke="black" d="M480.83,-60.88C480.83,-60.88 438.67,-60.88 438.67,-60.88 435.71,-60.88 432.75,-57.92 432.75,-54.96 432.75,-54.96 432.75,-49.04 432.75,-49.04 432.75,-46.08 435.71,-43.12 438.67,-43.12 438.67,-43.12 480.83,-43.12 480.83,-43.12 483.79,-43.12 486.75,-46.08 486.75,-49.04 486.75,-49.04 486.75,-54.96 486.75,-54.96 486.75,-57.92 483.79,-60.88 480.83,-60.88"/>
<text text-anchor="start" x="442.12" y="-48.33" font-family="Helvetica,sans-Serif" font-size="9.00">consts.ts</text>
</a>
</g>
</g>
<!-- src/main.ts -->
<g id="node3" class="node">
<title>src/main.ts</title>
<g id="a_node3"><a xlink:href="src/main.ts" xlink:title="main.ts">
<path fill="#ddfeff" stroke="black" d="M69.46,-357.88C69.46,-357.88 27.29,-357.88 27.29,-357.88 24.33,-357.88 21.38,-354.92 21.38,-351.96 21.38,-351.96 21.38,-346.04 21.38,-346.04 21.38,-343.08 24.33,-340.12 27.29,-340.12 27.29,-340.12 69.46,-340.12 69.46,-340.12 72.42,-340.12 75.38,-343.08 75.38,-346.04 75.38,-346.04 75.38,-351.96 75.38,-351.96 75.38,-354.92 72.42,-357.88 69.46,-357.88"/>
<text text-anchor="start" x="33.75" y="-345.32" font-family="Helvetica,sans-Serif" font-size="9.00">main.ts</text>
</a>
</g>
</g>
<!-- src/modules/control.mts -->
<g id="node4" class="node">
<title>src/modules/control.mts</title>
<g id="a_node4"><a xlink:href="src/modules/control.mts" xlink:title="control.mts">
<path fill="#ddfeff" stroke="black" d="M151.08,-357.88C151.08,-357.88 102.67,-357.88 102.67,-357.88 99.71,-357.88 96.75,-354.92 96.75,-351.96 96.75,-351.96 96.75,-346.04 96.75,-346.04 96.75,-343.08 99.71,-340.12 102.67,-340.12 102.67,-340.12 151.08,-340.12 151.08,-340.12 154.04,-340.12 157,-343.08 157,-346.04 157,-346.04 157,-351.96 157,-351.96 157,-354.92 154.04,-357.88 151.08,-357.88"/>
<text text-anchor="start" x="104.75" y="-345.32" font-family="Helvetica,sans-Serif" font-size="9.00">control.mts</text>
</a>
</g>
</g>
<!-- src/main.ts&#45;&gt;src/modules/control.mts -->
<g id="edge1" class="edge">
<title>src/main.ts&#45;&gt;src/modules/control.mts</title>
<path fill="none" stroke="#000000" stroke-width="2" stroke-opacity="0.200000" d="M75.7,-349C79.55,-349 83.58,-349 87.6,-349"/>
<polygon fill="#000000" fill-opacity="0.200000" stroke="#000000" stroke-width="2" stroke-opacity="0.200000" points="87.32,-351.1 93.32,-349 87.32,-346.9 87.32,-351.1"/>
</g>
<!-- src/modules/map.mts -->
<g id="node5" class="node">
<title>src/modules/map.mts</title>
<g id="a_node5"><a xlink:href="src/modules/map.mts" xlink:title="map.mts">
<path fill="#ddfeff" stroke="black" d="M147.96,-387.88C147.96,-387.88 105.79,-387.88 105.79,-387.88 102.83,-387.88 99.88,-384.92 99.88,-381.96 99.88,-381.96 99.88,-376.04 99.88,-376.04 99.88,-373.08 102.83,-370.12 105.79,-370.12 105.79,-370.12 147.96,-370.12 147.96,-370.12 150.92,-370.12 153.88,-373.08 153.88,-376.04 153.88,-376.04 153.88,-381.96 153.88,-381.96 153.88,-384.92 150.92,-387.88 147.96,-387.88"/>
<text text-anchor="start" x="109.62" y="-375.32" font-family="Helvetica,sans-Serif" font-size="9.00">map.mts</text>
</a>
</g>
</g>
<!-- src/main.ts&#45;&gt;src/modules/map.mts -->
<g id="edge2" class="edge">
<title>src/main.ts&#45;&gt;src/modules/map.mts</title>
<path fill="none" stroke="#000000" stroke-width="2" stroke-opacity="0.200000" d="M73.16,-358.33C79.78,-360.92 87.08,-363.79 94.08,-366.53"/>
<polygon fill="#000000" fill-opacity="0.200000" stroke="#000000" stroke-width="2" stroke-opacity="0.200000" points="92.93,-368.34 99.29,-368.57 94.47,-364.43 92.93,-368.34"/>
</g>
<!-- src/style.css -->
<g id="node6" class="node">
<title>src/style.css</title>
<g id="a_node6"><a xlink:href="src/style.css" xlink:title="style.css">
<path fill="#ffffcc" stroke="black" d="M147.96,-323.88C147.96,-323.88 105.79,-323.88 105.79,-323.88 102.83,-323.88 99.88,-320.92 99.88,-317.96 99.88,-317.96 99.88,-312.04 99.88,-312.04 99.88,-309.08 102.83,-306.12 105.79,-306.12 105.79,-306.12 147.96,-306.12 147.96,-306.12 150.92,-306.12 153.88,-309.08 153.88,-312.04 153.88,-312.04 153.88,-317.96 153.88,-317.96 153.88,-320.92 150.92,-323.88 147.96,-323.88"/>
<text text-anchor="start" x="109.62" y="-311.32" font-family="Helvetica,sans-Serif" font-size="9.00">style.css</text>
</a>
</g>
</g>
<!-- src/main.ts&#45;&gt;src/style.css -->
<g id="edge3" class="edge">
<title>src/main.ts&#45;&gt;src/style.css</title>
<path fill="none" stroke="#000000" stroke-width="2" stroke-opacity="0.200000" d="M66.43,-339.82C73.28,-336.27 81.31,-332.28 88.75,-329 89.78,-328.55 90.83,-328.09 91.89,-327.64"/>
<polygon fill="#000000" fill-opacity="0.200000" stroke="#000000" stroke-width="2" stroke-opacity="0.200000" points="92.59,-329.62 97.36,-325.42 91.01,-325.73 92.59,-329.62"/>
</g>
<!-- src/modules/control.mts&#45;&gt;src/consts.ts -->
<g id="edge4" class="edge">
<title>src/modules/control.mts&#45;&gt;src/consts.ts</title>
<path fill="none" stroke="#000000" stroke-width="2" stroke-opacity="0.200000" d="M152.72,-358.34C184.35,-368.63 239.87,-381.21 281.5,-361 374.1,-316.04 378.66,-271.05 424.75,-179 442.97,-142.6 452.31,-95.29 456.29,-69.93"/>
<polygon fill="#000000" fill-opacity="0.200000" stroke="#000000" stroke-width="2" stroke-opacity="0.200000" points="458.36,-70.3 457.16,-64.06 454.2,-69.69 458.36,-70.3"/>
</g>
<!-- src/store/mode.ts -->
<g id="node7" class="node">
<title>src/store/mode.ts</title>
<g id="a_node7"><a xlink:href="src/store/mode.ts" xlink:title="mode.ts">
<path fill="#ddfeff" stroke="black" d="M410.83,-89.88C410.83,-89.88 368.67,-89.88 368.67,-89.88 365.71,-89.88 362.75,-86.92 362.75,-83.96 362.75,-83.96 362.75,-78.04 362.75,-78.04 362.75,-75.08 365.71,-72.12 368.67,-72.12 368.67,-72.12 410.83,-72.12 410.83,-72.12 413.79,-72.12 416.75,-75.08 416.75,-78.04 416.75,-78.04 416.75,-83.96 416.75,-83.96 416.75,-86.92 413.79,-89.88 410.83,-89.88"/>
<text text-anchor="start" x="373.62" y="-77.33" font-family="Helvetica,sans-Serif" font-size="9.00">mode.ts</text>
</a>
</g>
</g>
<!-- src/modules/control.mts&#45;&gt;src/store/mode.ts -->
<g id="edge5" class="edge">
<title>src/modules/control.mts&#45;&gt;src/store/mode.ts</title>
<path fill="none" stroke="#000000" stroke-width="2" stroke-opacity="0.200000" d="M157.48,-358.32C190.84,-366.88 245.13,-374.71 281.5,-349 355.79,-296.47 324.9,-243.52 349.75,-156 356.53,-132.11 348.41,-120.26 363.42,-97.35"/>
<polygon fill="#000000" fill-opacity="0.200000" stroke="#000000" stroke-width="2" stroke-opacity="0.200000" points="364.99,-98.77 366.8,-92.68 361.58,-96.31 364.99,-98.77"/>
</g>
<!-- src/store/route.ts -->
<g id="node8" class="node">
<title>src/store/route.ts</title>
<g id="a_node8"><a xlink:href="src/store/route.ts" xlink:title="route.ts">
<path fill="#ddfeff" stroke="black" d="M340.71,-149.88C340.71,-149.88 298.54,-149.88 298.54,-149.88 295.58,-149.88 292.62,-146.92 292.62,-143.96 292.62,-143.96 292.62,-138.04 292.62,-138.04 292.62,-135.08 295.58,-132.12 298.54,-132.12 298.54,-132.12 340.71,-132.12 340.71,-132.12 343.67,-132.12 346.62,-135.08 346.62,-138.04 346.62,-138.04 346.62,-143.96 346.62,-143.96 346.62,-146.92 343.67,-149.88 340.71,-149.88"/>
<text text-anchor="start" x="304.62" y="-137.32" font-family="Helvetica,sans-Serif" font-size="9.00">route.ts</text>
</a>
</g>
</g>
<!-- src/modules/control.mts&#45;&gt;src/store/route.ts -->
<g id="edge6" class="edge">
<title>src/modules/control.mts&#45;&gt;src/store/route.ts</title>
<path fill="none" stroke="#000000" stroke-width="2" stroke-opacity="0.200000" d="M157.34,-351.19C196.76,-353.46 263.75,-354.73 281.5,-339 308.2,-315.33 315.93,-203.58 317.96,-159.22"/>
<polygon fill="#000000" fill-opacity="0.200000" stroke="#000000" stroke-width="2" stroke-opacity="0.200000" points="320.05,-159.48 318.2,-153.4 315.85,-159.31 320.05,-159.48"/>
</g>
<!-- src/store/traversal.ts -->
<g id="node9" class="node">
<title>src/store/traversal.ts</title>
<g id="a_node9"><a xlink:href="src/store/traversal.ts" xlink:title="traversal.ts">
<path fill="#ddfeff" stroke="black" d="M343.83,-119.88C343.83,-119.88 295.42,-119.88 295.42,-119.88 292.46,-119.88 289.5,-116.92 289.5,-113.96 289.5,-113.96 289.5,-108.04 289.5,-108.04 289.5,-105.08 292.46,-102.12 295.42,-102.12 295.42,-102.12 343.83,-102.12 343.83,-102.12 346.79,-102.12 349.75,-105.08 349.75,-108.04 349.75,-108.04 349.75,-113.96 349.75,-113.96 349.75,-116.92 346.79,-119.88 343.83,-119.88"/>
<text text-anchor="start" x="297.5" y="-107.33" font-family="Helvetica,sans-Serif" font-size="9.00">traversal.ts</text>
</a>
</g>
</g>
<!-- src/modules/control.mts&#45;&gt;src/store/traversal.ts -->
<g id="edge7" class="edge">
<title>src/modules/control.mts&#45;&gt;src/store/traversal.ts</title>
<path fill="none" stroke="#000000" stroke-width="2" stroke-opacity="0.200000" d="M157.42,-342.69C162.6,-341.7 167.94,-340.76 173,-340 196.97,-336.4 264.9,-346.66 281.5,-329 295.75,-313.84 280.22,-170.29 291.38,-128.55"/>
<polygon fill="#000000" fill-opacity="0.200000" stroke="#000000" stroke-width="2" stroke-opacity="0.200000" points="293.29,-129.41 293.66,-123.06 289.41,-127.79 293.29,-129.41"/>
</g>
<!-- src/templates/control.hbs -->
<g id="node10" class="node">
<title>src/templates/control.hbs</title>
<g id="a_node10"><a xlink:href="src/templates/control.hbs" xlink:title="control.hbs">
<path fill="#ffffcc" stroke="black" d="M251.83,-239.88C251.83,-239.88 202.67,-239.88 202.67,-239.88 199.71,-239.88 196.75,-236.92 196.75,-233.96 196.75,-233.96 196.75,-228.04 196.75,-228.04 196.75,-225.08 199.71,-222.12 202.67,-222.12 202.67,-222.12 251.83,-222.12 251.83,-222.12 254.79,-222.12 257.75,-225.08 257.75,-228.04 257.75,-228.04 257.75,-233.96 257.75,-233.96 257.75,-236.92 254.79,-239.88 251.83,-239.88"/>
<text text-anchor="start" x="204.75" y="-227.32" font-family="Helvetica,sans-Serif" font-size="9.00">control.hbs</text>
</a>
</g>
</g>
<!-- src/modules/control.mts&#45;&gt;src/templates/control.hbs -->
<g id="edge8" class="edge">
<title>src/modules/control.mts&#45;&gt;src/templates/control.hbs</title>
<path fill="none" stroke="#000000" stroke-width="2" stroke-opacity="0.200000" d="M157.23,-342.53C160.21,-340.83 162.9,-338.69 165,-336 177.33,-320.15 160.18,-261.45 173,-246 176.91,-241.28 182.19,-237.98 187.9,-235.69"/>
<polygon fill="#000000" fill-opacity="0.200000" stroke="#000000" stroke-width="2" stroke-opacity="0.200000" points="188.48,-237.71 193.58,-233.91 187.23,-233.7 188.48,-237.71"/>
</g>
<!-- src/templates/routePanel.hbs -->
<g id="node11" class="node">
<title>src/templates/routePanel.hbs</title>
<g id="a_node11"><a xlink:href="src/templates/routePanel.hbs" xlink:title="routePanel.hbs">
<path fill="#ffffcc" stroke="black" d="M260.46,-269.88C260.46,-269.88 194.04,-269.88 194.04,-269.88 191.08,-269.88 188.12,-266.92 188.12,-263.96 188.12,-263.96 188.12,-258.04 188.12,-258.04 188.12,-255.08 191.08,-252.12 194.04,-252.12 194.04,-252.12 260.46,-252.12 260.46,-252.12 263.42,-252.12 266.38,-255.08 266.38,-258.04 266.38,-258.04 266.38,-263.96 266.38,-263.96 266.38,-266.92 263.42,-269.88 260.46,-269.88"/>
<text text-anchor="start" x="196.12" y="-257.32" font-family="Helvetica,sans-Serif" font-size="9.00">routePanel.hbs</text>
</a>
</g>
</g>
<!-- src/modules/control.mts&#45;&gt;src/templates/routePanel.hbs -->
<g id="edge9" class="edge">
<title>src/modules/control.mts&#45;&gt;src/templates/routePanel.hbs</title>
<path fill="none" stroke="#000000" stroke-width="2" stroke-opacity="0.200000" d="M157.48,-342.23C160.33,-340.59 162.93,-338.54 165,-336 181.98,-315.14 155.37,-296.32 173,-276 175.11,-273.57 177.57,-271.52 180.27,-269.79"/>
<polygon fill="#000000" fill-opacity="0.200000" stroke="#000000" stroke-width="2" stroke-opacity="0.200000" points="180.76,-271.9 185.15,-267.3 178.85,-268.16 180.76,-271.9"/>
</g>
<!-- src/templates/traversalPanel.hbs -->
<g id="node12" class="node">
<title>src/templates/traversalPanel.hbs</title>
<g id="a_node12"><a xlink:href="src/templates/traversalPanel.hbs" xlink:title="traversalPanel.hbs">
<path fill="#ffffcc" stroke="black" d="M267.58,-299.88C267.58,-299.88 186.92,-299.88 186.92,-299.88 183.96,-299.88 181,-296.92 181,-293.96 181,-293.96 181,-288.04 181,-288.04 181,-285.08 183.96,-282.12 186.92,-282.12 186.92,-282.12 267.58,-282.12 267.58,-282.12 270.54,-282.12 273.5,-285.08 273.5,-288.04 273.5,-288.04 273.5,-293.96 273.5,-293.96 273.5,-296.92 270.54,-299.88 267.58,-299.88"/>
<text text-anchor="start" x="189" y="-287.32" font-family="Helvetica,sans-Serif" font-size="9.00">traversalPanel.hbs</text>
</a>
</g>
</g>
<!-- src/modules/control.mts&#45;&gt;src/templates/traversalPanel.hbs -->
<g id="edge10" class="edge">
<title>src/modules/control.mts&#45;&gt;src/templates/traversalPanel.hbs</title>
<path fill="none" stroke="#000000" stroke-width="2" stroke-opacity="0.200000" d="M157.01,-339.74C159.76,-338.59 162.46,-337.34 165,-336 169.5,-333.63 190.85,-317.75 207.08,-305.52"/>
<polygon fill="#000000" fill-opacity="0.200000" stroke="#000000" stroke-width="2" stroke-opacity="0.200000" points="208.16,-307.34 211.69,-302.05 205.63,-303.99 208.16,-307.34"/>
</g>
<!-- src/modules/map.mts&#45;&gt;src/store/route.ts -->
<g id="edge13" class="edge">
<title>src/modules/map.mts&#45;&gt;src/store/route.ts</title>
<path fill="none" stroke="#000000" stroke-width="2" stroke-opacity="0.200000" d="M145.56,-388.29C177,-403.37 242.96,-428.32 281.5,-395 317.05,-364.27 319.22,-211.77 318.88,-159.01"/>
<polygon fill="#000000" fill-opacity="0.200000" stroke="#000000" stroke-width="2" stroke-opacity="0.200000" points="320.99,-159.11 318.83,-153.13 316.79,-159.15 320.99,-159.11"/>
</g>
<!-- src/modules/map.mts&#45;&gt;src/store/traversal.ts -->
<g id="edge14" class="edge">
<title>src/modules/map.mts&#45;&gt;src/store/traversal.ts</title>
<path fill="none" stroke="#000000" stroke-width="2" stroke-opacity="0.200000" d="M154.32,-380.61C189.59,-381.14 251.1,-376.07 281.5,-338 295.09,-320.98 279.6,-171.45 291.33,-128.56"/>
<polygon fill="#000000" fill-opacity="0.200000" stroke="#000000" stroke-width="2" stroke-opacity="0.200000" points="293.26,-129.4 293.64,-123.06 289.38,-127.77 293.26,-129.4"/>
</g>
<!-- src/store/map.ts -->
<g id="node13" class="node">
<title>src/store/map.ts</title>
<g id="a_node13"><a xlink:href="src/store/map.ts" xlink:title="map.ts">
<path fill="#ddfeff" stroke="black" d="M410.83,-149.88C410.83,-149.88 368.67,-149.88 368.67,-149.88 365.71,-149.88 362.75,-146.92 362.75,-143.96 362.75,-143.96 362.75,-138.04 362.75,-138.04 362.75,-135.08 365.71,-132.12 368.67,-132.12 368.67,-132.12 410.83,-132.12 410.83,-132.12 413.79,-132.12 416.75,-135.08 416.75,-138.04 416.75,-138.04 416.75,-143.96 416.75,-143.96 416.75,-146.92 413.79,-149.88 410.83,-149.88"/>
<text text-anchor="start" x="376.25" y="-137.32" font-family="Helvetica,sans-Serif" font-size="9.00">map.ts</text>
</a>
</g>
</g>
<!-- src/modules/map.mts&#45;&gt;src/store/map.ts -->
<g id="edge11" class="edge">
<title>src/modules/map.mts&#45;&gt;src/store/map.ts</title>
<path fill="none" stroke="#000000" stroke-width="2" stroke-opacity="0.200000" d="M138.9,-388.3C147.55,-394.96 160.23,-403.36 173,-407 250.46,-429.08 303.89,-433.21 349.75,-367 373.19,-333.16 384.21,-206.52 387.58,-159.09"/>
<polygon fill="#000000" fill-opacity="0.200000" stroke="#000000" stroke-width="2" stroke-opacity="0.200000" points="389.66,-159.38 387.98,-153.25 385.47,-159.1 389.66,-159.38"/>
</g>
<!-- src/store/render.ts -->
<g id="node14" class="node">
<title>src/store/render.ts</title>
<g id="a_node14"><a xlink:href="src/store/render.ts" xlink:title="render.ts">
<path fill="#ddfeff" stroke="black" d="M147.96,-116.88C147.96,-116.88 105.79,-116.88 105.79,-116.88 102.83,-116.88 99.88,-113.92 99.88,-110.96 99.88,-110.96 99.88,-105.04 99.88,-105.04 99.88,-102.08 102.83,-99.12 105.79,-99.12 105.79,-99.12 147.96,-99.12 147.96,-99.12 150.92,-99.12 153.88,-102.08 153.88,-105.04 153.88,-105.04 153.88,-110.96 153.88,-110.96 153.88,-113.92 150.92,-116.88 147.96,-116.88"/>
<text text-anchor="start" x="108.88" y="-104.33" font-family="Helvetica,sans-Serif" font-size="9.00">render.ts</text>
</a>
</g>
</g>
<!-- src/modules/map.mts&#45;&gt;src/store/render.ts -->
<g id="edge12" class="edge">
<title>src/modules/map.mts&#45;&gt;src/store/render.ts</title>
<path fill="none" stroke="#000000" stroke-width="2" stroke-opacity="0.200000" d="M99.4,-372.84C92.72,-369.72 86.88,-365.04 84.75,-358 81.03,-345.72 81.03,-139.28 84.75,-127 86.02,-122.81 88.67,-119.54 92.04,-116.99"/>
<polygon fill="#000000" fill-opacity="0.200000" stroke="#000000" stroke-width="2" stroke-opacity="0.200000" points="92.91,-118.91 97.14,-114.17 90.88,-115.23 92.91,-118.91"/>
</g>
<!-- src/store/mode.ts&#45;&gt;src/consts.ts -->
<g id="edge20" class="edge">
<title>src/store/mode.ts&#45;&gt;src/consts.ts</title>
<path fill="none" stroke="#000000" stroke-width="2" stroke-opacity="0.200000" d="M415.72,-71.7C418.77,-70.49 421.84,-69.24 424.75,-68 427.06,-67.02 429.44,-65.97 431.82,-64.9"/>
<polygon fill="#000000" fill-opacity="0.200000" stroke="#000000" stroke-width="2" stroke-opacity="0.200000" points="432.48,-66.91 437.05,-62.49 430.72,-63.09 432.48,-66.91"/>
</g>
<!-- src/store/route.ts&#45;&gt;src/consts.ts -->
<g id="edge26" class="edge">
<title>src/store/route.ts&#45;&gt;src/consts.ts</title>
<path fill="none" stroke="#000000" stroke-width="2" stroke-opacity="0.200000" d="M343.77,-131.67C346.03,-130.05 348.09,-128.17 349.75,-126 366.36,-104.35 342.81,-84.62 362.75,-66 371.48,-57.85 400.02,-54.43 423.73,-53"/>
<polygon fill="#000000" fill-opacity="0.200000" stroke="#000000" stroke-width="2" stroke-opacity="0.200000" points="423.62,-55.11 429.51,-52.71 423.41,-50.92 423.62,-55.11"/>
</g>
<!-- src/store/route.ts&#45;&gt;src/store/mode.ts -->
<g id="edge29" class="edge">
<title>src/store/route.ts&#45;&gt;src/store/mode.ts</title>
<path fill="none" stroke="#000000" stroke-width="2" stroke-opacity="0.200000" d="M342.78,-131.72C345.33,-130.06 347.73,-128.16 349.75,-126 358.2,-116.96 354.67,-109.43 363.41,-97.21"/>
<polygon fill="#000000" fill-opacity="0.200000" stroke="#000000" stroke-width="2" stroke-opacity="0.200000" points="364.99,-98.6 367.27,-92.66 361.79,-95.88 364.99,-98.6"/>
</g>
<!-- src/store/route.ts&#45;&gt;src/store/map.ts -->
<g id="edge27" class="edge">
<title>src/store/route.ts&#45;&gt;src/store/map.ts</title>
<path fill="none" stroke="#000000" stroke-width="2" stroke-opacity="0.200000" d="M346.77,-141C349,-141 351.28,-141 353.57,-141"/>
<polygon fill="#000000" fill-opacity="0.200000" stroke="#000000" stroke-width="2" stroke-opacity="0.200000" points="353.31,-143.1 359.31,-141 353.31,-138.9 353.31,-143.1"/>
</g>
<!-- src/store/marker.ts -->
<g id="node16" class="node">
<title>src/store/marker.ts</title>
<g id="a_node16"><a xlink:href="src/store/marker.ts" xlink:title="marker.ts">
<path fill="#ddfeff" stroke="black" d="M410.83,-119.88C410.83,-119.88 368.67,-119.88 368.67,-119.88 365.71,-119.88 362.75,-116.92 362.75,-113.96 362.75,-113.96 362.75,-108.04 362.75,-108.04 362.75,-105.08 365.71,-102.12 368.67,-102.12 368.67,-102.12 410.83,-102.12 410.83,-102.12 413.79,-102.12 416.75,-105.08 416.75,-108.04 416.75,-108.04 416.75,-113.96 416.75,-113.96 416.75,-116.92 413.79,-119.88 410.83,-119.88"/>
<text text-anchor="start" x="371" y="-107.33" font-family="Helvetica,sans-Serif" font-size="9.00">marker.ts</text>
</a>
</g>
</g>
<!-- src/store/route.ts&#45;&gt;src/store/marker.ts -->
<g id="edge28" class="edge">
<title>src/store/route.ts&#45;&gt;src/store/marker.ts</title>
<path fill="none" stroke="#000000" stroke-width="2" stroke-opacity="0.200000" d="M341.81,-131.67C347.5,-129.17 353.76,-126.41 359.79,-123.75"/>
<polygon fill="#000000" fill-opacity="0.200000" stroke="#000000" stroke-width="2" stroke-opacity="0.200000" points="360.4,-125.78 365.04,-121.44 358.71,-121.94 360.4,-125.78"/>
</g>
<!-- src/store/traversal.ts&#45;&gt;src/consts.ts -->
<g id="edge30" class="edge">
<title>src/store/traversal.ts&#45;&gt;src/consts.ts</title>
<path fill="none" stroke="#000000" stroke-width="2" stroke-opacity="0.200000" d="M345.54,-101.81C347.08,-100.68 348.51,-99.41 349.75,-98 362.95,-83.02 346.91,-67.15 362.75,-55 379.73,-41.98 403.82,-41.26 423.61,-43.78"/>
<polygon fill="#000000" fill-opacity="0.200000" stroke="#000000" stroke-width="2" stroke-opacity="0.200000" points="423.12,-45.83 429.37,-44.67 423.76,-41.68 423.12,-45.83"/>
</g>
<!-- src/store/traversal.ts&#45;&gt;src/store/mode.ts -->
<g id="edge33" class="edge">
<title>src/store/traversal.ts&#45;&gt;src/store/mode.ts</title>
<path fill="none" stroke="#000000" stroke-width="2" stroke-opacity="0.200000" d="M341.81,-101.67C347.5,-99.17 353.76,-96.41 359.79,-93.75"/>
<polygon fill="#000000" fill-opacity="0.200000" stroke="#000000" stroke-width="2" stroke-opacity="0.200000" points="360.4,-95.78 365.04,-91.44 358.71,-91.94 360.4,-95.78"/>
</g>
<!-- src/store/traversal.ts&#45;&gt;src/store/map.ts -->
<g id="edge31" class="edge">
<title>src/store/traversal.ts&#45;&gt;src/store/map.ts</title>
<path fill="none" stroke="#000000" stroke-width="2" stroke-opacity="0.200000" d="M341.81,-120.33C347.5,-122.83 353.76,-125.59 359.79,-128.25"/>
<polygon fill="#000000" fill-opacity="0.200000" stroke="#000000" stroke-width="2" stroke-opacity="0.200000" points="358.71,-130.06 365.04,-130.56 360.4,-126.22 358.71,-130.06"/>
</g>
<!-- src/store/traversal.ts&#45;&gt;src/store/marker.ts -->
<g id="edge32" class="edge">
<title>src/store/traversal.ts&#45;&gt;src/store/marker.ts</title>
<path fill="none" stroke="#000000" stroke-width="2" stroke-opacity="0.200000" d="M349.91,-111C351.22,-111 352.54,-111 353.85,-111"/>
<polygon fill="#000000" fill-opacity="0.200000" stroke="#000000" stroke-width="2" stroke-opacity="0.200000" points="353.47,-113.1 359.47,-111 353.47,-108.9 353.47,-113.1"/>
</g>
<!-- src/store/render.ts&#45;&gt;src/consts.ts -->
<g id="edge21" class="edge">
<title>src/store/render.ts&#45;&gt;src/consts.ts</title>
<path fill="none" stroke="#000000" stroke-width="2" stroke-opacity="0.200000" d="M136.05,-98.73C144.51,-89.61 158.52,-75.79 173,-67 220.18,-38.36 235.17,-33.71 289.5,-24 348.73,-13.42 367.77,-10.67 424.75,-30 430.17,-31.84 435.58,-34.73 440.44,-37.82"/>
<polygon fill="#000000" fill-opacity="0.200000" stroke="#000000" stroke-width="2" stroke-opacity="0.200000" points="438.91,-39.32 445.05,-41 441.3,-35.87 438.91,-39.32"/>
</g>
<!-- src/store/render.ts&#45;&gt;src/store/mode.ts -->
<g id="edge24" class="edge">
<title>src/store/render.ts&#45;&gt;src/store/mode.ts</title>
<path fill="none" stroke="#000000" stroke-width="2" stroke-opacity="0.200000" d="M139.75,-98.85C148.43,-92.77 160.78,-85.3 173,-82 234.78,-65.32 310.19,-70.46 353.53,-75.72"/>
<polygon fill="#000000" fill-opacity="0.200000" stroke="#000000" stroke-width="2" stroke-opacity="0.200000" points="353.05,-77.78 359.27,-76.46 353.58,-73.61 353.05,-77.78"/>
</g>
<!-- src/store/render.ts&#45;&gt;src/store/traversal.ts -->
<g id="edge25" class="edge">
<title>src/store/render.ts&#45;&gt;src/store/traversal.ts</title>
<path fill="none" stroke="#000000" stroke-width="2" stroke-opacity="0.200000" d="M154.1,-110.72C160.29,-111.25 166.87,-111.73 173,-112 209.4,-113.61 250.96,-113.09 280.34,-112.33"/>
<polygon fill="#000000" fill-opacity="0.200000" stroke="#000000" stroke-width="2" stroke-opacity="0.200000" points="280.08,-114.44 286.02,-112.17 279.96,-110.24 280.08,-114.44"/>
</g>
<!-- src/store/geojson.ts -->
<g id="node15" class="node">
<title>src/store/geojson.ts</title>
<g id="a_node15"><a xlink:href="src/store/geojson.ts" xlink:title="geojson.ts">
<path fill="#ddfeff" stroke="black" d="M250.33,-105.88C250.33,-105.88 204.17,-105.88 204.17,-105.88 201.21,-105.88 198.25,-102.92 198.25,-99.96 198.25,-99.96 198.25,-94.04 198.25,-94.04 198.25,-91.08 201.21,-88.12 204.17,-88.12 204.17,-88.12 250.33,-88.12 250.33,-88.12 253.29,-88.12 256.25,-91.08 256.25,-94.04 256.25,-94.04 256.25,-99.96 256.25,-99.96 256.25,-102.92 253.29,-105.88 250.33,-105.88"/>
<text text-anchor="start" x="206.25" y="-93.33" font-family="Helvetica,sans-Serif" font-size="9.00">geojson.ts</text>
</a>
</g>
</g>
<!-- src/store/render.ts&#45;&gt;src/store/geojson.ts -->
<g id="edge23" class="edge">
<title>src/store/render.ts&#45;&gt;src/store/geojson.ts</title>
<path fill="none" stroke="#000000" stroke-width="2" stroke-opacity="0.200000" d="M154.24,-105.05C165.03,-103.85 177.71,-102.43 189.4,-101.12"/>
<polygon fill="#000000" fill-opacity="0.200000" stroke="#000000" stroke-width="2" stroke-opacity="0.200000" points="189.35,-103.24 195.08,-100.49 188.89,-99.06 189.35,-103.24"/>
</g>
<!-- src/templates/debugPopup.hbs -->
<g id="node17" class="node">
<title>src/templates/debugPopup.hbs</title>
<g id="a_node17"><a xlink:href="src/templates/debugPopup.hbs" xlink:title="debugPopup.hbs">
<path fill="#ffffcc" stroke="black" d="M264.58,-209.88C264.58,-209.88 189.92,-209.88 189.92,-209.88 186.96,-209.88 184,-206.92 184,-203.96 184,-203.96 184,-198.04 184,-198.04 184,-195.08 186.96,-192.12 189.92,-192.12 189.92,-192.12 264.58,-192.12 264.58,-192.12 267.54,-192.12 270.5,-195.08 270.5,-198.04 270.5,-198.04 270.5,-203.96 270.5,-203.96 270.5,-206.92 267.54,-209.88 264.58,-209.88"/>
<text text-anchor="start" x="192" y="-197.32" font-family="Helvetica,sans-Serif" font-size="9.00">debugPopup.hbs</text>
</a>
</g>
</g>
<!-- src/store/render.ts&#45;&gt;src/templates/debugPopup.hbs -->
<g id="edge22" class="edge">
<title>src/store/render.ts&#45;&gt;src/templates/debugPopup.hbs</title>
<path fill="none" stroke="#000000" stroke-width="2" stroke-opacity="0.200000" d="M154.15,-113.09C158.3,-114.96 162.15,-117.51 165,-121 181.47,-141.14 157.09,-158.41 173,-179 175.44,-182.16 178.41,-184.86 181.69,-187.19"/>
<polygon fill="#000000" fill-opacity="0.200000" stroke="#000000" stroke-width="2" stroke-opacity="0.200000" points="180.44,-188.88 186.67,-190.13 182.58,-185.27 180.44,-188.88"/>
</g>
<!-- src/store/geojson.ts&#45;&gt;src/config.ts -->
<g id="edge15" class="edge">
<title>src/store/geojson.ts&#45;&gt;src/config.ts</title>
<path fill="none" stroke="#000000" stroke-width="2" stroke-opacity="0.200000" d="M256.62,-95.55C265.55,-93.77 274.82,-90.37 281.5,-84 290.56,-75.37 281.9,-66.94 289.5,-57 290.31,-55.94 291.21,-54.92 292.16,-53.96"/>
<polygon fill="#000000" fill-opacity="0.200000" stroke="#000000" stroke-width="2" stroke-opacity="0.200000" points="293.48,-55.59 296.8,-50.17 290.82,-52.34 293.48,-55.59"/>
</g>
<!-- src/store/geojson.ts&#45;&gt;src/consts.ts -->
<g id="edge16" class="edge">
<title>src/store/geojson.ts&#45;&gt;src/consts.ts</title>
<path fill="none" stroke="#000000" stroke-width="2" stroke-opacity="0.200000" d="M256.7,-91.03C264.8,-89.06 273.57,-86.69 281.5,-84 312.88,-73.36 323.08,-73.67 349.75,-54 356.85,-48.76 354.73,-42.66 362.75,-39 383.58,-29.49 409.41,-33.77 429.02,-39.87"/>
<polygon fill="#000000" fill-opacity="0.200000" stroke="#000000" stroke-width="2" stroke-opacity="0.200000" points="428.34,-41.85 434.69,-41.78 429.68,-37.87 428.34,-41.85"/>
</g>
<!-- src/store/geojson.ts&#45;&gt;src/store/mode.ts -->
<g id="edge17" class="edge">
<title>src/store/geojson.ts&#45;&gt;src/store/mode.ts</title>
<path fill="none" stroke="#000000" stroke-width="2" stroke-opacity="0.200000" d="M256.57,-94.18C283.65,-91.48 324.55,-87.4 353.67,-84.5"/>
<polygon fill="#000000" fill-opacity="0.200000" stroke="#000000" stroke-width="2" stroke-opacity="0.200000" points="353.53,-86.62 359.29,-83.94 353.11,-82.44 353.53,-86.62"/>
</g>
<!-- src/store/geojson.ts&#45;&gt;src/store/route.ts -->
<g id="edge18" class="edge">
<title>src/store/geojson.ts&#45;&gt;src/store/route.ts</title>
<path fill="none" stroke="#000000" stroke-width="2" stroke-opacity="0.200000" d="M247.42,-106.33C260.24,-112.57 277.3,-120.88 291.5,-127.8"/>
<polygon fill="#000000" fill-opacity="0.200000" stroke="#000000" stroke-width="2" stroke-opacity="0.200000" points="290.45,-129.62 296.76,-130.36 292.29,-125.84 290.45,-129.62"/>
</g>
<!-- src/store/geojson.ts&#45;&gt;src/store/traversal.ts -->
<g id="edge19" class="edge">
<title>src/store/geojson.ts&#45;&gt;src/store/traversal.ts</title>
<path fill="none" stroke="#000000" stroke-width="2" stroke-opacity="0.200000" d="M256.35,-101.35C263.95,-102.53 272.32,-103.83 280.38,-105.07"/>
<polygon fill="#000000" fill-opacity="0.200000" stroke="#000000" stroke-width="2" stroke-opacity="0.200000" points="280.05,-107.15 286.3,-105.99 280.69,-103 280.05,-107.15"/>
</g>
<!-- src/vite&#45;env.d.ts -->
<g id="node18" class="node">
<title>src/vite&#45;env.d.ts</title>
<g id="a_node18"><a xlink:href="src/vite-env.d.ts" xlink:title="vite&#45;env.d.ts">
<path fill="#ccffcc" stroke="black" d="M74.83,-403.88C74.83,-403.88 21.92,-403.88 21.92,-403.88 18.96,-403.88 16,-400.92 16,-397.96 16,-397.96 16,-392.04 16,-392.04 16,-389.08 18.96,-386.12 21.92,-386.12 21.92,-386.12 74.83,-386.12 74.83,-386.12 77.79,-386.12 80.75,-389.08 80.75,-392.04 80.75,-392.04 80.75,-397.96 80.75,-397.96 80.75,-400.92 77.79,-403.88 74.83,-403.88"/>
<text text-anchor="start" x="24" y="-391.32" font-family="Helvetica,sans-Serif" font-size="9.00">vite&#45;env.d.ts</text>
</a>
</g>
</g>
</g>
</svg>
