<?xml version="1.0" encoding="UTF-8" standalone="no"?>
<!DOCTYPE svg PUBLIC "-//W3C//DTD SVG 1.1//EN"
 "http://www.w3.org/Graphics/SVG/1.1/DTD/svg11.dtd">
<!-- Generated by graphviz version 10.0.1 (20240210.2158)
 -->
<!-- Title: dependency&#45;cruiser output Pages: 1 -->
<svg width="511pt" height="490pt"
 viewBox="0.00 0.00 510.75 490.00" xmlns="http://www.w3.org/2000/svg" xmlns:xlink="http://www.w3.org/1999/xlink">
<g id="graph0" class="graph" transform="scale(1 1) rotate(0) translate(4 486)">
<title>dependency&#45;cruiser output</title>
<polygon fill="white" stroke="none" points="-4,4 -4,-486 506.75,-486 506.75,4 -4,4"/>
<g id="clust1" class="cluster">
<title>cluster_src</title>
<path fill="#ffffff" stroke="black" stroke-width="2" d="M20,-8C20,-8 482.75,-8 482.75,-8 488.75,-8 494.75,-14 494.75,-20 494.75,-20 494.75,-462 494.75,-462 494.75,-468 488.75,-474 482.75,-474 482.75,-474 20,-474 20,-474 14,-474 8,-468 8,-462 8,-462 8,-20 8,-20 8,-14 14,-8 20,-8"/>
<text text-anchor="middle" x="251.38" y="-461.45" font-family="Helvetica,sans-Serif" font-weight="bold" font-size="9.00">src</text>
</g>
<g id="clust2" class="cluster">
<title>cluster_src/modules</title>
<path fill="#ffffff" stroke="black" stroke-width="2" d="M100.75,-346C100.75,-346 153,-346 153,-346 159,-346 165,-352 165,-358 165,-358 165,-416 165,-416 165,-422 159,-428 153,-428 153,-428 100.75,-428 100.75,-428 94.75,-428 88.75,-422 88.75,-416 88.75,-416 88.75,-358 88.75,-358 88.75,-352 94.75,-346 100.75,-346"/>
<text text-anchor="middle" x="126.88" y="-415.45" font-family="Helvetica,sans-Serif" font-weight="bold" font-size="9.00">modules</text>
</g>
<g id="clust3" class="cluster">
<title>cluster_src/store</title>
<path fill="#ffffff" stroke="black" stroke-width="2" d="M103.88,-66C103.88,-66 412.75,-66 412.75,-66 418.75,-66 424.75,-72 424.75,-78 424.75,-78 424.75,-192 424.75,-192 424.75,-198 418.75,-204 412.75,-204 412.75,-204 103.87,-204 103.87,-204 97.87,-204 91.88,-198 91.88,-192 91.88,-192 91.88,-78 91.88,-78 91.88,-72 97.88,-66 103.88,-66"/>
<text text-anchor="middle" x="258.31" y="-191.45" font-family="Helvetica,sans-Serif" font-weight="bold" font-size="9.00">store</text>
</g>
<g id="clust4" class="cluster">
<title>cluster_src/templates</title>
<path fill="#ffffff" stroke="black" stroke-width="2" d="M185,-212C185,-212 269.5,-212 269.5,-212 275.5,-212 281.5,-218 281.5,-224 281.5,-224 281.5,-342 281.5,-342 281.5,-348 275.5,-354 269.5,-354 269.5,-354 185,-354 185,-354 179,-354 173,-348 173,-342 173,-342 173,-224 173,-224 173,-218 179,-212 185,-212"/>
<text text-anchor="middle" x="227.25" y="-341.45" font-family="Helvetica,sans-Serif" font-weight="bold" font-size="9.00">templates</text>
</g>
<!-- src/config.ts -->
<g id="node1" class="node">
<title>src/config.ts</title>
<g id="a_node1"><a xlink:href="src/config.ts" xlink:title="config.ts">
<path fill="#ddfeff" stroke="black" d="M340.71,-47.88C340.71,-47.88 298.54,-47.88 298.54,-47.88 295.58,-47.88 292.62,-44.92 292.62,-41.96 292.62,-41.96 292.62,-36.04 292.62,-36.04 292.62,-33.08 295.58,-30.12 298.54,-30.12 298.54,-30.12 340.71,-30.12 340.71,-30.12 343.67,-30.12 346.62,-33.08 346.62,-36.04 346.62,-36.04 346.62,-41.96 346.62,-41.96 346.62,-44.92 343.67,-47.88 340.71,-47.88"/>
<text text-anchor="start" x="302.75" y="-35.33" font-family="Helvetica,sans-Serif" font-size="9.00">config.ts</text>
</a>
</g>
</g>
<!-- src/consts.ts -->
<g id="node2" class="node">
<title>src/consts.ts</title>
<g id="a_node2"><a xlink:href="src/consts.ts" xlink:title="consts.ts">
<path fill="#ddfeff" stroke="black" d="M480.83,-88.88C480.83,-88.88 438.67,-88.88 438.67,-88.88 435.71,-88.88 432.75,-85.92 432.75,-82.96 432.75,-82.96 432.75,-77.04 432.75,-77.04 432.75,-74.08 435.71,-71.12 438.67,-71.12 438.67,-71.12 480.83,-71.12 480.83,-71.12 483.79,-71.12 486.75,-74.08 486.75,-77.04 486.75,-77.04 486.75,-82.96 486.75,-82.96 486.75,-85.92 483.79,-88.88 480.83,-88.88"/>
<text text-anchor="start" x="442.12" y="-76.33" font-family="Helvetica,sans-Serif" font-size="9.00">consts.ts</text>
</a>
</g>
</g>
<!-- src/main.ts -->
<g id="node3" class="node">
<title>src/main.ts</title>
<g id="a_node3"><a xlink:href="src/main.ts" xlink:title="main.ts">
<path fill="#ddfeff" stroke="black" d="M69.46,-371.88C69.46,-371.88 27.29,-371.88 27.29,-371.88 24.33,-371.88 21.38,-368.92 21.38,-365.96 21.38,-365.96 21.38,-360.04 21.38,-360.04 21.38,-357.08 24.33,-354.12 27.29,-354.12 27.29,-354.12 69.46,-354.12 69.46,-354.12 72.42,-354.12 75.38,-357.08 75.38,-360.04 75.38,-360.04 75.38,-365.96 75.38,-365.96 75.38,-368.92 72.42,-371.88 69.46,-371.88"/>
<text text-anchor="start" x="33.75" y="-359.32" font-family="Helvetica,sans-Serif" font-size="9.00">main.ts</text>
</a>
</g>
</g>
<!-- src/modules/control.mts -->
<g id="node4" class="node">
<title>src/modules/control.mts</title>
<g id="a_node4"><a xlink:href="src/modules/control.mts" xlink:title="control.mts">
<path fill="#ddfeff" stroke="black" d="M151.08,-371.88C151.08,-371.88 102.67,-371.88 102.67,-371.88 99.71,-371.88 96.75,-368.92 96.75,-365.96 96.75,-365.96 96.75,-360.04 96.75,-360.04 96.75,-357.08 99.71,-354.12 102.67,-354.12 102.67,-354.12 151.08,-354.12 151.08,-354.12 154.04,-354.12 157,-357.08 157,-360.04 157,-360.04 157,-365.96 157,-365.96 157,-368.92 154.04,-371.88 151.08,-371.88"/>
<text text-anchor="start" x="104.75" y="-359.32" font-family="Helvetica,sans-Serif" font-size="9.00">control.mts</text>
</a>
</g>
</g>
<!-- src/main.ts&#45;&gt;src/modules/control.mts -->
<g id="edge1" class="edge">
<title>src/main.ts&#45;&gt;src/modules/control.mts</title>
<path fill="none" stroke="#000000" stroke-width="2" stroke-opacity="0.200000" d="M75.7,-363C79.55,-363 83.58,-363 87.6,-363"/>
<polygon fill="#000000" fill-opacity="0.200000" stroke="#000000" stroke-width="2" stroke-opacity="0.200000" points="87.32,-365.1 93.32,-363 87.32,-360.9 87.32,-365.1"/>
</g>
<!-- src/modules/map.mts -->
<g id="node5" class="node">
<title>src/modules/map.mts</title>
<g id="a_node5"><a xlink:href="src/modules/map.mts" xlink:title="map.mts">
<path fill="#ddfeff" stroke="black" d="M147.96,-401.88C147.96,-401.88 105.79,-401.88 105.79,-401.88 102.83,-401.88 99.88,-398.92 99.88,-395.96 99.88,-395.96 99.88,-390.04 99.88,-390.04 99.88,-387.08 102.83,-384.12 105.79,-384.12 105.79,-384.12 147.96,-384.12 147.96,-384.12 150.92,-384.12 153.88,-387.08 153.88,-390.04 153.88,-390.04 153.88,-395.96 153.88,-395.96 153.88,-398.92 150.92,-401.88 147.96,-401.88"/>
<text text-anchor="start" x="109.62" y="-389.32" font-family="Helvetica,sans-Serif" font-size="9.00">map.mts</text>
</a>
</g>
</g>
<!-- src/main.ts&#45;&gt;src/modules/map.mts -->
<g id="edge2" class="edge">
<title>src/main.ts&#45;&gt;src/modules/map.mts</title>
<path fill="none" stroke="#000000" stroke-width="2" stroke-opacity="0.200000" d="M73.16,-372.33C79.78,-374.92 87.08,-377.79 94.08,-380.53"/>
<polygon fill="#000000" fill-opacity="0.200000" stroke="#000000" stroke-width="2" stroke-opacity="0.200000" points="92.93,-382.34 99.29,-382.57 94.47,-378.43 92.93,-382.34"/>
</g>
<!-- src/style.css -->
<g id="node6" class="node">
<title>src/style.css</title>
<g id="a_node6"><a xlink:href="src/style.css" xlink:title="style.css">
<path fill="#ffffcc" stroke="black" d="M147.96,-337.88C147.96,-337.88 105.79,-337.88 105.79,-337.88 102.83,-337.88 99.88,-334.92 99.88,-331.96 99.88,-331.96 99.88,-326.04 99.88,-326.04 99.88,-323.08 102.83,-320.12 105.79,-320.12 105.79,-320.12 147.96,-320.12 147.96,-320.12 150.92,-320.12 153.88,-323.08 153.88,-326.04 153.88,-326.04 153.88,-331.96 153.88,-331.96 153.88,-334.92 150.92,-337.88 147.96,-337.88"/>
<text text-anchor="start" x="109.62" y="-325.32" font-family="Helvetica,sans-Serif" font-size="9.00">style.css</text>
</a>
</g>
</g>
<!-- src/main.ts&#45;&gt;src/style.css -->
<g id="edge3" class="edge">
<title>src/main.ts&#45;&gt;src/style.css</title>
<path fill="none" stroke="#000000" stroke-width="2" stroke-opacity="0.200000" d="M66.43,-353.82C73.28,-350.27 81.31,-346.28 88.75,-343 89.78,-342.55 90.83,-342.09 91.89,-341.64"/>
<polygon fill="#000000" fill-opacity="0.200000" stroke="#000000" stroke-width="2" stroke-opacity="0.200000" points="92.59,-343.62 97.36,-339.42 91.01,-339.73 92.59,-343.62"/>
</g>
<!-- src/modules/control.mts&#45;&gt;src/consts.ts -->
<g id="edge4" class="edge">
<title>src/modules/control.mts&#45;&gt;src/consts.ts</title>
<path fill="none" stroke="#000000" stroke-width="2" stroke-opacity="0.200000" d="M156.53,-372.35C159.55,-373.97 162.45,-375.85 165,-378 170.18,-382.38 167.08,-387.69 173,-391 215.1,-414.52 238.18,-412.18 281.5,-391 374.61,-345.49 378.6,-299.79 424.75,-207 442.88,-170.56 452.25,-123.26 456.27,-97.91"/>
<polygon fill="#000000" fill-opacity="0.200000" stroke="#000000" stroke-width="2" stroke-opacity="0.200000" points="458.33,-98.3 457.14,-92.05 454.18,-97.67 458.33,-98.3"/>
</g>
<!-- src/store/mode.ts -->
<g id="node7" class="node">
<title>src/store/mode.ts</title>
<g id="a_node7"><a xlink:href="src/store/mode.ts" xlink:title="mode.ts">
<path fill="#ddfeff" stroke="black" d="M410.83,-177.88C410.83,-177.88 368.67,-177.88 368.67,-177.88 365.71,-177.88 362.75,-174.92 362.75,-171.96 362.75,-171.96 362.75,-166.04 362.75,-166.04 362.75,-163.08 365.71,-160.12 368.67,-160.12 368.67,-160.12 410.83,-160.12 410.83,-160.12 413.79,-160.12 416.75,-163.08 416.75,-166.04 416.75,-166.04 416.75,-171.96 416.75,-171.96 416.75,-174.92 413.79,-177.88 410.83,-177.88"/>
<text text-anchor="start" x="373.62" y="-165.32" font-family="Helvetica,sans-Serif" font-size="9.00">mode.ts</text>
</a>
</g>
</g>
<!-- src/modules/control.mts&#45;&gt;src/store/mode.ts -->
<g id="edge5" class="edge">
<title>src/modules/control.mts&#45;&gt;src/store/mode.ts</title>
<path fill="none" stroke="#000000" stroke-width="2" stroke-opacity="0.200000" d="M150.27,-372.29C159.17,-375.8 168.39,-379.16 173,-380 220.44,-388.64 241.45,-406.86 281.5,-380 358.19,-328.58 301.57,-256.1 361.17,-184.8"/>
<polygon fill="#000000" fill-opacity="0.200000" stroke="#000000" stroke-width="2" stroke-opacity="0.200000" points="362.47,-186.5 364.88,-180.62 359.33,-183.71 362.47,-186.5"/>
</g>
<!-- src/store/route.ts -->
<g id="node8" class="node">
<title>src/store/route.ts</title>
<g id="a_node8"><a xlink:href="src/store/route.ts" xlink:title="route.ts">
<path fill="#ddfeff" stroke="black" d="M340.71,-163.88C340.71,-163.88 298.54,-163.88 298.54,-163.88 295.58,-163.88 292.62,-160.92 292.62,-157.96 292.62,-157.96 292.62,-152.04 292.62,-152.04 292.62,-149.08 295.58,-146.12 298.54,-146.12 298.54,-146.12 340.71,-146.12 340.71,-146.12 343.67,-146.12 346.62,-149.08 346.62,-152.04 346.62,-152.04 346.62,-157.96 346.62,-157.96 346.62,-160.92 343.67,-163.88 340.71,-163.88"/>
<text text-anchor="start" x="304.62" y="-151.32" font-family="Helvetica,sans-Serif" font-size="9.00">route.ts</text>
</a>
</g>
</g>
<!-- src/modules/control.mts&#45;&gt;src/store/route.ts -->
<g id="edge6" class="edge">
<title>src/modules/control.mts&#45;&gt;src/store/route.ts</title>
<path fill="none" stroke="#000000" stroke-width="2" stroke-opacity="0.200000" d="M151.56,-372.3C184.73,-383.6 245.04,-397.63 281.5,-367 311.01,-342.21 317.07,-219.67 318.31,-173.05"/>
<polygon fill="#000000" fill-opacity="0.200000" stroke="#000000" stroke-width="2" stroke-opacity="0.200000" points="320.4,-173.39 318.44,-167.34 316.2,-173.29 320.4,-173.39"/>
</g>
<!-- src/store/traversal.ts -->
<g id="node9" class="node">
<title>src/store/traversal.ts</title>
<g id="a_node9"><a xlink:href="src/store/traversal.ts" xlink:title="traversal.ts">
<path fill="#ddfeff" stroke="black" d="M343.83,-133.88C343.83,-133.88 295.42,-133.88 295.42,-133.88 292.46,-133.88 289.5,-130.92 289.5,-127.96 289.5,-127.96 289.5,-122.04 289.5,-122.04 289.5,-119.08 292.46,-116.12 295.42,-116.12 295.42,-116.12 343.83,-116.12 343.83,-116.12 346.79,-116.12 349.75,-119.08 349.75,-122.04 349.75,-122.04 349.75,-127.96 349.75,-127.96 349.75,-130.92 346.79,-133.88 343.83,-133.88"/>
<text text-anchor="start" x="297.5" y="-121.33" font-family="Helvetica,sans-Serif" font-size="9.00">traversal.ts</text>
</a>
</g>
</g>
<!-- src/modules/control.mts&#45;&gt;src/store/traversal.ts -->
<g id="edge7" class="edge">
<title>src/modules/control.mts&#45;&gt;src/store/traversal.ts</title>
<path fill="none" stroke="#000000" stroke-width="2" stroke-opacity="0.200000" d="M157.3,-366.35C197,-370.15 264.72,-373.82 281.5,-357 297.28,-341.19 279.61,-186.12 291.38,-142.48"/>
<polygon fill="#000000" fill-opacity="0.200000" stroke="#000000" stroke-width="2" stroke-opacity="0.200000" points="293.27,-143.4 293.65,-137.06 289.4,-141.78 293.27,-143.4"/>
</g>
<!-- src/templates/control.hbs -->
<g id="node10" class="node">
<title>src/templates/control.hbs</title>
<g id="a_node10"><a xlink:href="src/templates/control.hbs" xlink:title="control.hbs">
<path fill="#ffffcc" stroke="black" d="M251.83,-327.88C251.83,-327.88 202.67,-327.88 202.67,-327.88 199.71,-327.88 196.75,-324.92 196.75,-321.96 196.75,-321.96 196.75,-316.04 196.75,-316.04 196.75,-313.08 199.71,-310.12 202.67,-310.12 202.67,-310.12 251.83,-310.12 251.83,-310.12 254.79,-310.12 257.75,-313.08 257.75,-316.04 257.75,-316.04 257.75,-321.96 257.75,-321.96 257.75,-324.92 254.79,-327.88 251.83,-327.88"/>
<text text-anchor="start" x="204.75" y="-315.32" font-family="Helvetica,sans-Serif" font-size="9.00">control.hbs</text>
</a>
</g>
</g>
<!-- src/modules/control.mts&#45;&gt;src/templates/control.hbs -->
<g id="edge8" class="edge">
<title>src/modules/control.mts&#45;&gt;src/templates/control.hbs</title>
<path fill="none" stroke="#000000" stroke-width="2" stroke-opacity="0.200000" d="M155.6,-353.74C158.79,-352.54 161.98,-351.28 165,-350 177.23,-344.79 190.44,-338.23 201.44,-332.49"/>
<polygon fill="#000000" fill-opacity="0.200000" stroke="#000000" stroke-width="2" stroke-opacity="0.200000" points="202.38,-334.37 206.7,-329.71 200.41,-330.66 202.38,-334.37"/>
</g>
<!-- src/templates/routePanel.hbs -->
<g id="node11" class="node">
<title>src/templates/routePanel.hbs</title>
<g id="a_node11"><a xlink:href="src/templates/routePanel.hbs" xlink:title="routePanel.hbs">
<path fill="#ffffcc" stroke="black" d="M260.46,-267.88C260.46,-267.88 194.04,-267.88 194.04,-267.88 191.08,-267.88 188.12,-264.92 188.12,-261.96 188.12,-261.96 188.12,-256.04 188.12,-256.04 188.12,-253.08 191.08,-250.12 194.04,-250.12 194.04,-250.12 260.46,-250.12 260.46,-250.12 263.42,-250.12 266.38,-253.08 266.38,-256.04 266.38,-256.04 266.38,-261.96 266.38,-261.96 266.38,-264.92 263.42,-267.88 260.46,-267.88"/>
<text text-anchor="start" x="196.12" y="-255.32" font-family="Helvetica,sans-Serif" font-size="9.00">routePanel.hbs</text>
</a>
</g>
</g>
<!-- src/modules/control.mts&#45;&gt;src/templates/routePanel.hbs -->
<g id="edge9" class="edge">
<title>src/modules/control.mts&#45;&gt;src/templates/routePanel.hbs</title>
<path fill="none" stroke="#000000" stroke-width="2" stroke-opacity="0.200000" d="M157.19,-356.5C160.17,-354.81 162.88,-352.68 165,-350 186.08,-323.37 151.11,-299.97 173,-274 175.07,-271.54 177.51,-269.47 180.19,-267.73"/>
<polygon fill="#000000" fill-opacity="0.200000" stroke="#000000" stroke-width="2" stroke-opacity="0.200000" points="180.68,-269.84 185.05,-265.22 178.75,-266.11 180.68,-269.84"/>
</g>
<!-- src/templates/traversalPanel.hbs -->
<g id="node12" class="node">
<title>src/templates/traversalPanel.hbs</title>
<g id="a_node12"><a xlink:href="src/templates/traversalPanel.hbs" xlink:title="traversalPanel.hbs">
<path fill="#ffffcc" stroke="black" d="M267.58,-297.88C267.58,-297.88 186.92,-297.88 186.92,-297.88 183.96,-297.88 181,-294.92 181,-291.96 181,-291.96 181,-286.04 181,-286.04 181,-283.08 183.96,-280.12 186.92,-280.12 186.92,-280.12 267.58,-280.12 267.58,-280.12 270.54,-280.12 273.5,-283.08 273.5,-286.04 273.5,-286.04 273.5,-291.96 273.5,-291.96 273.5,-294.92 270.54,-297.88 267.58,-297.88"/>
<text text-anchor="start" x="189" y="-285.32" font-family="Helvetica,sans-Serif" font-size="9.00">traversalPanel.hbs</text>
</a>
</g>
</g>
<!-- src/modules/control.mts&#45;&gt;src/templates/traversalPanel.hbs -->
<g id="edge10" class="edge">
<title>src/modules/control.mts&#45;&gt;src/templates/traversalPanel.hbs</title>
<path fill="none" stroke="#000000" stroke-width="2" stroke-opacity="0.200000" d="M157.38,-356.15C160.25,-354.52 162.88,-352.5 165,-350 178.42,-334.17 159.1,-319.41 173,-304 173.27,-303.7 173.55,-303.4 173.84,-303.11"/>
<polygon fill="#000000" fill-opacity="0.200000" stroke="#000000" stroke-width="2" stroke-opacity="0.200000" points="174.75,-305.07 178.13,-299.69 172.13,-301.78 174.75,-305.07"/>
</g>
<!-- src/modules/map.mts&#45;&gt;src/store/route.ts -->
<g id="edge13" class="edge">
<title>src/modules/map.mts&#45;&gt;src/store/route.ts</title>
<path fill="none" stroke="#000000" stroke-width="2" stroke-opacity="0.200000" d="M154.24,-399.52C188.28,-406.22 247.19,-411.7 281.5,-380 311.7,-352.1 317.33,-221.38 318.38,-173.03"/>
<polygon fill="#000000" fill-opacity="0.200000" stroke="#000000" stroke-width="2" stroke-opacity="0.200000" points="320.48,-173.34 318.49,-167.3 316.28,-173.26 320.48,-173.34"/>
</g>
<!-- src/modules/map.mts&#45;&gt;src/store/traversal.ts -->
<g id="edge14" class="edge">
<title>src/modules/map.mts&#45;&gt;src/store/traversal.ts</title>
<path fill="none" stroke="#000000" stroke-width="2" stroke-opacity="0.200000" d="M154.02,-386.15C160.22,-384.66 166.82,-383.18 173,-382 196.91,-377.45 265.19,-385.07 281.5,-367 297.19,-349.62 279.02,-187.45 291.35,-142.51"/>
<polygon fill="#000000" fill-opacity="0.200000" stroke="#000000" stroke-width="2" stroke-opacity="0.200000" points="293.25,-143.4 293.64,-137.05 289.38,-141.77 293.25,-143.4"/>
</g>
<!-- src/store/map.ts -->
<g id="node13" class="node">
<title>src/store/map.ts</title>
<g id="a_node13"><a xlink:href="src/store/map.ts" xlink:title="map.ts">
<path fill="#ddfeff" stroke="black" d="M410.83,-117.88C410.83,-117.88 368.67,-117.88 368.67,-117.88 365.71,-117.88 362.75,-114.92 362.75,-111.96 362.75,-111.96 362.75,-106.04 362.75,-106.04 362.75,-103.08 365.71,-100.12 368.67,-100.12 368.67,-100.12 410.83,-100.12 410.83,-100.12 413.79,-100.12 416.75,-103.08 416.75,-106.04 416.75,-106.04 416.75,-111.96 416.75,-111.96 416.75,-114.92 413.79,-117.88 410.83,-117.88"/>
<text text-anchor="start" x="376.25" y="-105.33" font-family="Helvetica,sans-Serif" font-size="9.00">map.ts</text>
</a>
</g>
</g>
<!-- src/modules/map.mts&#45;&gt;src/store/map.ts -->
<g id="edge11" class="edge">
<title>src/modules/map.mts&#45;&gt;src/store/map.ts</title>
<path fill="none" stroke="#000000" stroke-width="2" stroke-opacity="0.200000" d="M153.88,-402.33C186.99,-412.41 244.34,-423.59 281.5,-396 365.74,-333.44 320.31,-270.71 349.75,-170 355.06,-151.84 350.87,-142.84 363.32,-125.23"/>
<polygon fill="#000000" fill-opacity="0.200000" stroke="#000000" stroke-width="2" stroke-opacity="0.200000" points="364.81,-126.73 366.84,-120.71 361.5,-124.15 364.81,-126.73"/>
</g>
<!-- src/store/render.ts -->
<g id="node14" class="node">
<title>src/store/render.ts</title>
<g id="a_node14"><a xlink:href="src/store/render.ts" xlink:title="render.ts">
<path fill="#ddfeff" stroke="black" d="M147.96,-133.88C147.96,-133.88 105.79,-133.88 105.79,-133.88 102.83,-133.88 99.88,-130.92 99.88,-127.96 99.88,-127.96 99.88,-122.04 99.88,-122.04 99.88,-119.08 102.83,-116.12 105.79,-116.12 105.79,-116.12 147.96,-116.12 147.96,-116.12 150.92,-116.12 153.88,-119.08 153.88,-122.04 153.88,-122.04 153.88,-127.96 153.88,-127.96 153.88,-130.92 150.92,-133.88 147.96,-133.88"/>
<text text-anchor="start" x="108.88" y="-121.33" font-family="Helvetica,sans-Serif" font-size="9.00">render.ts</text>
</a>
</g>
</g>
<!-- src/modules/map.mts&#45;&gt;src/store/render.ts -->
<g id="edge12" class="edge">
<title>src/modules/map.mts&#45;&gt;src/store/render.ts</title>
<path fill="none" stroke="#000000" stroke-width="2" stroke-opacity="0.200000" d="M99.4,-386.84C92.72,-383.72 86.88,-379.04 84.75,-372 81.08,-359.88 81.08,-156.12 84.75,-144 86.02,-139.81 88.67,-136.54 92.04,-133.99"/>
<polygon fill="#000000" fill-opacity="0.200000" stroke="#000000" stroke-width="2" stroke-opacity="0.200000" points="92.91,-135.91 97.14,-131.17 90.88,-132.23 92.91,-135.91"/>
</g>
<!-- src/store/mode.ts&#45;&gt;src/consts.ts -->
<g id="edge21" class="edge">
<title>src/store/mode.ts&#45;&gt;src/consts.ts</title>
<path fill="none" stroke="#000000" stroke-width="2" stroke-opacity="0.200000" d="M417.24,-159.69C419.97,-158.06 422.54,-156.17 424.75,-154 440.58,-138.41 449.79,-114.07 454.54,-97.6"/>
<polygon fill="#000000" fill-opacity="0.200000" stroke="#000000" stroke-width="2" stroke-opacity="0.200000" points="456.55,-98.21 456.06,-91.87 452.49,-97.13 456.55,-98.21"/>
</g>
<!-- src/store/route.ts&#45;&gt;src/consts.ts -->
<g id="edge28" class="edge">
<title>src/store/route.ts&#45;&gt;src/consts.ts</title>
<path fill="none" stroke="#000000" stroke-width="2" stroke-opacity="0.200000" d="M343.35,-145.77C345.74,-144.12 347.95,-142.2 349.75,-140 363.2,-123.55 346.78,-108.01 362.75,-94 371.73,-86.12 400.24,-82.68 423.88,-81.17"/>
<polygon fill="#000000" fill-opacity="0.200000" stroke="#000000" stroke-width="2" stroke-opacity="0.200000" points="423.75,-83.28 429.63,-80.85 423.52,-79.09 423.75,-83.28"/>
</g>
<!-- src/store/route.ts&#45;&gt;src/store/mode.ts -->
<g id="edge31" class="edge">
<title>src/store/route.ts&#45;&gt;src/store/mode.ts</title>
<path fill="none" stroke="#000000" stroke-width="2" stroke-opacity="0.200000" d="M346.77,-160.37C349,-160.83 351.28,-161.3 353.57,-161.77"/>
<polygon fill="#000000" fill-opacity="0.200000" stroke="#000000" stroke-width="2" stroke-opacity="0.200000" points="353.07,-163.81 359.37,-162.96 353.92,-159.7 353.07,-163.81"/>
</g>
<!-- src/store/route.ts&#45;&gt;src/store/map.ts -->
<g id="edge29" class="edge">
<title>src/store/route.ts&#45;&gt;src/store/map.ts</title>
<path fill="none" stroke="#000000" stroke-width="2" stroke-opacity="0.200000" d="M341.35,-145.69C344.29,-143.99 347.19,-142.08 349.75,-140 356.86,-134.22 355.78,-129.94 362.75,-124 363.05,-123.75 363.35,-123.49 363.66,-123.25"/>
<polygon fill="#000000" fill-opacity="0.200000" stroke="#000000" stroke-width="2" stroke-opacity="0.200000" points="364.41,-125.29 368.08,-120.1 361.97,-121.86 364.41,-125.29"/>
</g>
<!-- src/store/marker.ts -->
<g id="node16" class="node">
<title>src/store/marker.ts</title>
<g id="a_node16"><a xlink:href="src/store/marker.ts" xlink:title="marker.ts">
<path fill="#ddfeff" stroke="black" d="M410.83,-147.88C410.83,-147.88 368.67,-147.88 368.67,-147.88 365.71,-147.88 362.75,-144.92 362.75,-141.96 362.75,-141.96 362.75,-136.04 362.75,-136.04 362.75,-133.08 365.71,-130.12 368.67,-130.12 368.67,-130.12 410.83,-130.12 410.83,-130.12 413.79,-130.12 416.75,-133.08 416.75,-136.04 416.75,-136.04 416.75,-141.96 416.75,-141.96 416.75,-144.92 413.79,-147.88 410.83,-147.88"/>
<text text-anchor="start" x="371" y="-135.32" font-family="Helvetica,sans-Serif" font-size="9.00">marker.ts</text>
</a>
</g>
</g>
<!-- src/store/route.ts&#45;&gt;src/store/marker.ts -->
<g id="edge30" class="edge">
<title>src/store/route.ts&#45;&gt;src/store/marker.ts</title>
<path fill="none" stroke="#000000" stroke-width="2" stroke-opacity="0.200000" d="M346.77,-148.86C349,-148.34 351.28,-147.8 353.57,-147.26"/>
<polygon fill="#000000" fill-opacity="0.200000" stroke="#000000" stroke-width="2" stroke-opacity="0.200000" points="354.03,-149.31 359.39,-145.9 353.07,-145.22 354.03,-149.31"/>
</g>
<!-- src/store/traversal.ts&#45;&gt;src/consts.ts -->
<g id="edge32" class="edge">
<title>src/store/traversal.ts&#45;&gt;src/consts.ts</title>
<path fill="none" stroke="#000000" stroke-width="2" stroke-opacity="0.200000" d="M345.34,-115.63C346.93,-114.54 348.42,-113.33 349.75,-112 359.75,-102.02 351.02,-90.86 362.75,-83 380.33,-71.22 404.07,-70.38 423.54,-72.53"/>
<polygon fill="#000000" fill-opacity="0.200000" stroke="#000000" stroke-width="2" stroke-opacity="0.200000" points="423.21,-74.61 429.44,-73.34 423.77,-70.45 423.21,-74.61"/>
</g>
<!-- src/store/traversal.ts&#45;&gt;src/store/mode.ts -->
<g id="edge35" class="edge">
<title>src/store/traversal.ts&#45;&gt;src/store/mode.ts</title>
<path fill="none" stroke="#000000" stroke-width="2" stroke-opacity="0.200000" d="M340.92,-134.29C343.99,-136.02 347.03,-137.94 349.75,-140 356.51,-145.13 356.11,-148.71 362.75,-154 363.07,-154.25 363.39,-154.5 363.71,-154.75"/>
<polygon fill="#000000" fill-opacity="0.200000" stroke="#000000" stroke-width="2" stroke-opacity="0.200000" points="362.3,-156.33 368.44,-157.98 364.67,-152.86 362.3,-156.33"/>
</g>
<!-- src/store/traversal.ts&#45;&gt;src/store/map.ts -->
<g id="edge33" class="edge">
<title>src/store/traversal.ts&#45;&gt;src/store/map.ts</title>
<path fill="none" stroke="#000000" stroke-width="2" stroke-opacity="0.200000" d="M349.91,-118.12C351.22,-117.81 352.54,-117.51 353.85,-117.2"/>
<polygon fill="#000000" fill-opacity="0.200000" stroke="#000000" stroke-width="2" stroke-opacity="0.200000" points="354.19,-119.27 359.55,-115.86 353.23,-115.19 354.19,-119.27"/>
</g>
<!-- src/store/traversal.ts&#45;&gt;src/store/marker.ts -->
<g id="edge34" class="edge">
<title>src/store/traversal.ts&#45;&gt;src/store/marker.ts</title>
<path fill="none" stroke="#000000" stroke-width="2" stroke-opacity="0.200000" d="M349.91,-131.02C351.22,-131.29 352.54,-131.56 353.85,-131.83"/>
<polygon fill="#000000" fill-opacity="0.200000" stroke="#000000" stroke-width="2" stroke-opacity="0.200000" points="353.23,-133.84 359.53,-133 354.08,-129.73 353.23,-133.84"/>
</g>
<!-- src/store/render.ts&#45;&gt;src/consts.ts -->
<g id="edge22" class="edge">
<title>src/store/render.ts&#45;&gt;src/consts.ts</title>
<path fill="none" stroke="#000000" stroke-width="2" stroke-opacity="0.200000" d="M133.19,-116C140.69,-104 155.43,-82.8 173,-70 217.99,-37.21 234.81,-34.41 289.5,-24 315.81,-18.99 323.67,-17.92 349.75,-24 385.95,-32.44 391.85,-43.71 424.75,-61 428.05,-62.73 431.5,-64.6 434.9,-66.47"/>
<polygon fill="#000000" fill-opacity="0.200000" stroke="#000000" stroke-width="2" stroke-opacity="0.200000" points="433.68,-68.19 439.94,-69.27 435.72,-64.52 433.68,-68.19"/>
</g>
<!-- src/store/render.ts&#45;&gt;src/store/mode.ts -->
<g id="edge26" class="edge">
<title>src/store/render.ts&#45;&gt;src/store/mode.ts</title>
<path fill="none" stroke="#000000" stroke-width="2" stroke-opacity="0.200000" d="M154.32,-133.31C193.01,-145.3 263.31,-166.42 289.5,-170 316.03,-173.62 322.97,-170.34 349.75,-170 351.02,-169.98 352.31,-169.96 353.62,-169.94"/>
<polygon fill="#000000" fill-opacity="0.200000" stroke="#000000" stroke-width="2" stroke-opacity="0.200000" points="353.34,-172.05 359.29,-169.83 353.25,-167.85 353.34,-172.05"/>
</g>
<!-- src/store/render.ts&#45;&gt;src/store/traversal.ts -->
<g id="edge27" class="edge">
<title>src/store/render.ts&#45;&gt;src/store/traversal.ts</title>
<path fill="none" stroke="#000000" stroke-width="2" stroke-opacity="0.200000" d="M154,-125C186.68,-125 242.91,-125 280.42,-125"/>
<polygon fill="#000000" fill-opacity="0.200000" stroke="#000000" stroke-width="2" stroke-opacity="0.200000" points="280.04,-127.1 286.04,-125 280.04,-122.9 280.04,-127.1"/>
</g>
<!-- src/store/render.ts&#45;&gt;src/store/map.ts -->
<g id="edge25" class="edge">
<title>src/store/render.ts&#45;&gt;src/store/map.ts</title>
<path fill="none" stroke="#000000" stroke-width="2" stroke-opacity="0.200000" d="M135.41,-115.93C143.58,-106.87 157.55,-93.53 173,-88 247,-61.54 273.25,-74.99 349.75,-93 353.62,-93.91 357.61,-95.16 361.48,-96.55"/>
<polygon fill="#000000" fill-opacity="0.200000" stroke="#000000" stroke-width="2" stroke-opacity="0.200000" points="360.54,-98.44 366.89,-98.68 362.07,-94.53 360.54,-98.44"/>
</g>
<!-- src/store/geojson.ts -->
<g id="node15" class="node">
<title>src/store/geojson.ts</title>
<g id="a_node15"><a xlink:href="src/store/geojson.ts" xlink:title="geojson.ts">
<path fill="#ddfeff" stroke="black" d="M250.33,-111.88C250.33,-111.88 204.17,-111.88 204.17,-111.88 201.21,-111.88 198.25,-108.92 198.25,-105.96 198.25,-105.96 198.25,-100.04 198.25,-100.04 198.25,-97.08 201.21,-94.12 204.17,-94.12 204.17,-94.12 250.33,-94.12 250.33,-94.12 253.29,-94.12 256.25,-97.08 256.25,-100.04 256.25,-100.04 256.25,-105.96 256.25,-105.96 256.25,-108.92 253.29,-111.88 250.33,-111.88"/>
<text text-anchor="start" x="206.25" y="-99.33" font-family="Helvetica,sans-Serif" font-size="9.00">geojson.ts</text>
</a>
</g>
</g>
<!-- src/store/render.ts&#45;&gt;src/store/geojson.ts -->
<g id="edge24" class="edge">
<title>src/store/render.ts&#45;&gt;src/store/geojson.ts</title>
<path fill="none" stroke="#000000" stroke-width="2" stroke-opacity="0.200000" d="M154.24,-119.1C165.03,-116.69 177.71,-113.86 189.4,-111.24"/>
<polygon fill="#000000" fill-opacity="0.200000" stroke="#000000" stroke-width="2" stroke-opacity="0.200000" points="189.74,-113.32 195.14,-109.96 188.82,-109.22 189.74,-113.32"/>
</g>
<!-- src/templates/debugPopup.hbs -->
<g id="node17" class="node">
<title>src/templates/debugPopup.hbs</title>
<g id="a_node17"><a xlink:href="src/templates/debugPopup.hbs" xlink:title="debugPopup.hbs">
<path fill="#ffffcc" stroke="black" d="M264.58,-237.88C264.58,-237.88 189.92,-237.88 189.92,-237.88 186.96,-237.88 184,-234.92 184,-231.96 184,-231.96 184,-226.04 184,-226.04 184,-223.08 186.96,-220.12 189.92,-220.12 189.92,-220.12 264.58,-220.12 264.58,-220.12 267.54,-220.12 270.5,-223.08 270.5,-226.04 270.5,-226.04 270.5,-231.96 270.5,-231.96 270.5,-234.92 267.54,-237.88 264.58,-237.88"/>
<text text-anchor="start" x="192" y="-225.32" font-family="Helvetica,sans-Serif" font-size="9.00">debugPopup.hbs</text>
</a>
</g>
</g>
<!-- src/store/render.ts&#45;&gt;src/templates/debugPopup.hbs -->
<g id="edge23" class="edge">
<title>src/store/render.ts&#45;&gt;src/templates/debugPopup.hbs</title>
<path fill="none" stroke="#000000" stroke-width="2" stroke-opacity="0.200000" d="M154.22,-130.04C158.35,-131.91 162.18,-134.48 165,-138 184.28,-162.11 154.39,-182.37 173,-207 175.41,-210.18 178.36,-212.91 181.62,-215.24"/>
<polygon fill="#000000" fill-opacity="0.200000" stroke="#000000" stroke-width="2" stroke-opacity="0.200000" points="180.35,-216.93 186.58,-218.2 182.5,-213.32 180.35,-216.93"/>
</g>
<!-- src/store/geojson.ts&#45;&gt;src/config.ts -->
<g id="edge15" class="edge">
<title>src/store/geojson.ts&#45;&gt;src/config.ts</title>
<path fill="none" stroke="#000000" stroke-width="2" stroke-opacity="0.200000" d="M256.53,-101.8C265.56,-100.05 274.91,-96.6 281.5,-90 292.16,-79.32 280.64,-69.22 289.5,-57 290.26,-55.95 291.11,-54.94 292.02,-53.99"/>
<polygon fill="#000000" fill-opacity="0.200000" stroke="#000000" stroke-width="2" stroke-opacity="0.200000" points="293.15,-55.78 296.39,-50.31 290.45,-52.56 293.15,-55.78"/>
</g>
<!-- src/store/geojson.ts&#45;&gt;src/consts.ts -->
<g id="edge16" class="edge">
<title>src/store/geojson.ts&#45;&gt;src/consts.ts</title>
<path fill="none" stroke="#000000" stroke-width="2" stroke-opacity="0.200000" d="M256.75,-96.18C264.76,-94.23 273.48,-92.06 281.5,-90 343.88,-73.94 361.26,-57.12 424.75,-68 425.53,-68.13 426.32,-68.28 427.11,-68.45"/>
<polygon fill="#000000" fill-opacity="0.200000" stroke="#000000" stroke-width="2" stroke-opacity="0.200000" points="426.35,-70.42 432.69,-69.9 427.41,-66.36 426.35,-70.42"/>
</g>
<!-- src/store/geojson.ts&#45;&gt;src/store/mode.ts -->
<g id="edge18" class="edge">
<title>src/store/geojson.ts&#45;&gt;src/store/mode.ts</title>
<path fill="none" stroke="#000000" stroke-width="2" stroke-opacity="0.200000" d="M256.52,-101C287.86,-99.4 335.84,-98.97 349.75,-110 363.98,-121.29 353.16,-134.67 363.77,-152.77"/>
<polygon fill="#000000" fill-opacity="0.200000" stroke="#000000" stroke-width="2" stroke-opacity="0.200000" points="361.75,-153.56 366.96,-157.2 365.16,-151.11 361.75,-153.56"/>
</g>
<!-- src/store/geojson.ts&#45;&gt;src/store/route.ts -->
<g id="edge19" class="edge">
<title>src/store/geojson.ts&#45;&gt;src/store/route.ts</title>
<path fill="none" stroke="#000000" stroke-width="2" stroke-opacity="0.200000" d="M242.69,-112.1C255,-119.77 273.23,-130.91 289.5,-140 290.34,-140.47 291.2,-140.95 292.08,-141.42"/>
<polygon fill="#000000" fill-opacity="0.200000" stroke="#000000" stroke-width="2" stroke-opacity="0.200000" points="291.08,-143.27 297.36,-144.24 293.06,-139.57 291.08,-143.27"/>
</g>
<!-- src/store/geojson.ts&#45;&gt;src/store/traversal.ts -->
<g id="edge20" class="edge">
<title>src/store/geojson.ts&#45;&gt;src/store/traversal.ts</title>
<path fill="none" stroke="#000000" stroke-width="2" stroke-opacity="0.200000" d="M256.35,-109.84C264.04,-111.71 272.5,-113.77 280.64,-115.75"/>
<polygon fill="#000000" fill-opacity="0.200000" stroke="#000000" stroke-width="2" stroke-opacity="0.200000" points="280.02,-117.76 286.35,-117.14 281.02,-113.68 280.02,-117.76"/>
</g>
<!-- src/store/geojson.ts&#45;&gt;src/store/map.ts -->
<g id="edge17" class="edge">
<title>src/store/geojson.ts&#45;&gt;src/store/map.ts</title>
<path fill="none" stroke="#000000" stroke-width="2" stroke-opacity="0.200000" d="M256.36,-99.57C281.06,-97.15 317.92,-94.98 349.75,-99 351.05,-99.16 352.37,-99.36 353.7,-99.58"/>
<polygon fill="#000000" fill-opacity="0.200000" stroke="#000000" stroke-width="2" stroke-opacity="0.200000" points="353.23,-101.62 359.52,-100.73 354.04,-97.5 353.23,-101.62"/>
</g>
<!-- src/vite&#45;env.d.ts -->
<g id="node18" class="node">
<title>src/vite&#45;env.d.ts</title>
<g id="a_node18"><a xlink:href="src/vite-env.d.ts" xlink:title="vite&#45;env.d.ts">
<path fill="#ccffcc" stroke="black" d="M74.83,-424.88C74.83,-424.88 21.92,-424.88 21.92,-424.88 18.96,-424.88 16,-421.92 16,-418.96 16,-418.96 16,-413.04 16,-413.04 16,-410.08 18.96,-407.12 21.92,-407.12 21.92,-407.12 74.83,-407.12 74.83,-407.12 77.79,-407.12 80.75,-410.08 80.75,-413.04 80.75,-413.04 80.75,-418.96 80.75,-418.96 80.75,-421.92 77.79,-424.88 74.83,-424.88"/>
<text text-anchor="start" x="24" y="-412.32" font-family="Helvetica,sans-Serif" font-size="9.00">vite&#45;env.d.ts</text>
</a>
</g>
</g>
</g>
</svg>
