<?xml version="1.0" encoding="UTF-8" standalone="no"?>
<!DOCTYPE svg PUBLIC "-//W3C//DTD SVG 1.1//EN"
 "http://www.w3.org/Graphics/SVG/1.1/DTD/svg11.dtd">
<!-- Generated by graphviz version 10.0.1 (20240210.2158)
 -->
<!-- Title: dependency&#45;cruiser output Pages: 1 -->
<svg width="461pt" height="280pt"
 viewBox="0.00 0.00 460.88 280.00" xmlns="http://www.w3.org/2000/svg" xmlns:xlink="http://www.w3.org/1999/xlink">
<g id="graph0" class="graph" transform="scale(1 1) rotate(0) translate(4 276)">
<title>dependency&#45;cruiser output</title>
<polygon fill="white" stroke="none" points="-4,4 -4,-276 456.88,-276 456.88,4 -4,4"/>
<g id="clust1" class="cluster">
<title>cluster_src</title>
<path fill="#ffffff" stroke="black" stroke-width="2" d="M20,-8C20,-8 432.88,-8 432.88,-8 438.88,-8 444.88,-14 444.88,-20 444.88,-20 444.88,-252 444.88,-252 444.88,-258 438.88,-264 432.88,-264 432.88,-264 20,-264 20,-264 14,-264 8,-258 8,-252 8,-252 8,-20 8,-20 8,-14 14,-8 20,-8"/>
<text text-anchor="middle" x="226.44" y="-251.45" font-family="Helvetica,sans-Serif" font-weight="bold" font-size="9.00">src</text>
</g>
<g id="clust2" class="cluster">
<title>cluster_src/components</title>
<path fill="#ffffff" stroke="black" stroke-width="2" d="M184.62,-126C184.62,-126 287.88,-126 287.88,-126 293.88,-126 299.88,-132 299.88,-138 299.88,-138 299.88,-226 299.88,-226 299.88,-232 293.88,-238 287.88,-238 287.88,-238 184.62,-238 184.62,-238 178.62,-238 172.62,-232 172.62,-226 172.62,-226 172.62,-138 172.62,-138 172.62,-132 178.62,-126 184.62,-126"/>
<text text-anchor="middle" x="236.25" y="-225.45" font-family="Helvetica,sans-Serif" font-weight="bold" font-size="9.00">components</text>
</g>
<g id="clust3" class="cluster">
<title>cluster_src/modules</title>
<path fill="#ffffff" stroke="black" stroke-width="2" d="M28,-66C28,-66 80.25,-66 80.25,-66 86.25,-66 92.25,-72 92.25,-78 92.25,-78 92.25,-136 92.25,-136 92.25,-142 86.25,-148 80.25,-148 80.25,-148 28,-148 28,-148 22,-148 16,-142 16,-136 16,-136 16,-78 16,-78 16,-72 22,-66 28,-66"/>
<text text-anchor="middle" x="54.12" y="-135.45" font-family="Helvetica,sans-Serif" font-weight="bold" font-size="9.00">modules</text>
</g>
<g id="clust4" class="cluster">
<title>cluster_src/store</title>
<path fill="#ffffff" stroke="black" stroke-width="2" d="M112.25,-22C112.25,-22 424.88,-22 424.88,-22 430.88,-22 436.88,-28 436.88,-34 436.88,-34 436.88,-106 436.88,-106 436.88,-112 430.88,-118 424.88,-118 424.88,-118 112.25,-118 112.25,-118 106.25,-118 100.25,-112 100.25,-106 100.25,-106 100.25,-34 100.25,-34 100.25,-28 106.25,-22 112.25,-22"/>
<text text-anchor="middle" x="268.56" y="-105.45" font-family="Helvetica,sans-Serif" font-weight="bold" font-size="9.00">store</text>
</g>
<!-- src/App.svelte -->
<g id="node1" class="node">
<title>src/App.svelte</title>
<g id="a_node1"><a xlink:href="src/App.svelte" xlink:title="App.svelte">
<path fill="#febbff" stroke="black" d="M158.71,-218.88C158.71,-218.88 111.79,-218.88 111.79,-218.88 108.83,-218.88 105.88,-215.92 105.88,-212.96 105.88,-212.96 105.88,-207.04 105.88,-207.04 105.88,-204.08 108.83,-201.12 111.79,-201.12 111.79,-201.12 158.71,-201.12 158.71,-201.12 161.67,-201.12 164.62,-204.08 164.62,-207.04 164.62,-207.04 164.62,-212.96 164.62,-212.96 164.62,-215.92 161.67,-218.88 158.71,-218.88"/>
<text text-anchor="start" x="113.88" y="-206.32" font-family="Helvetica,sans-Serif" font-size="9.00">App.svelte</text>
</a>
</g>
</g>
<!-- src/components/Control.svelte -->
<g id="node2" class="node">
<title>src/components/Control.svelte</title>
<g id="a_node2"><a xlink:href="src/components/Control.svelte" xlink:title="Control.svelte">
<path fill="#febbff" stroke="black" d="M266.46,-181.88C266.46,-181.88 206.04,-181.88 206.04,-181.88 203.08,-181.88 200.12,-178.92 200.12,-175.96 200.12,-175.96 200.12,-170.04 200.12,-170.04 200.12,-167.08 203.08,-164.12 206.04,-164.12 206.04,-164.12 266.46,-164.12 266.46,-164.12 269.42,-164.12 272.38,-167.08 272.38,-170.04 272.38,-170.04 272.38,-175.96 272.38,-175.96 272.38,-178.92 269.42,-181.88 266.46,-181.88"/>
<text text-anchor="start" x="208.12" y="-169.32" font-family="Helvetica,sans-Serif" font-size="9.00">Control.svelte</text>
</a>
</g>
</g>
<!-- src/components/DebugPopup.svelte -->
<g id="node3" class="node">
<title>src/components/DebugPopup.svelte</title>
<g id="a_node3"><a xlink:href="src/components/DebugPopup.svelte" xlink:title="DebugPopup.svelte">
<path fill="#febbff" stroke="black" d="M278.83,-151.88C278.83,-151.88 193.67,-151.88 193.67,-151.88 190.71,-151.88 187.75,-148.92 187.75,-145.96 187.75,-145.96 187.75,-140.04 187.75,-140.04 187.75,-137.08 190.71,-134.12 193.67,-134.12 193.67,-134.12 278.83,-134.12 278.83,-134.12 281.79,-134.12 284.75,-137.08 284.75,-140.04 284.75,-140.04 284.75,-145.96 284.75,-145.96 284.75,-148.92 281.79,-151.88 278.83,-151.88"/>
<text text-anchor="start" x="195.75" y="-139.32" font-family="Helvetica,sans-Serif" font-size="9.00">DebugPopup.svelte</text>
</a>
</g>
</g>
<!-- src/components/LoadingIndicator.svelte -->
<g id="node4" class="node">
<title>src/components/LoadingIndicator.svelte</title>
<g id="a_node4"><a xlink:href="src/components/LoadingIndicator.svelte" xlink:title="LoadingIndicator.svelte">
<path fill="#febbff" stroke="black" d="M285.96,-211.88C285.96,-211.88 186.54,-211.88 186.54,-211.88 183.58,-211.88 180.62,-208.92 180.62,-205.96 180.62,-205.96 180.62,-200.04 180.62,-200.04 180.62,-197.08 183.58,-194.12 186.54,-194.12 186.54,-194.12 285.96,-194.12 285.96,-194.12 288.92,-194.12 291.88,-197.08 291.88,-200.04 291.88,-200.04 291.88,-205.96 291.88,-205.96 291.88,-208.92 288.92,-211.88 285.96,-211.88"/>
<text text-anchor="start" x="188.62" y="-199.32" font-family="Helvetica,sans-Serif" font-size="9.00">LoadingIndicator.svelte</text>
</a>
</g>
</g>
<!-- src/config.ts -->
<g id="node5" class="node">
<title>src/config.ts</title>
<g id="a_node5"><a xlink:href="src/config.ts" xlink:title="config.ts">
<path fill="#ddfeff" stroke="black" d="M355.96,-143.88C355.96,-143.88 313.79,-143.88 313.79,-143.88 310.83,-143.88 307.88,-140.92 307.88,-137.96 307.88,-137.96 307.88,-132.04 307.88,-132.04 307.88,-129.08 310.83,-126.12 313.79,-126.12 313.79,-126.12 355.96,-126.12 355.96,-126.12 358.92,-126.12 361.88,-129.08 361.88,-132.04 361.88,-132.04 361.88,-137.96 361.88,-137.96 361.88,-140.92 358.92,-143.88 355.96,-143.88"/>
<text text-anchor="start" x="318" y="-131.32" font-family="Helvetica,sans-Serif" font-size="9.00">config.ts</text>
</a>
</g>
</g>
<!-- src/consts.ts -->
<g id="node6" class="node">
<title>src/consts.ts</title>
<g id="a_node6"><a xlink:href="src/consts.ts" xlink:title="consts.ts">
<path fill="#ddfeff" stroke="black" d="M422.96,-143.88C422.96,-143.88 380.79,-143.88 380.79,-143.88 377.83,-143.88 374.88,-140.92 374.88,-137.96 374.88,-137.96 374.88,-132.04 374.88,-132.04 374.88,-129.08 377.83,-126.12 380.79,-126.12 380.79,-126.12 422.96,-126.12 422.96,-126.12 425.92,-126.12 428.88,-129.08 428.88,-132.04 428.88,-132.04 428.88,-137.96 428.88,-137.96 428.88,-140.92 425.92,-143.88 422.96,-143.88"/>
<text text-anchor="start" x="384.25" y="-131.32" font-family="Helvetica,sans-Serif" font-size="9.00">consts.ts</text>
</a>
</g>
</g>
<!-- src/main.ts -->
<g id="node7" class="node">
<title>src/main.ts</title>
<g id="a_node7"><a xlink:href="src/main.ts" xlink:title="main.ts">
<path fill="#ddfeff" stroke="black" d="M75.21,-190.88C75.21,-190.88 33.04,-190.88 33.04,-190.88 30.08,-190.88 27.12,-187.92 27.12,-184.96 27.12,-184.96 27.12,-179.04 27.12,-179.04 27.12,-176.08 30.08,-173.12 33.04,-173.12 33.04,-173.12 75.21,-173.12 75.21,-173.12 78.17,-173.12 81.12,-176.08 81.12,-179.04 81.12,-179.04 81.12,-184.96 81.12,-184.96 81.12,-187.92 78.17,-190.88 75.21,-190.88"/>
<text text-anchor="start" x="39.5" y="-178.32" font-family="Helvetica,sans-Serif" font-size="9.00">main.ts</text>
</a>
</g>
</g>
<!-- src/main.ts&#45;&gt;src/App.svelte -->
<g id="edge1" class="edge">
<title>src/main.ts&#45;&gt;src/App.svelte</title>
<path fill="none" stroke="#000000" stroke-width="2" stroke-opacity="0.200000" d="M81.47,-191.32C87.34,-193.4 93.66,-195.64 99.8,-197.81"/>
<polygon fill="#000000" fill-opacity="0.200000" stroke="#000000" stroke-width="2" stroke-opacity="0.200000" points="98.81,-199.69 105.16,-199.71 100.21,-195.73 98.81,-199.69"/>
</g>
<!-- src/style.css -->
<g id="node8" class="node">
<title>src/style.css</title>
<g id="a_node8"><a xlink:href="src/style.css" xlink:title="style.css">
<path fill="#ffffcc" stroke="black" d="M156.33,-188.88C156.33,-188.88 114.17,-188.88 114.17,-188.88 111.21,-188.88 108.25,-185.92 108.25,-182.96 108.25,-182.96 108.25,-177.04 108.25,-177.04 108.25,-174.08 111.21,-171.12 114.17,-171.12 114.17,-171.12 156.33,-171.12 156.33,-171.12 159.29,-171.12 162.25,-174.08 162.25,-177.04 162.25,-177.04 162.25,-182.96 162.25,-182.96 162.25,-185.92 159.29,-188.88 156.33,-188.88"/>
<text text-anchor="start" x="118" y="-176.32" font-family="Helvetica,sans-Serif" font-size="9.00">style.css</text>
</a>
</g>
</g>
<!-- src/main.ts&#45;&gt;src/style.css -->
<g id="edge2" class="edge">
<title>src/main.ts&#45;&gt;src/style.css</title>
<path fill="none" stroke="#000000" stroke-width="2" stroke-opacity="0.200000" d="M81.47,-181.33C87.21,-181.19 93.37,-181.03 99.38,-180.88"/>
<polygon fill="#000000" fill-opacity="0.200000" stroke="#000000" stroke-width="2" stroke-opacity="0.200000" points="99.05,-182.99 104.99,-180.74 98.94,-178.79 99.05,-182.99"/>
</g>
<!-- src/modules/control.mts -->
<g id="node9" class="node">
<title>src/modules/control.mts</title>
<g id="a_node9"><a xlink:href="src/modules/control.mts" xlink:title="control.mts">
<path fill="#ddfeff" stroke="black" d="M78.33,-121.88C78.33,-121.88 29.92,-121.88 29.92,-121.88 26.96,-121.88 24,-118.92 24,-115.96 24,-115.96 24,-110.04 24,-110.04 24,-107.08 26.96,-104.12 29.92,-104.12 29.92,-104.12 78.33,-104.12 78.33,-104.12 81.29,-104.12 84.25,-107.08 84.25,-110.04 84.25,-110.04 84.25,-115.96 84.25,-115.96 84.25,-118.92 81.29,-121.88 78.33,-121.88"/>
<text text-anchor="start" x="32" y="-109.33" font-family="Helvetica,sans-Serif" font-size="9.00">control.mts</text>
</a>
</g>
</g>
<!-- src/modules/control.mts&#45;&gt;src/components/Control.svelte -->
<g id="edge3" class="edge">
<title>src/modules/control.mts&#45;&gt;src/components/Control.svelte</title>
<path fill="none" stroke="#000000" stroke-width="2" stroke-opacity="0.200000" d="M84.4,-118.24C107.58,-123.38 140.03,-132.86 164.62,-149 169.1,-151.94 168.03,-155.25 172.62,-158 178.36,-161.43 184.83,-164.08 191.38,-166.12"/>
<polygon fill="#000000" fill-opacity="0.200000" stroke="#000000" stroke-width="2" stroke-opacity="0.200000" points="190.4,-168.03 196.75,-167.6 191.52,-163.98 190.4,-168.03"/>
</g>
<!-- src/modules/control.mts&#45;&gt;src/components/LoadingIndicator.svelte -->
<g id="edge4" class="edge">
<title>src/modules/control.mts&#45;&gt;src/components/LoadingIndicator.svelte</title>
<path fill="none" stroke="#000000" stroke-width="2" stroke-opacity="0.200000" d="M84.52,-121.1C87.28,-122.49 89.91,-124.12 92.25,-126 97.53,-130.26 94.86,-134.88 100.25,-139 123.94,-157.13 143.81,-136.63 164.62,-158 174.25,-167.89 162.74,-178.37 172.62,-188 172.92,-188.28 173.21,-188.56 173.51,-188.83"/>
<polygon fill="#000000" fill-opacity="0.200000" stroke="#000000" stroke-width="2" stroke-opacity="0.200000" points="171.82,-190.2 177.9,-192.07 174.32,-186.82 171.82,-190.2"/>
</g>
<!-- src/modules/map.mts -->
<g id="node10" class="node">
<title>src/modules/map.mts</title>
<g id="a_node10"><a xlink:href="src/modules/map.mts" xlink:title="map.mts">
<path fill="#ddfeff" stroke="black" d="M75.21,-91.88C75.21,-91.88 33.04,-91.88 33.04,-91.88 30.08,-91.88 27.12,-88.92 27.12,-85.96 27.12,-85.96 27.12,-80.04 27.12,-80.04 27.12,-77.08 30.08,-74.12 33.04,-74.12 33.04,-74.12 75.21,-74.12 75.21,-74.12 78.17,-74.12 81.12,-77.08 81.12,-80.04 81.12,-80.04 81.12,-85.96 81.12,-85.96 81.12,-88.92 78.17,-91.88 75.21,-91.88"/>
<text text-anchor="start" x="36.88" y="-79.33" font-family="Helvetica,sans-Serif" font-size="9.00">map.mts</text>
</a>
</g>
</g>
<!-- src/store/map.ts -->
<g id="node11" class="node">
<title>src/store/map.ts</title>
<g id="a_node11"><a xlink:href="src/store/map.ts" xlink:title="map.ts">
<path fill="#ddfeff" stroke="black" d="M422.96,-77.88C422.96,-77.88 380.79,-77.88 380.79,-77.88 377.83,-77.88 374.88,-74.92 374.88,-71.96 374.88,-71.96 374.88,-66.04 374.88,-66.04 374.88,-63.08 377.83,-60.12 380.79,-60.12 380.79,-60.12 422.96,-60.12 422.96,-60.12 425.92,-60.12 428.88,-63.08 428.88,-66.04 428.88,-66.04 428.88,-71.96 428.88,-71.96 428.88,-74.92 425.92,-77.88 422.96,-77.88"/>
<text text-anchor="start" x="388.38" y="-65.33" font-family="Helvetica,sans-Serif" font-size="9.00">map.ts</text>
</a>
</g>
</g>
<!-- src/modules/map.mts&#45;&gt;src/store/map.ts -->
<g id="edge5" class="edge">
<title>src/modules/map.mts&#45;&gt;src/store/map.ts</title>
<path fill="none" stroke="#000000" stroke-width="2" stroke-opacity="0.200000" d="M63.09,-73.79C71.39,-64.84 85.28,-51.66 100.25,-45 126.42,-33.36 278.99,-25.17 307.88,-24 331.86,-23.03 341.81,-10.83 361.88,-24 372.22,-30.79 367.36,-39.91 375.66,-52.64"/>
<polygon fill="#000000" fill-opacity="0.200000" stroke="#000000" stroke-width="2" stroke-opacity="0.200000" points="374.03,-53.97 379.45,-57.3 377.29,-51.32 374.03,-53.97"/>
</g>
<!-- src/store/render.ts -->
<g id="node12" class="node">
<title>src/store/render.ts</title>
<g id="a_node12"><a xlink:href="src/store/render.ts" xlink:title="render.ts">
<path fill="#ddfeff" stroke="black" d="M156.33,-91.88C156.33,-91.88 114.17,-91.88 114.17,-91.88 111.21,-91.88 108.25,-88.92 108.25,-85.96 108.25,-85.96 108.25,-80.04 108.25,-80.04 108.25,-77.08 111.21,-74.12 114.17,-74.12 114.17,-74.12 156.33,-74.12 156.33,-74.12 159.29,-74.12 162.25,-77.08 162.25,-80.04 162.25,-80.04 162.25,-85.96 162.25,-85.96 162.25,-88.92 159.29,-91.88 156.33,-91.88"/>
<text text-anchor="start" x="117.25" y="-79.33" font-family="Helvetica,sans-Serif" font-size="9.00">render.ts</text>
</a>
</g>
</g>
<!-- src/modules/map.mts&#45;&gt;src/store/render.ts -->
<g id="edge6" class="edge">
<title>src/modules/map.mts&#45;&gt;src/store/render.ts</title>
<path fill="none" stroke="#000000" stroke-width="2" stroke-opacity="0.200000" d="M81.47,-83C87.21,-83 93.37,-83 99.38,-83"/>
<polygon fill="#000000" fill-opacity="0.200000" stroke="#000000" stroke-width="2" stroke-opacity="0.200000" points="98.99,-85.1 104.99,-83 98.99,-80.9 98.99,-85.1"/>
</g>
<!-- src/store/route.ts -->
<g id="node13" class="node">
<title>src/store/route.ts</title>
<g id="a_node13"><a xlink:href="src/store/route.ts" xlink:title="route.ts">
<path fill="#ddfeff" stroke="black" d="M355.96,-47.88C355.96,-47.88 313.79,-47.88 313.79,-47.88 310.83,-47.88 307.88,-44.92 307.88,-41.96 307.88,-41.96 307.88,-36.04 307.88,-36.04 307.88,-33.08 310.83,-30.12 313.79,-30.12 313.79,-30.12 355.96,-30.12 355.96,-30.12 358.92,-30.12 361.88,-33.08 361.88,-36.04 361.88,-36.04 361.88,-41.96 361.88,-41.96 361.88,-44.92 358.92,-47.88 355.96,-47.88"/>
<text text-anchor="start" x="319.88" y="-35.33" font-family="Helvetica,sans-Serif" font-size="9.00">route.ts</text>
</a>
</g>
</g>
<!-- src/modules/map.mts&#45;&gt;src/store/route.ts -->
<g id="edge7" class="edge">
<title>src/modules/map.mts&#45;&gt;src/store/route.ts</title>
<path fill="none" stroke="#000000" stroke-width="2" stroke-opacity="0.200000" d="M81.34,-74.16C87.53,-72.11 94.11,-69.95 100.25,-68 132.29,-57.81 139.49,-51.66 172.62,-46 215.55,-38.67 265.77,-37.66 298.62,-38"/>
<polygon fill="#000000" fill-opacity="0.200000" stroke="#000000" stroke-width="2" stroke-opacity="0.200000" points="298.35,-40.09 304.38,-38.08 298.41,-35.89 298.35,-40.09"/>
</g>
<!-- src/store/render.ts&#45;&gt;src/components/DebugPopup.svelte -->
<g id="edge13" class="edge">
<title>src/store/render.ts&#45;&gt;src/components/DebugPopup.svelte</title>
<path fill="none" stroke="#000000" stroke-width="2" stroke-opacity="0.200000" d="M143.08,-92.33C149.76,-100.86 160.65,-113.28 172.62,-121 178.35,-124.69 184.76,-127.84 191.24,-130.52"/>
<polygon fill="#000000" fill-opacity="0.200000" stroke="#000000" stroke-width="2" stroke-opacity="0.200000" points="190.26,-132.39 196.62,-132.57 191.76,-128.47 190.26,-132.39"/>
</g>
<!-- src/store/render.ts&#45;&gt;src/consts.ts -->
<g id="edge14" class="edge">
<title>src/store/render.ts&#45;&gt;src/consts.ts</title>
<path fill="none" stroke="#000000" stroke-width="2" stroke-opacity="0.200000" d="M156.77,-92.29C161.88,-94.37 167.39,-96.42 172.62,-98 227.81,-114.62 257.25,-84.21 299.88,-123 309.13,-131.42 297.85,-142.51 307.88,-150 327.6,-164.73 356.27,-156.95 376.56,-148.05"/>
<polygon fill="#000000" fill-opacity="0.200000" stroke="#000000" stroke-width="2" stroke-opacity="0.200000" points="377.41,-149.96 381.95,-145.51 375.63,-146.16 377.41,-149.96"/>
</g>
<!-- src/store/render.ts&#45;&gt;src/store/route.ts -->
<g id="edge16" class="edge">
<title>src/store/render.ts&#45;&gt;src/store/route.ts</title>
<path fill="none" stroke="#000000" stroke-width="2" stroke-opacity="0.200000" d="M156.75,-73.65C161.86,-71.57 167.38,-69.53 172.62,-68 175.66,-67.11 252.14,-53.49 298.66,-45.24"/>
<polygon fill="#000000" fill-opacity="0.200000" stroke="#000000" stroke-width="2" stroke-opacity="0.200000" points="299.02,-47.31 304.56,-44.19 298.28,-43.17 299.02,-47.31"/>
</g>
<!-- src/store/fetch.ts -->
<g id="node15" class="node">
<title>src/store/fetch.ts</title>
<g id="a_node15"><a xlink:href="src/store/fetch.ts" xlink:title="fetch.ts">
<path fill="#ddfeff" stroke="black" d="M257.33,-91.88C257.33,-91.88 215.17,-91.88 215.17,-91.88 212.21,-91.88 209.25,-88.92 209.25,-85.96 209.25,-85.96 209.25,-80.04 209.25,-80.04 209.25,-77.08 212.21,-74.12 215.17,-74.12 215.17,-74.12 257.33,-74.12 257.33,-74.12 260.29,-74.12 263.25,-77.08 263.25,-80.04 263.25,-80.04 263.25,-85.96 263.25,-85.96 263.25,-88.92 260.29,-91.88 257.33,-91.88"/>
<text text-anchor="start" x="222" y="-79.33" font-family="Helvetica,sans-Serif" font-size="9.00">fetch.ts</text>
</a>
</g>
</g>
<!-- src/store/render.ts&#45;&gt;src/store/fetch.ts -->
<g id="edge15" class="edge">
<title>src/store/render.ts&#45;&gt;src/store/fetch.ts</title>
<path fill="none" stroke="#000000" stroke-width="2" stroke-opacity="0.200000" d="M162.52,-83C174.04,-83 187.74,-83 200.12,-83"/>
<polygon fill="#000000" fill-opacity="0.200000" stroke="#000000" stroke-width="2" stroke-opacity="0.200000" points="199.83,-85.1 205.83,-83 199.83,-80.9 199.83,-85.1"/>
</g>
<!-- src/store/route.ts&#45;&gt;src/consts.ts -->
<g id="edge17" class="edge">
<title>src/store/route.ts&#45;&gt;src/consts.ts</title>
<path fill="none" stroke="#000000" stroke-width="2" stroke-opacity="0.200000" d="M346.36,-48.27C351.74,-53.55 357.96,-60.59 361.88,-68 372,-87.19 362.53,-99.11 374.54,-118.55"/>
<polygon fill="#000000" fill-opacity="0.200000" stroke="#000000" stroke-width="2" stroke-opacity="0.200000" points="372.77,-119.68 377.98,-123.31 376.17,-117.22 372.77,-119.68"/>
</g>
<!-- src/store/route.ts&#45;&gt;src/store/map.ts -->
<g id="edge18" class="edge">
<title>src/store/route.ts&#45;&gt;src/store/map.ts</title>
<path fill="none" stroke="#000000" stroke-width="2" stroke-opacity="0.200000" d="M356.09,-48.33C361.39,-50.78 367.21,-53.46 372.85,-56.07"/>
<polygon fill="#000000" fill-opacity="0.200000" stroke="#000000" stroke-width="2" stroke-opacity="0.200000" points="371.82,-57.9 378.15,-58.51 373.58,-54.09 371.82,-57.9"/>
</g>
<!-- src/store/marker.ts -->
<g id="node16" class="node">
<title>src/store/marker.ts</title>
<g id="a_node16"><a xlink:href="src/store/marker.ts" xlink:title="marker.ts">
<path fill="#ddfeff" stroke="black" d="M422.96,-47.88C422.96,-47.88 380.79,-47.88 380.79,-47.88 377.83,-47.88 374.88,-44.92 374.88,-41.96 374.88,-41.96 374.88,-36.04 374.88,-36.04 374.88,-33.08 377.83,-30.12 380.79,-30.12 380.79,-30.12 422.96,-30.12 422.96,-30.12 425.92,-30.12 428.88,-33.08 428.88,-36.04 428.88,-36.04 428.88,-41.96 428.88,-41.96 428.88,-44.92 425.92,-47.88 422.96,-47.88"/>
<text text-anchor="start" x="383.12" y="-35.33" font-family="Helvetica,sans-Serif" font-size="9.00">marker.ts</text>
</a>
</g>
</g>
<!-- src/store/route.ts&#45;&gt;src/store/marker.ts -->
<g id="edge19" class="edge">
<title>src/store/route.ts&#45;&gt;src/store/marker.ts</title>
<path fill="none" stroke="#000000" stroke-width="2" stroke-opacity="0.200000" d="M362.31,-39C363.46,-39 364.62,-39 365.78,-39"/>
<polygon fill="#000000" fill-opacity="0.200000" stroke="#000000" stroke-width="2" stroke-opacity="0.200000" points="365.64,-41.1 371.64,-39 365.64,-36.9 365.64,-41.1"/>
</g>
<!-- src/store/cost.ts -->
<g id="node14" class="node">
<title>src/store/cost.ts</title>
<g id="a_node14"><a xlink:href="src/store/cost.ts" xlink:title="cost.ts">
<path fill="#ddfeff" stroke="black" d="M355.96,-91.88C355.96,-91.88 313.79,-91.88 313.79,-91.88 310.83,-91.88 307.88,-88.92 307.88,-85.96 307.88,-85.96 307.88,-80.04 307.88,-80.04 307.88,-77.08 310.83,-74.12 313.79,-74.12 313.79,-74.12 355.96,-74.12 355.96,-74.12 358.92,-74.12 361.88,-77.08 361.88,-80.04 361.88,-80.04 361.88,-85.96 361.88,-85.96 361.88,-88.92 358.92,-91.88 355.96,-91.88"/>
<text text-anchor="start" x="322.12" y="-79.33" font-family="Helvetica,sans-Serif" font-size="9.00">cost.ts</text>
</a>
</g>
</g>
<!-- src/store/cost.ts&#45;&gt;src/consts.ts -->
<g id="edge8" class="edge">
<title>src/store/cost.ts&#45;&gt;src/consts.ts</title>
<path fill="none" stroke="#000000" stroke-width="2" stroke-opacity="0.200000" d="M357.35,-92.3C358.97,-93.42 360.51,-94.65 361.88,-96 369.27,-103.28 367.3,-109.53 374.71,-119.23"/>
<polygon fill="#000000" fill-opacity="0.200000" stroke="#000000" stroke-width="2" stroke-opacity="0.200000" points="373.05,-120.53 378.65,-123.53 376.14,-117.69 373.05,-120.53"/>
</g>
<!-- src/store/fetch.ts&#45;&gt;src/config.ts -->
<g id="edge9" class="edge">
<title>src/store/fetch.ts&#45;&gt;src/config.ts</title>
<path fill="none" stroke="#000000" stroke-width="2" stroke-opacity="0.200000" d="M263.73,-82.62C276.07,-83.79 290.14,-87.23 299.88,-96 306.92,-102.34 302.88,-108.96 307.8,-118.53"/>
<polygon fill="#000000" fill-opacity="0.200000" stroke="#000000" stroke-width="2" stroke-opacity="0.200000" points="305.93,-119.54 311.12,-123.2 309.35,-117.1 305.93,-119.54"/>
</g>
<!-- src/store/fetch.ts&#45;&gt;src/store/map.ts -->
<g id="edge11" class="edge">
<title>src/store/fetch.ts&#45;&gt;src/store/map.ts</title>
<path fill="none" stroke="#000000" stroke-width="2" stroke-opacity="0.200000" d="M263.54,-76.05C276.74,-72.91 293.04,-69.56 307.88,-68 331.74,-65.49 337.88,-67.69 361.88,-68 363.14,-68.02 364.44,-68.04 365.74,-68.06"/>
<polygon fill="#000000" fill-opacity="0.200000" stroke="#000000" stroke-width="2" stroke-opacity="0.200000" points="365.38,-70.15 371.42,-68.17 365.46,-65.95 365.38,-70.15"/>
</g>
<!-- src/store/fetch.ts&#45;&gt;src/store/route.ts -->
<g id="edge12" class="edge">
<title>src/store/fetch.ts&#45;&gt;src/store/route.ts</title>
<path fill="none" stroke="#000000" stroke-width="2" stroke-opacity="0.200000" d="M263.62,-76.7C275.11,-73.42 288.51,-68.86 299.88,-63 303.82,-60.96 304.27,-59.6 307.88,-57 309.63,-55.74 311.46,-54.44 313.3,-53.14"/>
<polygon fill="#000000" fill-opacity="0.200000" stroke="#000000" stroke-width="2" stroke-opacity="0.200000" points="314.11,-55.13 317.83,-49.98 311.71,-51.69 314.11,-55.13"/>
</g>
<!-- src/store/fetch.ts&#45;&gt;src/store/cost.ts -->
<g id="edge10" class="edge">
<title>src/store/fetch.ts&#45;&gt;src/store/cost.ts</title>
<path fill="none" stroke="#000000" stroke-width="2" stroke-opacity="0.200000" d="M263.65,-83C274.41,-83 287.01,-83 298.54,-83"/>
<polygon fill="#000000" fill-opacity="0.200000" stroke="#000000" stroke-width="2" stroke-opacity="0.200000" points="298.48,-85.1 304.48,-83 298.48,-80.9 298.48,-85.1"/>
</g>
<!-- src/vite&#45;env.d.ts -->
<g id="node17" class="node">
<title>src/vite&#45;env.d.ts</title>
<g id="a_node17"><a xlink:href="src/vite-env.d.ts" xlink:title="vite&#45;env.d.ts">
<path fill="#ccffcc" stroke="black" d="M80.58,-228.88C80.58,-228.88 27.67,-228.88 27.67,-228.88 24.71,-228.88 21.75,-225.92 21.75,-222.96 21.75,-222.96 21.75,-217.04 21.75,-217.04 21.75,-214.08 24.71,-211.12 27.67,-211.12 27.67,-211.12 80.58,-211.12 80.58,-211.12 83.54,-211.12 86.5,-214.08 86.5,-217.04 86.5,-217.04 86.5,-222.96 86.5,-222.96 86.5,-225.92 83.54,-228.88 80.58,-228.88"/>
<text text-anchor="start" x="29.75" y="-216.32" font-family="Helvetica,sans-Serif" font-size="9.00">vite&#45;env.d.ts</text>
</a>
</g>
</g>
</g>
</svg>
