<?xml version="1.0" encoding="UTF-8" standalone="no"?>
<!DOCTYPE svg PUBLIC "-//W3C//DTD SVG 1.1//EN"
 "http://www.w3.org/Graphics/SVG/1.1/DTD/svg11.dtd">
<!-- Generated by graphviz version 10.0.1 (20240210.2158)
 -->
<!-- Title: dependency&#45;cruiser output Pages: 1 -->
<svg width="464pt" height="280pt"
 viewBox="0.00 0.00 463.88 280.00" xmlns="http://www.w3.org/2000/svg" xmlns:xlink="http://www.w3.org/1999/xlink">
<g id="graph0" class="graph" transform="scale(1 1) rotate(0) translate(4 276)">
<title>dependency&#45;cruiser output</title>
<polygon fill="white" stroke="none" points="-4,4 -4,-276 459.88,-276 459.88,4 -4,4"/>
<g id="clust1" class="cluster">
<title>cluster_src</title>
<path fill="#ffffff" stroke="black" stroke-width="2" d="M20,-8C20,-8 435.88,-8 435.88,-8 441.88,-8 447.88,-14 447.88,-20 447.88,-20 447.88,-252 447.88,-252 447.88,-258 441.88,-264 435.88,-264 435.88,-264 20,-264 20,-264 14,-264 8,-258 8,-252 8,-252 8,-20 8,-20 8,-14 14,-8 20,-8"/>
<text text-anchor="middle" x="227.94" y="-251.45" font-family="Helvetica,sans-Serif" font-weight="bold" font-size="9.00">src</text>
</g>
<g id="clust2" class="cluster">
<title>cluster_src/components</title>
<path fill="#ffffff" stroke="black" stroke-width="2" d="M187.62,-126C187.62,-126 290.88,-126 290.88,-126 296.88,-126 302.88,-132 302.88,-138 302.88,-138 302.88,-226 302.88,-226 302.88,-232 296.88,-238 290.88,-238 290.88,-238 187.62,-238 187.62,-238 181.62,-238 175.62,-232 175.62,-226 175.62,-226 175.62,-138 175.62,-138 175.62,-132 181.62,-126 187.62,-126"/>
<text text-anchor="middle" x="239.25" y="-225.45" font-family="Helvetica,sans-Serif" font-weight="bold" font-size="9.00">components</text>
</g>
<g id="clust3" class="cluster">
<title>cluster_src/modules</title>
<path fill="#ffffff" stroke="black" stroke-width="2" d="M28,-66C28,-66 83.25,-66 83.25,-66 89.25,-66 95.25,-72 95.25,-78 95.25,-78 95.25,-166 95.25,-166 95.25,-172 89.25,-178 83.25,-178 83.25,-178 28,-178 28,-178 22,-178 16,-172 16,-166 16,-166 16,-78 16,-78 16,-72 22,-66 28,-66"/>
<text text-anchor="middle" x="55.62" y="-165.45" font-family="Helvetica,sans-Serif" font-weight="bold" font-size="9.00">modules</text>
</g>
<g id="clust4" class="cluster">
<title>cluster_src/store</title>
<path fill="#ffffff" stroke="black" stroke-width="2" d="M115.25,-22C115.25,-22 427.88,-22 427.88,-22 433.88,-22 439.88,-28 439.88,-34 439.88,-34 439.88,-106 439.88,-106 439.88,-112 433.88,-118 427.88,-118 427.88,-118 115.25,-118 115.25,-118 109.25,-118 103.25,-112 103.25,-106 103.25,-106 103.25,-34 103.25,-34 103.25,-28 109.25,-22 115.25,-22"/>
<text text-anchor="middle" x="271.56" y="-105.45" font-family="Helvetica,sans-Serif" font-weight="bold" font-size="9.00">store</text>
</g>
<!-- src/App.svelte -->
<g id="node1" class="node">
<title>src/App.svelte</title>
<g id="a_node1"><a xlink:href="src/App.svelte" xlink:title="App.svelte">
<path fill="#febbff" stroke="black" d="M161.71,-231.88C161.71,-231.88 114.79,-231.88 114.79,-231.88 111.83,-231.88 108.88,-228.92 108.88,-225.96 108.88,-225.96 108.88,-220.04 108.88,-220.04 108.88,-217.08 111.83,-214.12 114.79,-214.12 114.79,-214.12 161.71,-214.12 161.71,-214.12 164.67,-214.12 167.62,-217.08 167.62,-220.04 167.62,-220.04 167.62,-225.96 167.62,-225.96 167.62,-228.92 164.67,-231.88 161.71,-231.88"/>
<text text-anchor="start" x="116.88" y="-219.32" font-family="Helvetica,sans-Serif" font-size="9.00">App.svelte</text>
</a>
</g>
</g>
<!-- src/components/Control.svelte -->
<g id="node2" class="node">
<title>src/components/Control.svelte</title>
<g id="a_node2"><a xlink:href="src/components/Control.svelte" xlink:title="Control.svelte">
<path fill="#febbff" stroke="black" d="M269.46,-181.88C269.46,-181.88 209.04,-181.88 209.04,-181.88 206.08,-181.88 203.12,-178.92 203.12,-175.96 203.12,-175.96 203.12,-170.04 203.12,-170.04 203.12,-167.08 206.08,-164.12 209.04,-164.12 209.04,-164.12 269.46,-164.12 269.46,-164.12 272.42,-164.12 275.38,-167.08 275.38,-170.04 275.38,-170.04 275.38,-175.96 275.38,-175.96 275.38,-178.92 272.42,-181.88 269.46,-181.88"/>
<text text-anchor="start" x="211.12" y="-169.32" font-family="Helvetica,sans-Serif" font-size="9.00">Control.svelte</text>
</a>
</g>
</g>
<!-- src/components/DebugPopup.svelte -->
<g id="node3" class="node">
<title>src/components/DebugPopup.svelte</title>
<g id="a_node3"><a xlink:href="src/components/DebugPopup.svelte" xlink:title="DebugPopup.svelte">
<path fill="#febbff" stroke="black" d="M281.83,-151.88C281.83,-151.88 196.67,-151.88 196.67,-151.88 193.71,-151.88 190.75,-148.92 190.75,-145.96 190.75,-145.96 190.75,-140.04 190.75,-140.04 190.75,-137.08 193.71,-134.12 196.67,-134.12 196.67,-134.12 281.83,-134.12 281.83,-134.12 284.79,-134.12 287.75,-137.08 287.75,-140.04 287.75,-140.04 287.75,-145.96 287.75,-145.96 287.75,-148.92 284.79,-151.88 281.83,-151.88"/>
<text text-anchor="start" x="198.75" y="-139.32" font-family="Helvetica,sans-Serif" font-size="9.00">DebugPopup.svelte</text>
</a>
</g>
</g>
<!-- src/components/LoadingIndicator.svelte -->
<g id="node4" class="node">
<title>src/components/LoadingIndicator.svelte</title>
<g id="a_node4"><a xlink:href="src/components/LoadingIndicator.svelte" xlink:title="LoadingIndicator.svelte">
<path fill="#febbff" stroke="black" d="M288.96,-211.88C288.96,-211.88 189.54,-211.88 189.54,-211.88 186.58,-211.88 183.62,-208.92 183.62,-205.96 183.62,-205.96 183.62,-200.04 183.62,-200.04 183.62,-197.08 186.58,-194.12 189.54,-194.12 189.54,-194.12 288.96,-194.12 288.96,-194.12 291.92,-194.12 294.88,-197.08 294.88,-200.04 294.88,-200.04 294.88,-205.96 294.88,-205.96 294.88,-208.92 291.92,-211.88 288.96,-211.88"/>
<text text-anchor="start" x="191.62" y="-199.32" font-family="Helvetica,sans-Serif" font-size="9.00">LoadingIndicator.svelte</text>
</a>
</g>
</g>
<!-- src/config.ts -->
<g id="node5" class="node">
<title>src/config.ts</title>
<g id="a_node5"><a xlink:href="src/config.ts" xlink:title="config.ts">
<path fill="#ddfeff" stroke="black" d="M358.96,-143.88C358.96,-143.88 316.79,-143.88 316.79,-143.88 313.83,-143.88 310.88,-140.92 310.88,-137.96 310.88,-137.96 310.88,-132.04 310.88,-132.04 310.88,-129.08 313.83,-126.12 316.79,-126.12 316.79,-126.12 358.96,-126.12 358.96,-126.12 361.92,-126.12 364.88,-129.08 364.88,-132.04 364.88,-132.04 364.88,-137.96 364.88,-137.96 364.88,-140.92 361.92,-143.88 358.96,-143.88"/>
<text text-anchor="start" x="321" y="-131.32" font-family="Helvetica,sans-Serif" font-size="9.00">config.ts</text>
</a>
</g>
</g>
<!-- src/consts.ts -->
<g id="node6" class="node">
<title>src/consts.ts</title>
<g id="a_node6"><a xlink:href="src/consts.ts" xlink:title="consts.ts">
<path fill="#ddfeff" stroke="black" d="M425.96,-143.88C425.96,-143.88 383.79,-143.88 383.79,-143.88 380.83,-143.88 377.88,-140.92 377.88,-137.96 377.88,-137.96 377.88,-132.04 377.88,-132.04 377.88,-129.08 380.83,-126.12 383.79,-126.12 383.79,-126.12 425.96,-126.12 425.96,-126.12 428.92,-126.12 431.88,-129.08 431.88,-132.04 431.88,-132.04 431.88,-137.96 431.88,-137.96 431.88,-140.92 428.92,-143.88 425.96,-143.88"/>
<text text-anchor="start" x="387.25" y="-131.32" font-family="Helvetica,sans-Serif" font-size="9.00">consts.ts</text>
</a>
</g>
</g>
<!-- src/main.ts -->
<g id="node7" class="node">
<title>src/main.ts</title>
<g id="a_node7"><a xlink:href="src/main.ts" xlink:title="main.ts">
<path fill="#ddfeff" stroke="black" d="M76.71,-205.88C76.71,-205.88 34.54,-205.88 34.54,-205.88 31.58,-205.88 28.62,-202.92 28.62,-199.96 28.62,-199.96 28.62,-194.04 28.62,-194.04 28.62,-191.08 31.58,-188.12 34.54,-188.12 34.54,-188.12 76.71,-188.12 76.71,-188.12 79.67,-188.12 82.62,-191.08 82.62,-194.04 82.62,-194.04 82.62,-199.96 82.62,-199.96 82.62,-202.92 79.67,-205.88 76.71,-205.88"/>
<text text-anchor="start" x="41" y="-193.32" font-family="Helvetica,sans-Serif" font-size="9.00">main.ts</text>
</a>
</g>
</g>
<!-- src/main.ts&#45;&gt;src/App.svelte -->
<g id="edge1" class="edge">
<title>src/main.ts&#45;&gt;src/App.svelte</title>
<path fill="none" stroke="#000000" stroke-width="2" stroke-opacity="0.200000" d="M83.02,-205.51C88.52,-207.28 94.4,-209.18 100.2,-211.05"/>
<polygon fill="#000000" fill-opacity="0.200000" stroke="#000000" stroke-width="2" stroke-opacity="0.200000" points="99.33,-212.98 105.68,-212.82 100.62,-208.98 99.33,-212.98"/>
</g>
<!-- src/style.css -->
<g id="node8" class="node">
<title>src/style.css</title>
<g id="a_node8"><a xlink:href="src/style.css" xlink:title="style.css">
<path fill="#ffffcc" stroke="black" d="M159.33,-201.88C159.33,-201.88 117.17,-201.88 117.17,-201.88 114.21,-201.88 111.25,-198.92 111.25,-195.96 111.25,-195.96 111.25,-190.04 111.25,-190.04 111.25,-187.08 114.21,-184.12 117.17,-184.12 117.17,-184.12 159.33,-184.12 159.33,-184.12 162.29,-184.12 165.25,-187.08 165.25,-190.04 165.25,-190.04 165.25,-195.96 165.25,-195.96 165.25,-198.92 162.29,-201.88 159.33,-201.88"/>
<text text-anchor="start" x="121" y="-189.32" font-family="Helvetica,sans-Serif" font-size="9.00">style.css</text>
</a>
</g>
</g>
<!-- src/main.ts&#45;&gt;src/style.css -->
<g id="edge2" class="edge">
<title>src/main.ts&#45;&gt;src/style.css</title>
<path fill="none" stroke="#000000" stroke-width="2" stroke-opacity="0.200000" d="M83.02,-195.69C89.15,-195.39 95.76,-195.06 102.2,-194.74"/>
<polygon fill="#000000" fill-opacity="0.200000" stroke="#000000" stroke-width="2" stroke-opacity="0.200000" points="101.88,-196.86 107.77,-194.46 101.67,-192.66 101.88,-196.86"/>
</g>
<!-- src/modules/control.mts -->
<g id="node9" class="node">
<title>src/modules/control.mts</title>
<g id="a_node9"><a xlink:href="src/modules/control.mts" xlink:title="control.mts">
<path fill="#ddfeff" stroke="black" d="M79.83,-121.88C79.83,-121.88 31.42,-121.88 31.42,-121.88 28.46,-121.88 25.5,-118.92 25.5,-115.96 25.5,-115.96 25.5,-110.04 25.5,-110.04 25.5,-107.08 28.46,-104.12 31.42,-104.12 31.42,-104.12 79.83,-104.12 79.83,-104.12 82.79,-104.12 85.75,-107.08 85.75,-110.04 85.75,-110.04 85.75,-115.96 85.75,-115.96 85.75,-118.92 82.79,-121.88 79.83,-121.88"/>
<text text-anchor="start" x="33.5" y="-109.33" font-family="Helvetica,sans-Serif" font-size="9.00">control.mts</text>
</a>
</g>
</g>
<!-- src/modules/control.mts&#45;&gt;src/components/Control.svelte -->
<g id="edge3" class="edge">
<title>src/modules/control.mts&#45;&gt;src/components/Control.svelte</title>
<path fill="none" stroke="#000000" stroke-width="2" stroke-opacity="0.200000" d="M80.69,-122.29C112.67,-134.6 166.26,-155.12 175.62,-158 181.65,-159.85 188.06,-161.62 194.39,-163.24"/>
<polygon fill="#000000" fill-opacity="0.200000" stroke="#000000" stroke-width="2" stroke-opacity="0.200000" points="193.66,-165.22 199.99,-164.63 194.68,-161.15 193.66,-165.22"/>
</g>
<!-- src/modules/loading.mts -->
<g id="node10" class="node">
<title>src/modules/loading.mts</title>
<g id="a_node10"><a xlink:href="src/modules/loading.mts" xlink:title="loading.mts">
<path fill="#ddfeff" stroke="black" d="M81.33,-151.88C81.33,-151.88 29.92,-151.88 29.92,-151.88 26.96,-151.88 24,-148.92 24,-145.96 24,-145.96 24,-140.04 24,-140.04 24,-137.08 26.96,-134.12 29.92,-134.12 29.92,-134.12 81.33,-134.12 81.33,-134.12 84.29,-134.12 87.25,-137.08 87.25,-140.04 87.25,-140.04 87.25,-145.96 87.25,-145.96 87.25,-148.92 84.29,-151.88 81.33,-151.88"/>
<text text-anchor="start" x="32" y="-139.32" font-family="Helvetica,sans-Serif" font-size="9.00">loading.mts</text>
</a>
</g>
</g>
<!-- src/modules/loading.mts&#45;&gt;src/components/LoadingIndicator.svelte -->
<g id="edge4" class="edge">
<title>src/modules/loading.mts&#45;&gt;src/components/LoadingIndicator.svelte</title>
<path fill="none" stroke="#000000" stroke-width="2" stroke-opacity="0.200000" d="M87.75,-146.74C116.25,-150.73 155.75,-157.88 167.62,-168 174.91,-174.21 168.38,-181.74 175.62,-188 175.94,-188.27 176.26,-188.54 176.59,-188.81"/>
<polygon fill="#000000" fill-opacity="0.200000" stroke="#000000" stroke-width="2" stroke-opacity="0.200000" points="175.26,-190.44 181.42,-192.02 177.58,-186.95 175.26,-190.44"/>
</g>
<!-- src/modules/map.mts -->
<g id="node11" class="node">
<title>src/modules/map.mts</title>
<g id="a_node11"><a xlink:href="src/modules/map.mts" xlink:title="map.mts">
<path fill="#ddfeff" stroke="black" d="M76.71,-91.88C76.71,-91.88 34.54,-91.88 34.54,-91.88 31.58,-91.88 28.62,-88.92 28.62,-85.96 28.62,-85.96 28.62,-80.04 28.62,-80.04 28.62,-77.08 31.58,-74.12 34.54,-74.12 34.54,-74.12 76.71,-74.12 76.71,-74.12 79.67,-74.12 82.62,-77.08 82.62,-80.04 82.62,-80.04 82.62,-85.96 82.62,-85.96 82.62,-88.92 79.67,-91.88 76.71,-91.88"/>
<text text-anchor="start" x="38.38" y="-79.33" font-family="Helvetica,sans-Serif" font-size="9.00">map.mts</text>
</a>
</g>
</g>
<!-- src/store/map.ts -->
<g id="node12" class="node">
<title>src/store/map.ts</title>
<g id="a_node12"><a xlink:href="src/store/map.ts" xlink:title="map.ts">
<path fill="#ddfeff" stroke="black" d="M425.96,-77.88C425.96,-77.88 383.79,-77.88 383.79,-77.88 380.83,-77.88 377.88,-74.92 377.88,-71.96 377.88,-71.96 377.88,-66.04 377.88,-66.04 377.88,-63.08 380.83,-60.12 383.79,-60.12 383.79,-60.12 425.96,-60.12 425.96,-60.12 428.92,-60.12 431.88,-63.08 431.88,-66.04 431.88,-66.04 431.88,-71.96 431.88,-71.96 431.88,-74.92 428.92,-77.88 425.96,-77.88"/>
<text text-anchor="start" x="391.38" y="-65.33" font-family="Helvetica,sans-Serif" font-size="9.00">map.ts</text>
</a>
</g>
</g>
<!-- src/modules/map.mts&#45;&gt;src/store/map.ts -->
<g id="edge5" class="edge">
<title>src/modules/map.mts&#45;&gt;src/store/map.ts</title>
<path fill="none" stroke="#000000" stroke-width="2" stroke-opacity="0.200000" d="M64.91,-73.79C73.55,-64.85 87.93,-51.67 103.25,-45 130.05,-33.33 283.17,-25.12 310.88,-24 334.86,-23.03 344.81,-10.83 364.88,-24 375.22,-30.79 370.36,-39.91 378.66,-52.64"/>
<polygon fill="#000000" fill-opacity="0.200000" stroke="#000000" stroke-width="2" stroke-opacity="0.200000" points="377.03,-53.97 382.45,-57.3 380.29,-51.32 377.03,-53.97"/>
</g>
<!-- src/store/render.ts -->
<g id="node13" class="node">
<title>src/store/render.ts</title>
<g id="a_node13"><a xlink:href="src/store/render.ts" xlink:title="render.ts">
<path fill="#ddfeff" stroke="black" d="M159.33,-91.88C159.33,-91.88 117.17,-91.88 117.17,-91.88 114.21,-91.88 111.25,-88.92 111.25,-85.96 111.25,-85.96 111.25,-80.04 111.25,-80.04 111.25,-77.08 114.21,-74.12 117.17,-74.12 117.17,-74.12 159.33,-74.12 159.33,-74.12 162.29,-74.12 165.25,-77.08 165.25,-80.04 165.25,-80.04 165.25,-85.96 165.25,-85.96 165.25,-88.92 162.29,-91.88 159.33,-91.88"/>
<text text-anchor="start" x="120.25" y="-79.33" font-family="Helvetica,sans-Serif" font-size="9.00">render.ts</text>
</a>
</g>
</g>
<!-- src/modules/map.mts&#45;&gt;src/store/render.ts -->
<g id="edge6" class="edge">
<title>src/modules/map.mts&#45;&gt;src/store/render.ts</title>
<path fill="none" stroke="#000000" stroke-width="2" stroke-opacity="0.200000" d="M83.02,-83C89.15,-83 95.76,-83 102.2,-83"/>
<polygon fill="#000000" fill-opacity="0.200000" stroke="#000000" stroke-width="2" stroke-opacity="0.200000" points="101.76,-85.1 107.76,-83 101.76,-80.9 101.76,-85.1"/>
</g>
<!-- src/store/route.ts -->
<g id="node14" class="node">
<title>src/store/route.ts</title>
<g id="a_node14"><a xlink:href="src/store/route.ts" xlink:title="route.ts">
<path fill="#ddfeff" stroke="black" d="M358.96,-47.88C358.96,-47.88 316.79,-47.88 316.79,-47.88 313.83,-47.88 310.88,-44.92 310.88,-41.96 310.88,-41.96 310.88,-36.04 310.88,-36.04 310.88,-33.08 313.83,-30.12 316.79,-30.12 316.79,-30.12 358.96,-30.12 358.96,-30.12 361.92,-30.12 364.88,-33.08 364.88,-36.04 364.88,-36.04 364.88,-41.96 364.88,-41.96 364.88,-44.92 361.92,-47.88 358.96,-47.88"/>
<text text-anchor="start" x="322.88" y="-35.33" font-family="Helvetica,sans-Serif" font-size="9.00">route.ts</text>
</a>
</g>
</g>
<!-- src/modules/map.mts&#45;&gt;src/store/route.ts -->
<g id="edge7" class="edge">
<title>src/modules/map.mts&#45;&gt;src/store/route.ts</title>
<path fill="none" stroke="#000000" stroke-width="2" stroke-opacity="0.200000" d="M82.74,-74.52C89.42,-72.37 96.6,-70.08 103.25,-68 135.34,-57.96 142.49,-51.66 175.62,-46 218.55,-38.67 268.77,-37.66 301.62,-38"/>
<polygon fill="#000000" fill-opacity="0.200000" stroke="#000000" stroke-width="2" stroke-opacity="0.200000" points="301.35,-40.09 307.38,-38.08 301.41,-35.89 301.35,-40.09"/>
</g>
<!-- src/store/render.ts&#45;&gt;src/components/DebugPopup.svelte -->
<g id="edge13" class="edge">
<title>src/store/render.ts&#45;&gt;src/components/DebugPopup.svelte</title>
<path fill="none" stroke="#000000" stroke-width="2" stroke-opacity="0.200000" d="M146.08,-92.33C152.76,-100.86 163.65,-113.28 175.62,-121 181.35,-124.69 187.76,-127.84 194.24,-130.52"/>
<polygon fill="#000000" fill-opacity="0.200000" stroke="#000000" stroke-width="2" stroke-opacity="0.200000" points="193.26,-132.39 199.62,-132.57 194.76,-128.47 193.26,-132.39"/>
</g>
<!-- src/store/render.ts&#45;&gt;src/consts.ts -->
<g id="edge14" class="edge">
<title>src/store/render.ts&#45;&gt;src/consts.ts</title>
<path fill="none" stroke="#000000" stroke-width="2" stroke-opacity="0.200000" d="M159.77,-92.29C164.88,-94.37 170.39,-96.42 175.62,-98 230.81,-114.62 260.25,-84.21 302.88,-123 312.13,-131.42 300.85,-142.51 310.88,-150 330.6,-164.73 359.27,-156.95 379.56,-148.05"/>
<polygon fill="#000000" fill-opacity="0.200000" stroke="#000000" stroke-width="2" stroke-opacity="0.200000" points="380.41,-149.96 384.95,-145.51 378.63,-146.16 380.41,-149.96"/>
</g>
<!-- src/store/render.ts&#45;&gt;src/store/route.ts -->
<g id="edge16" class="edge">
<title>src/store/render.ts&#45;&gt;src/store/route.ts</title>
<path fill="none" stroke="#000000" stroke-width="2" stroke-opacity="0.200000" d="M159.75,-73.65C164.86,-71.57 170.38,-69.53 175.62,-68 178.66,-67.11 255.14,-53.49 301.66,-45.24"/>
<polygon fill="#000000" fill-opacity="0.200000" stroke="#000000" stroke-width="2" stroke-opacity="0.200000" points="302.02,-47.31 307.56,-44.19 301.28,-43.17 302.02,-47.31"/>
</g>
<!-- src/store/fetch.ts -->
<g id="node16" class="node">
<title>src/store/fetch.ts</title>
<g id="a_node16"><a xlink:href="src/store/fetch.ts" xlink:title="fetch.ts">
<path fill="#ddfeff" stroke="black" d="M260.33,-91.88C260.33,-91.88 218.17,-91.88 218.17,-91.88 215.21,-91.88 212.25,-88.92 212.25,-85.96 212.25,-85.96 212.25,-80.04 212.25,-80.04 212.25,-77.08 215.21,-74.12 218.17,-74.12 218.17,-74.12 260.33,-74.12 260.33,-74.12 263.29,-74.12 266.25,-77.08 266.25,-80.04 266.25,-80.04 266.25,-85.96 266.25,-85.96 266.25,-88.92 263.29,-91.88 260.33,-91.88"/>
<text text-anchor="start" x="225" y="-79.33" font-family="Helvetica,sans-Serif" font-size="9.00">fetch.ts</text>
</a>
</g>
</g>
<!-- src/store/render.ts&#45;&gt;src/store/fetch.ts -->
<g id="edge15" class="edge">
<title>src/store/render.ts&#45;&gt;src/store/fetch.ts</title>
<path fill="none" stroke="#000000" stroke-width="2" stroke-opacity="0.200000" d="M165.52,-83C177.04,-83 190.74,-83 203.12,-83"/>
<polygon fill="#000000" fill-opacity="0.200000" stroke="#000000" stroke-width="2" stroke-opacity="0.200000" points="202.83,-85.1 208.83,-83 202.83,-80.9 202.83,-85.1"/>
</g>
<!-- src/store/route.ts&#45;&gt;src/consts.ts -->
<g id="edge17" class="edge">
<title>src/store/route.ts&#45;&gt;src/consts.ts</title>
<path fill="none" stroke="#000000" stroke-width="2" stroke-opacity="0.200000" d="M349.36,-48.27C354.74,-53.55 360.96,-60.59 364.88,-68 375,-87.19 365.53,-99.11 377.54,-118.55"/>
<polygon fill="#000000" fill-opacity="0.200000" stroke="#000000" stroke-width="2" stroke-opacity="0.200000" points="375.77,-119.68 380.98,-123.31 379.17,-117.22 375.77,-119.68"/>
</g>
<!-- src/store/route.ts&#45;&gt;src/store/map.ts -->
<g id="edge18" class="edge">
<title>src/store/route.ts&#45;&gt;src/store/map.ts</title>
<path fill="none" stroke="#000000" stroke-width="2" stroke-opacity="0.200000" d="M359.09,-48.33C364.39,-50.78 370.21,-53.46 375.85,-56.07"/>
<polygon fill="#000000" fill-opacity="0.200000" stroke="#000000" stroke-width="2" stroke-opacity="0.200000" points="374.82,-57.9 381.15,-58.51 376.58,-54.09 374.82,-57.9"/>
</g>
<!-- src/store/marker.ts -->
<g id="node17" class="node">
<title>src/store/marker.ts</title>
<g id="a_node17"><a xlink:href="src/store/marker.ts" xlink:title="marker.ts">
<path fill="#ddfeff" stroke="black" d="M425.96,-47.88C425.96,-47.88 383.79,-47.88 383.79,-47.88 380.83,-47.88 377.88,-44.92 377.88,-41.96 377.88,-41.96 377.88,-36.04 377.88,-36.04 377.88,-33.08 380.83,-30.12 383.79,-30.12 383.79,-30.12 425.96,-30.12 425.96,-30.12 428.92,-30.12 431.88,-33.08 431.88,-36.04 431.88,-36.04 431.88,-41.96 431.88,-41.96 431.88,-44.92 428.92,-47.88 425.96,-47.88"/>
<text text-anchor="start" x="386.12" y="-35.33" font-family="Helvetica,sans-Serif" font-size="9.00">marker.ts</text>
</a>
</g>
</g>
<!-- src/store/route.ts&#45;&gt;src/store/marker.ts -->
<g id="edge19" class="edge">
<title>src/store/route.ts&#45;&gt;src/store/marker.ts</title>
<path fill="none" stroke="#000000" stroke-width="2" stroke-opacity="0.200000" d="M365.31,-39C366.46,-39 367.62,-39 368.78,-39"/>
<polygon fill="#000000" fill-opacity="0.200000" stroke="#000000" stroke-width="2" stroke-opacity="0.200000" points="368.64,-41.1 374.64,-39 368.64,-36.9 368.64,-41.1"/>
</g>
<!-- src/store/cost.ts -->
<g id="node15" class="node">
<title>src/store/cost.ts</title>
<g id="a_node15"><a xlink:href="src/store/cost.ts" xlink:title="cost.ts">
<path fill="#ddfeff" stroke="black" d="M358.96,-91.88C358.96,-91.88 316.79,-91.88 316.79,-91.88 313.83,-91.88 310.88,-88.92 310.88,-85.96 310.88,-85.96 310.88,-80.04 310.88,-80.04 310.88,-77.08 313.83,-74.12 316.79,-74.12 316.79,-74.12 358.96,-74.12 358.96,-74.12 361.92,-74.12 364.88,-77.08 364.88,-80.04 364.88,-80.04 364.88,-85.96 364.88,-85.96 364.88,-88.92 361.92,-91.88 358.96,-91.88"/>
<text text-anchor="start" x="325.12" y="-79.33" font-family="Helvetica,sans-Serif" font-size="9.00">cost.ts</text>
</a>
</g>
</g>
<!-- src/store/cost.ts&#45;&gt;src/consts.ts -->
<g id="edge8" class="edge">
<title>src/store/cost.ts&#45;&gt;src/consts.ts</title>
<path fill="none" stroke="#000000" stroke-width="2" stroke-opacity="0.200000" d="M360.35,-92.3C361.97,-93.42 363.51,-94.65 364.88,-96 372.27,-103.28 370.3,-109.53 377.71,-119.23"/>
<polygon fill="#000000" fill-opacity="0.200000" stroke="#000000" stroke-width="2" stroke-opacity="0.200000" points="376.05,-120.53 381.65,-123.53 379.14,-117.69 376.05,-120.53"/>
</g>
<!-- src/store/fetch.ts&#45;&gt;src/config.ts -->
<g id="edge9" class="edge">
<title>src/store/fetch.ts&#45;&gt;src/config.ts</title>
<path fill="none" stroke="#000000" stroke-width="2" stroke-opacity="0.200000" d="M266.73,-82.62C279.07,-83.79 293.14,-87.23 302.88,-96 309.92,-102.34 305.88,-108.96 310.8,-118.53"/>
<polygon fill="#000000" fill-opacity="0.200000" stroke="#000000" stroke-width="2" stroke-opacity="0.200000" points="308.93,-119.54 314.12,-123.2 312.35,-117.1 308.93,-119.54"/>
</g>
<!-- src/store/fetch.ts&#45;&gt;src/store/map.ts -->
<g id="edge11" class="edge">
<title>src/store/fetch.ts&#45;&gt;src/store/map.ts</title>
<path fill="none" stroke="#000000" stroke-width="2" stroke-opacity="0.200000" d="M266.54,-76.05C279.74,-72.91 296.04,-69.56 310.88,-68 334.74,-65.49 340.88,-67.69 364.88,-68 366.14,-68.02 367.44,-68.04 368.74,-68.06"/>
<polygon fill="#000000" fill-opacity="0.200000" stroke="#000000" stroke-width="2" stroke-opacity="0.200000" points="368.38,-70.15 374.42,-68.17 368.46,-65.95 368.38,-70.15"/>
</g>
<!-- src/store/fetch.ts&#45;&gt;src/store/route.ts -->
<g id="edge12" class="edge">
<title>src/store/fetch.ts&#45;&gt;src/store/route.ts</title>
<path fill="none" stroke="#000000" stroke-width="2" stroke-opacity="0.200000" d="M266.62,-76.7C278.11,-73.42 291.51,-68.86 302.88,-63 306.82,-60.96 307.27,-59.6 310.88,-57 312.63,-55.74 314.46,-54.44 316.3,-53.14"/>
<polygon fill="#000000" fill-opacity="0.200000" stroke="#000000" stroke-width="2" stroke-opacity="0.200000" points="317.11,-55.13 320.83,-49.98 314.71,-51.69 317.11,-55.13"/>
</g>
<!-- src/store/fetch.ts&#45;&gt;src/store/cost.ts -->
<g id="edge10" class="edge">
<title>src/store/fetch.ts&#45;&gt;src/store/cost.ts</title>
<path fill="none" stroke="#000000" stroke-width="2" stroke-opacity="0.200000" d="M266.65,-83C277.41,-83 290.01,-83 301.54,-83"/>
<polygon fill="#000000" fill-opacity="0.200000" stroke="#000000" stroke-width="2" stroke-opacity="0.200000" points="301.48,-85.1 307.48,-83 301.48,-80.9 301.48,-85.1"/>
</g>
<!-- src/vite&#45;env.d.ts -->
<g id="node18" class="node">
<title>src/vite&#45;env.d.ts</title>
<g id="a_node18"><a xlink:href="src/vite-env.d.ts" xlink:title="vite&#45;env.d.ts">
<path fill="#ccffcc" stroke="black" d="M82.08,-236.88C82.08,-236.88 29.17,-236.88 29.17,-236.88 26.21,-236.88 23.25,-233.92 23.25,-230.96 23.25,-230.96 23.25,-225.04 23.25,-225.04 23.25,-222.08 26.21,-219.12 29.17,-219.12 29.17,-219.12 82.08,-219.12 82.08,-219.12 85.04,-219.12 88,-222.08 88,-225.04 88,-225.04 88,-230.96 88,-230.96 88,-233.92 85.04,-236.88 82.08,-236.88"/>
<text text-anchor="start" x="31.25" y="-224.32" font-family="Helvetica,sans-Serif" font-size="9.00">vite&#45;env.d.ts</text>
</a>
</g>
</g>
</g>
</svg>
