<?xml version="1.0" encoding="UTF-8" standalone="no"?>
<!DOCTYPE svg PUBLIC "-//W3C//DTD SVG 1.1//EN"
 "http://www.w3.org/Graphics/SVG/1.1/DTD/svg11.dtd">
<!-- Generated by graphviz version 10.0.1 (20240210.2158)
 -->
<!-- Title: dependency&#45;cruiser output Pages: 1 -->
<svg width="509pt" height="490pt"
 viewBox="0.00 0.00 508.50 490.00" xmlns="http://www.w3.org/2000/svg" xmlns:xlink="http://www.w3.org/1999/xlink">
<g id="graph0" class="graph" transform="scale(1 1) rotate(0) translate(4 486)">
<title>dependency&#45;cruiser output</title>
<polygon fill="white" stroke="none" points="-4,4 -4,-486 504.5,-486 504.5,4 -4,4"/>
<g id="clust1" class="cluster">
<title>cluster_src</title>
<path fill="#ffffff" stroke="black" stroke-width="2" d="M20,-8C20,-8 480.5,-8 480.5,-8 486.5,-8 492.5,-14 492.5,-20 492.5,-20 492.5,-462 492.5,-462 492.5,-468 486.5,-474 480.5,-474 480.5,-474 20,-474 20,-474 14,-474 8,-468 8,-462 8,-462 8,-20 8,-20 8,-14 14,-8 20,-8"/>
<text text-anchor="middle" x="250.25" y="-461.45" font-family="Helvetica,sans-Serif" font-weight="bold" font-size="9.00">src</text>
</g>
<g id="clust2" class="cluster">
<title>cluster_src/modules</title>
<path fill="#ffffff" stroke="black" stroke-width="2" d="M100.75,-346C100.75,-346 153,-346 153,-346 159,-346 165,-352 165,-358 165,-358 165,-416 165,-416 165,-422 159,-428 153,-428 153,-428 100.75,-428 100.75,-428 94.75,-428 88.75,-422 88.75,-416 88.75,-416 88.75,-358 88.75,-358 88.75,-352 94.75,-346 100.75,-346"/>
<text text-anchor="middle" x="126.88" y="-415.45" font-family="Helvetica,sans-Serif" font-weight="bold" font-size="9.00">modules</text>
</g>
<g id="clust3" class="cluster">
<title>cluster_src/store</title>
<path fill="#ffffff" stroke="black" stroke-width="2" d="M103.88,-66C103.88,-66 410.5,-66 410.5,-66 416.5,-66 422.5,-72 422.5,-78 422.5,-78 422.5,-192 422.5,-192 422.5,-198 416.5,-204 410.5,-204 410.5,-204 103.87,-204 103.87,-204 97.88,-204 91.88,-198 91.88,-192 91.88,-192 91.88,-78 91.88,-78 91.88,-72 97.88,-66 103.88,-66"/>
<text text-anchor="middle" x="257.19" y="-191.45" font-family="Helvetica,sans-Serif" font-weight="bold" font-size="9.00">store</text>
</g>
<g id="clust4" class="cluster">
<title>cluster_src/templates</title>
<path fill="#ffffff" stroke="black" stroke-width="2" d="M185,-212C185,-212 269.5,-212 269.5,-212 275.5,-212 281.5,-218 281.5,-224 281.5,-224 281.5,-342 281.5,-342 281.5,-348 275.5,-354 269.5,-354 269.5,-354 185,-354 185,-354 179,-354 173,-348 173,-342 173,-342 173,-224 173,-224 173,-218 179,-212 185,-212"/>
<text text-anchor="middle" x="227.25" y="-341.45" font-family="Helvetica,sans-Serif" font-weight="bold" font-size="9.00">templates</text>
</g>
<!-- src/config.ts -->
<g id="node1" class="node">
<title>src/config.ts</title>
<g id="a_node1"><a xlink:href="src/config.ts" xlink:title="config.ts">
<path fill="#ddfeff" stroke="black" d="M339.58,-47.88C339.58,-47.88 297.42,-47.88 297.42,-47.88 294.46,-47.88 291.5,-44.92 291.5,-41.96 291.5,-41.96 291.5,-36.04 291.5,-36.04 291.5,-33.08 294.46,-30.12 297.42,-30.12 297.42,-30.12 339.58,-30.12 339.58,-30.12 342.54,-30.12 345.5,-33.08 345.5,-36.04 345.5,-36.04 345.5,-41.96 345.5,-41.96 345.5,-44.92 342.54,-47.88 339.58,-47.88"/>
<text text-anchor="start" x="301.62" y="-35.33" font-family="Helvetica,sans-Serif" font-size="9.00">config.ts</text>
</a>
</g>
</g>
<!-- src/consts.ts -->
<g id="node2" class="node">
<title>src/consts.ts</title>
<g id="a_node2"><a xlink:href="src/consts.ts" xlink:title="consts.ts">
<path fill="#ddfeff" stroke="black" d="M478.58,-88.88C478.58,-88.88 436.42,-88.88 436.42,-88.88 433.46,-88.88 430.5,-85.92 430.5,-82.96 430.5,-82.96 430.5,-77.04 430.5,-77.04 430.5,-74.08 433.46,-71.12 436.42,-71.12 436.42,-71.12 478.58,-71.12 478.58,-71.12 481.54,-71.12 484.5,-74.08 484.5,-77.04 484.5,-77.04 484.5,-82.96 484.5,-82.96 484.5,-85.92 481.54,-88.88 478.58,-88.88"/>
<text text-anchor="start" x="439.88" y="-76.33" font-family="Helvetica,sans-Serif" font-size="9.00">consts.ts</text>
</a>
</g>
</g>
<!-- src/main.ts -->
<g id="node3" class="node">
<title>src/main.ts</title>
<g id="a_node3"><a xlink:href="src/main.ts" xlink:title="main.ts">
<path fill="#ddfeff" stroke="black" d="M69.46,-371.88C69.46,-371.88 27.29,-371.88 27.29,-371.88 24.33,-371.88 21.38,-368.92 21.38,-365.96 21.38,-365.96 21.38,-360.04 21.38,-360.04 21.38,-357.08 24.33,-354.12 27.29,-354.12 27.29,-354.12 69.46,-354.12 69.46,-354.12 72.42,-354.12 75.38,-357.08 75.38,-360.04 75.38,-360.04 75.38,-365.96 75.38,-365.96 75.38,-368.92 72.42,-371.88 69.46,-371.88"/>
<text text-anchor="start" x="33.75" y="-359.32" font-family="Helvetica,sans-Serif" font-size="9.00">main.ts</text>
</a>
</g>
</g>
<!-- src/modules/control.mts -->
<g id="node4" class="node">
<title>src/modules/control.mts</title>
<g id="a_node4"><a xlink:href="src/modules/control.mts" xlink:title="control.mts">
<path fill="#ddfeff" stroke="black" d="M151.08,-371.88C151.08,-371.88 102.67,-371.88 102.67,-371.88 99.71,-371.88 96.75,-368.92 96.75,-365.96 96.75,-365.96 96.75,-360.04 96.75,-360.04 96.75,-357.08 99.71,-354.12 102.67,-354.12 102.67,-354.12 151.08,-354.12 151.08,-354.12 154.04,-354.12 157,-357.08 157,-360.04 157,-360.04 157,-365.96 157,-365.96 157,-368.92 154.04,-371.88 151.08,-371.88"/>
<text text-anchor="start" x="104.75" y="-359.32" font-family="Helvetica,sans-Serif" font-size="9.00">control.mts</text>
</a>
</g>
</g>
<!-- src/main.ts&#45;&gt;src/modules/control.mts -->
<g id="edge1" class="edge">
<title>src/main.ts&#45;&gt;src/modules/control.mts</title>
<path fill="none" stroke="#000000" stroke-width="2" stroke-opacity="0.200000" d="M75.7,-363C79.55,-363 83.58,-363 87.6,-363"/>
<polygon fill="#000000" fill-opacity="0.200000" stroke="#000000" stroke-width="2" stroke-opacity="0.200000" points="87.32,-365.1 93.32,-363 87.32,-360.9 87.32,-365.1"/>
</g>
<!-- src/modules/map.mts -->
<g id="node5" class="node">
<title>src/modules/map.mts</title>
<g id="a_node5"><a xlink:href="src/modules/map.mts" xlink:title="map.mts">
<path fill="#ddfeff" stroke="black" d="M147.96,-401.88C147.96,-401.88 105.79,-401.88 105.79,-401.88 102.83,-401.88 99.88,-398.92 99.88,-395.96 99.88,-395.96 99.88,-390.04 99.88,-390.04 99.88,-387.08 102.83,-384.12 105.79,-384.12 105.79,-384.12 147.96,-384.12 147.96,-384.12 150.92,-384.12 153.88,-387.08 153.88,-390.04 153.88,-390.04 153.88,-395.96 153.88,-395.96 153.88,-398.92 150.92,-401.88 147.96,-401.88"/>
<text text-anchor="start" x="109.62" y="-389.32" font-family="Helvetica,sans-Serif" font-size="9.00">map.mts</text>
</a>
</g>
</g>
<!-- src/main.ts&#45;&gt;src/modules/map.mts -->
<g id="edge2" class="edge">
<title>src/main.ts&#45;&gt;src/modules/map.mts</title>
<path fill="none" stroke="#000000" stroke-width="2" stroke-opacity="0.200000" d="M73.16,-372.33C79.78,-374.92 87.08,-377.79 94.08,-380.53"/>
<polygon fill="#000000" fill-opacity="0.200000" stroke="#000000" stroke-width="2" stroke-opacity="0.200000" points="92.93,-382.34 99.29,-382.57 94.47,-378.43 92.93,-382.34"/>
</g>
<!-- src/style.css -->
<g id="node6" class="node">
<title>src/style.css</title>
<g id="a_node6"><a xlink:href="src/style.css" xlink:title="style.css">
<path fill="#ffffcc" stroke="black" d="M147.96,-337.88C147.96,-337.88 105.79,-337.88 105.79,-337.88 102.83,-337.88 99.88,-334.92 99.88,-331.96 99.88,-331.96 99.88,-326.04 99.88,-326.04 99.88,-323.08 102.83,-320.12 105.79,-320.12 105.79,-320.12 147.96,-320.12 147.96,-320.12 150.92,-320.12 153.88,-323.08 153.88,-326.04 153.88,-326.04 153.88,-331.96 153.88,-331.96 153.88,-334.92 150.92,-337.88 147.96,-337.88"/>
<text text-anchor="start" x="109.62" y="-325.32" font-family="Helvetica,sans-Serif" font-size="9.00">style.css</text>
</a>
</g>
</g>
<!-- src/main.ts&#45;&gt;src/style.css -->
<g id="edge3" class="edge">
<title>src/main.ts&#45;&gt;src/style.css</title>
<path fill="none" stroke="#000000" stroke-width="2" stroke-opacity="0.200000" d="M66.43,-353.82C73.28,-350.27 81.31,-346.28 88.75,-343 89.78,-342.55 90.83,-342.09 91.89,-341.64"/>
<polygon fill="#000000" fill-opacity="0.200000" stroke="#000000" stroke-width="2" stroke-opacity="0.200000" points="92.59,-343.62 97.36,-339.42 91.01,-339.73 92.59,-343.62"/>
</g>
<!-- src/modules/control.mts&#45;&gt;src/consts.ts -->
<g id="edge4" class="edge">
<title>src/modules/control.mts&#45;&gt;src/consts.ts</title>
<path fill="none" stroke="#000000" stroke-width="2" stroke-opacity="0.200000" d="M156.53,-372.35C159.55,-373.97 162.45,-375.85 165,-378 170.18,-382.38 167.08,-387.69 173,-391 215.1,-414.52 238.26,-412.34 281.5,-391 400.19,-332.42 442.66,-155.02 453.46,-97.92"/>
<polygon fill="#000000" fill-opacity="0.200000" stroke="#000000" stroke-width="2" stroke-opacity="0.200000" points="455.49,-98.52 454.49,-92.24 451.35,-97.77 455.49,-98.52"/>
</g>
<!-- src/store/mode.ts -->
<g id="node7" class="node">
<title>src/store/mode.ts</title>
<g id="a_node7"><a xlink:href="src/store/mode.ts" xlink:title="mode.ts">
<path fill="#ddfeff" stroke="black" d="M408.58,-177.88C408.58,-177.88 366.42,-177.88 366.42,-177.88 363.46,-177.88 360.5,-174.92 360.5,-171.96 360.5,-171.96 360.5,-166.04 360.5,-166.04 360.5,-163.08 363.46,-160.12 366.42,-160.12 366.42,-160.12 408.58,-160.12 408.58,-160.12 411.54,-160.12 414.5,-163.08 414.5,-166.04 414.5,-166.04 414.5,-171.96 414.5,-171.96 414.5,-174.92 411.54,-177.88 408.58,-177.88"/>
<text text-anchor="start" x="371.38" y="-165.32" font-family="Helvetica,sans-Serif" font-size="9.00">mode.ts</text>
</a>
</g>
</g>
<!-- src/modules/control.mts&#45;&gt;src/store/mode.ts -->
<g id="edge5" class="edge">
<title>src/modules/control.mts&#45;&gt;src/store/mode.ts</title>
<path fill="none" stroke="#000000" stroke-width="2" stroke-opacity="0.200000" d="M150.27,-372.29C159.17,-375.8 168.39,-379.16 173,-380 220.44,-388.64 241.58,-407.05 281.5,-380 357.64,-328.41 299.98,-256.13 358.96,-184.79"/>
<polygon fill="#000000" fill-opacity="0.200000" stroke="#000000" stroke-width="2" stroke-opacity="0.200000" points="360.25,-186.51 362.63,-180.61 357.09,-183.74 360.25,-186.51"/>
</g>
<!-- src/store/route.ts -->
<g id="node8" class="node">
<title>src/store/route.ts</title>
<g id="a_node8"><a xlink:href="src/store/route.ts" xlink:title="route.ts">
<path fill="#ddfeff" stroke="black" d="M339.58,-163.88C339.58,-163.88 297.42,-163.88 297.42,-163.88 294.46,-163.88 291.5,-160.92 291.5,-157.96 291.5,-157.96 291.5,-152.04 291.5,-152.04 291.5,-149.08 294.46,-146.12 297.42,-146.12 297.42,-146.12 339.58,-146.12 339.58,-146.12 342.54,-146.12 345.5,-149.08 345.5,-152.04 345.5,-152.04 345.5,-157.96 345.5,-157.96 345.5,-160.92 342.54,-163.88 339.58,-163.88"/>
<text text-anchor="start" x="303.5" y="-151.32" font-family="Helvetica,sans-Serif" font-size="9.00">route.ts</text>
</a>
</g>
</g>
<!-- src/modules/control.mts&#45;&gt;src/store/route.ts -->
<g id="edge6" class="edge">
<title>src/modules/control.mts&#45;&gt;src/store/route.ts</title>
<path fill="none" stroke="#000000" stroke-width="2" stroke-opacity="0.200000" d="M151.58,-372.33C184.78,-383.66 245.12,-397.73 281.5,-367 310.86,-342.2 316.28,-220.16 317.28,-173.34"/>
<polygon fill="#000000" fill-opacity="0.200000" stroke="#000000" stroke-width="2" stroke-opacity="0.200000" points="319.38,-173.37 317.38,-167.34 315.18,-173.3 319.38,-173.37"/>
</g>
<!-- src/store/traverse.ts -->
<g id="node9" class="node">
<title>src/store/traverse.ts</title>
<g id="a_node9"><a xlink:href="src/store/traverse.ts" xlink:title="traverse.ts">
<path fill="#ddfeff" stroke="black" d="M341.58,-133.88C341.58,-133.88 295.42,-133.88 295.42,-133.88 292.46,-133.88 289.5,-130.92 289.5,-127.96 289.5,-127.96 289.5,-122.04 289.5,-122.04 289.5,-119.08 292.46,-116.12 295.42,-116.12 295.42,-116.12 341.58,-116.12 341.58,-116.12 344.54,-116.12 347.5,-119.08 347.5,-122.04 347.5,-122.04 347.5,-127.96 347.5,-127.96 347.5,-130.92 344.54,-133.88 341.58,-133.88"/>
<text text-anchor="start" x="297.5" y="-121.33" font-family="Helvetica,sans-Serif" font-size="9.00">traverse.ts</text>
</a>
</g>
</g>
<!-- src/modules/control.mts&#45;&gt;src/store/traverse.ts -->
<g id="edge7" class="edge">
<title>src/modules/control.mts&#45;&gt;src/store/traverse.ts</title>
<path fill="none" stroke="#000000" stroke-width="2" stroke-opacity="0.200000" d="M157.3,-366.35C197,-370.15 264.72,-373.82 281.5,-357 297.28,-341.19 279.75,-186.21 291.45,-142.43"/>
<polygon fill="#000000" fill-opacity="0.200000" stroke="#000000" stroke-width="2" stroke-opacity="0.200000" points="293.36,-143.31 293.7,-136.97 289.47,-141.71 293.36,-143.31"/>
</g>
<!-- src/templates/control.hbs -->
<g id="node10" class="node">
<title>src/templates/control.hbs</title>
<g id="a_node10"><a xlink:href="src/templates/control.hbs" xlink:title="control.hbs">
<path fill="#ffffcc" stroke="black" d="M251.83,-327.88C251.83,-327.88 202.67,-327.88 202.67,-327.88 199.71,-327.88 196.75,-324.92 196.75,-321.96 196.75,-321.96 196.75,-316.04 196.75,-316.04 196.75,-313.08 199.71,-310.12 202.67,-310.12 202.67,-310.12 251.83,-310.12 251.83,-310.12 254.79,-310.12 257.75,-313.08 257.75,-316.04 257.75,-316.04 257.75,-321.96 257.75,-321.96 257.75,-324.92 254.79,-327.88 251.83,-327.88"/>
<text text-anchor="start" x="204.75" y="-315.32" font-family="Helvetica,sans-Serif" font-size="9.00">control.hbs</text>
</a>
</g>
</g>
<!-- src/modules/control.mts&#45;&gt;src/templates/control.hbs -->
<g id="edge8" class="edge">
<title>src/modules/control.mts&#45;&gt;src/templates/control.hbs</title>
<path fill="none" stroke="#000000" stroke-width="2" stroke-opacity="0.200000" d="M155.6,-353.74C158.79,-352.54 161.98,-351.28 165,-350 177.23,-344.79 190.44,-338.23 201.44,-332.49"/>
<polygon fill="#000000" fill-opacity="0.200000" stroke="#000000" stroke-width="2" stroke-opacity="0.200000" points="202.38,-334.37 206.7,-329.71 200.41,-330.66 202.38,-334.37"/>
</g>
<!-- src/templates/routePanel.hbs -->
<g id="node11" class="node">
<title>src/templates/routePanel.hbs</title>
<g id="a_node11"><a xlink:href="src/templates/routePanel.hbs" xlink:title="routePanel.hbs">
<path fill="#ffffcc" stroke="black" d="M260.46,-267.88C260.46,-267.88 194.04,-267.88 194.04,-267.88 191.08,-267.88 188.12,-264.92 188.12,-261.96 188.12,-261.96 188.12,-256.04 188.12,-256.04 188.12,-253.08 191.08,-250.12 194.04,-250.12 194.04,-250.12 260.46,-250.12 260.46,-250.12 263.42,-250.12 266.38,-253.08 266.38,-256.04 266.38,-256.04 266.38,-261.96 266.38,-261.96 266.38,-264.92 263.42,-267.88 260.46,-267.88"/>
<text text-anchor="start" x="196.12" y="-255.32" font-family="Helvetica,sans-Serif" font-size="9.00">routePanel.hbs</text>
</a>
</g>
</g>
<!-- src/modules/control.mts&#45;&gt;src/templates/routePanel.hbs -->
<g id="edge9" class="edge">
<title>src/modules/control.mts&#45;&gt;src/templates/routePanel.hbs</title>
<path fill="none" stroke="#000000" stroke-width="2" stroke-opacity="0.200000" d="M157.19,-356.5C160.17,-354.81 162.88,-352.68 165,-350 186.08,-323.37 151.11,-299.97 173,-274 175.07,-271.54 177.51,-269.47 180.19,-267.73"/>
<polygon fill="#000000" fill-opacity="0.200000" stroke="#000000" stroke-width="2" stroke-opacity="0.200000" points="180.68,-269.84 185.05,-265.22 178.75,-266.11 180.68,-269.84"/>
</g>
<!-- src/templates/traversalPanel.hbs -->
<g id="node12" class="node">
<title>src/templates/traversalPanel.hbs</title>
<g id="a_node12"><a xlink:href="src/templates/traversalPanel.hbs" xlink:title="traversalPanel.hbs">
<path fill="#ffffcc" stroke="black" d="M267.58,-297.88C267.58,-297.88 186.92,-297.88 186.92,-297.88 183.96,-297.88 181,-294.92 181,-291.96 181,-291.96 181,-286.04 181,-286.04 181,-283.08 183.96,-280.12 186.92,-280.12 186.92,-280.12 267.58,-280.12 267.58,-280.12 270.54,-280.12 273.5,-283.08 273.5,-286.04 273.5,-286.04 273.5,-291.96 273.5,-291.96 273.5,-294.92 270.54,-297.88 267.58,-297.88"/>
<text text-anchor="start" x="189" y="-285.32" font-family="Helvetica,sans-Serif" font-size="9.00">traversalPanel.hbs</text>
</a>
</g>
</g>
<!-- src/modules/control.mts&#45;&gt;src/templates/traversalPanel.hbs -->
<g id="edge10" class="edge">
<title>src/modules/control.mts&#45;&gt;src/templates/traversalPanel.hbs</title>
<path fill="none" stroke="#000000" stroke-width="2" stroke-opacity="0.200000" d="M157.38,-356.15C160.25,-354.52 162.88,-352.5 165,-350 178.42,-334.17 159.1,-319.41 173,-304 173.27,-303.7 173.55,-303.4 173.84,-303.11"/>
<polygon fill="#000000" fill-opacity="0.200000" stroke="#000000" stroke-width="2" stroke-opacity="0.200000" points="174.75,-305.07 178.13,-299.69 172.13,-301.78 174.75,-305.07"/>
</g>
<!-- src/modules/map.mts&#45;&gt;src/store/route.ts -->
<g id="edge13" class="edge">
<title>src/modules/map.mts&#45;&gt;src/store/route.ts</title>
<path fill="none" stroke="#000000" stroke-width="2" stroke-opacity="0.200000" d="M154.26,-399.55C188.33,-406.27 247.27,-411.78 281.5,-380 311.61,-352.05 316.56,-221.36 317.35,-173.03"/>
<polygon fill="#000000" fill-opacity="0.200000" stroke="#000000" stroke-width="2" stroke-opacity="0.200000" points="319.45,-173.32 317.43,-167.3 315.25,-173.27 319.45,-173.32"/>
</g>
<!-- src/modules/map.mts&#45;&gt;src/store/traverse.ts -->
<g id="edge14" class="edge">
<title>src/modules/map.mts&#45;&gt;src/store/traverse.ts</title>
<path fill="none" stroke="#000000" stroke-width="2" stroke-opacity="0.200000" d="M154.02,-386.15C160.22,-384.66 166.82,-383.18 173,-382 196.91,-377.45 265.19,-385.07 281.5,-367 297.19,-349.62 279.17,-187.55 291.2,-142.62"/>
<polygon fill="#000000" fill-opacity="0.200000" stroke="#000000" stroke-width="2" stroke-opacity="0.200000" points="293.1,-143.52 293.44,-137.17 289.22,-141.92 293.1,-143.52"/>
</g>
<!-- src/store/map.ts -->
<g id="node13" class="node">
<title>src/store/map.ts</title>
<g id="a_node13"><a xlink:href="src/store/map.ts" xlink:title="map.ts">
<path fill="#ddfeff" stroke="black" d="M408.58,-117.88C408.58,-117.88 366.42,-117.88 366.42,-117.88 363.46,-117.88 360.5,-114.92 360.5,-111.96 360.5,-111.96 360.5,-106.04 360.5,-106.04 360.5,-103.08 363.46,-100.12 366.42,-100.12 366.42,-100.12 408.58,-100.12 408.58,-100.12 411.54,-100.12 414.5,-103.08 414.5,-106.04 414.5,-106.04 414.5,-111.96 414.5,-111.96 414.5,-114.92 411.54,-117.88 408.58,-117.88"/>
<text text-anchor="start" x="374" y="-105.33" font-family="Helvetica,sans-Serif" font-size="9.00">map.ts</text>
</a>
</g>
</g>
<!-- src/modules/map.mts&#45;&gt;src/store/map.ts -->
<g id="edge11" class="edge">
<title>src/modules/map.mts&#45;&gt;src/store/map.ts</title>
<path fill="none" stroke="#000000" stroke-width="2" stroke-opacity="0.200000" d="M153.63,-402.3C186.74,-412.45 244.36,-423.84 281.5,-396 365.22,-333.23 318.6,-270.57 347.5,-170 352.73,-151.81 348.6,-142.83 361.06,-125.23"/>
<polygon fill="#000000" fill-opacity="0.200000" stroke="#000000" stroke-width="2" stroke-opacity="0.200000" points="362.56,-126.73 364.59,-120.71 359.25,-124.15 362.56,-126.73"/>
</g>
<!-- src/store/render.ts -->
<g id="node14" class="node">
<title>src/store/render.ts</title>
<g id="a_node14"><a xlink:href="src/store/render.ts" xlink:title="render.ts">
<path fill="#ddfeff" stroke="black" d="M147.96,-133.88C147.96,-133.88 105.79,-133.88 105.79,-133.88 102.83,-133.88 99.88,-130.92 99.88,-127.96 99.88,-127.96 99.88,-122.04 99.88,-122.04 99.88,-119.08 102.83,-116.12 105.79,-116.12 105.79,-116.12 147.96,-116.12 147.96,-116.12 150.92,-116.12 153.88,-119.08 153.88,-122.04 153.88,-122.04 153.88,-127.96 153.88,-127.96 153.88,-130.92 150.92,-133.88 147.96,-133.88"/>
<text text-anchor="start" x="108.88" y="-121.33" font-family="Helvetica,sans-Serif" font-size="9.00">render.ts</text>
</a>
</g>
</g>
<!-- src/modules/map.mts&#45;&gt;src/store/render.ts -->
<g id="edge12" class="edge">
<title>src/modules/map.mts&#45;&gt;src/store/render.ts</title>
<path fill="none" stroke="#000000" stroke-width="2" stroke-opacity="0.200000" d="M99.4,-386.84C92.72,-383.72 86.88,-379.04 84.75,-372 81.08,-359.88 81.08,-156.12 84.75,-144 86.02,-139.81 88.67,-136.54 92.04,-133.99"/>
<polygon fill="#000000" fill-opacity="0.200000" stroke="#000000" stroke-width="2" stroke-opacity="0.200000" points="92.91,-135.91 97.14,-131.17 90.88,-132.23 92.91,-135.91"/>
</g>
<!-- src/store/mode.ts&#45;&gt;src/consts.ts -->
<g id="edge21" class="edge">
<title>src/store/mode.ts&#45;&gt;src/consts.ts</title>
<path fill="none" stroke="#000000" stroke-width="2" stroke-opacity="0.200000" d="M414.99,-159.69C417.72,-158.06 420.29,-156.17 422.5,-154 438.33,-138.41 447.54,-114.07 452.29,-97.6"/>
<polygon fill="#000000" fill-opacity="0.200000" stroke="#000000" stroke-width="2" stroke-opacity="0.200000" points="454.3,-98.21 453.81,-91.87 450.24,-97.13 454.3,-98.21"/>
</g>
<!-- src/store/route.ts&#45;&gt;src/consts.ts -->
<g id="edge28" class="edge">
<title>src/store/route.ts&#45;&gt;src/consts.ts</title>
<path fill="none" stroke="#000000" stroke-width="2" stroke-opacity="0.200000" d="M341.36,-145.67C343.65,-144.03 345.77,-142.15 347.5,-140 360.81,-123.44 344.53,-108.01 360.5,-94 369.48,-86.12 397.99,-82.68 421.63,-81.17"/>
<polygon fill="#000000" fill-opacity="0.200000" stroke="#000000" stroke-width="2" stroke-opacity="0.200000" points="421.5,-83.28 427.38,-80.85 421.27,-79.09 421.5,-83.28"/>
</g>
<!-- src/store/route.ts&#45;&gt;src/store/mode.ts -->
<g id="edge31" class="edge">
<title>src/store/route.ts&#45;&gt;src/store/mode.ts</title>
<path fill="none" stroke="#000000" stroke-width="2" stroke-opacity="0.200000" d="M345.98,-160.53C347.88,-160.93 349.82,-161.33 351.76,-161.74"/>
<polygon fill="#000000" fill-opacity="0.200000" stroke="#000000" stroke-width="2" stroke-opacity="0.200000" points="350.95,-163.72 357.25,-162.89 351.81,-159.6 350.95,-163.72"/>
</g>
<!-- src/store/route.ts&#45;&gt;src/store/map.ts -->
<g id="edge29" class="edge">
<title>src/store/route.ts&#45;&gt;src/store/map.ts</title>
<path fill="none" stroke="#000000" stroke-width="2" stroke-opacity="0.200000" d="M339.12,-145.79C342.05,-144.05 344.95,-142.11 347.5,-140 354.57,-134.17 353.53,-129.94 360.5,-124 360.8,-123.75 361.1,-123.49 361.41,-123.25"/>
<polygon fill="#000000" fill-opacity="0.200000" stroke="#000000" stroke-width="2" stroke-opacity="0.200000" points="362.16,-125.29 365.83,-120.1 359.72,-121.86 362.16,-125.29"/>
</g>
<!-- src/store/marker.ts -->
<g id="node16" class="node">
<title>src/store/marker.ts</title>
<g id="a_node16"><a xlink:href="src/store/marker.ts" xlink:title="marker.ts">
<path fill="#ddfeff" stroke="black" d="M408.58,-147.88C408.58,-147.88 366.42,-147.88 366.42,-147.88 363.46,-147.88 360.5,-144.92 360.5,-141.96 360.5,-141.96 360.5,-136.04 360.5,-136.04 360.5,-133.08 363.46,-130.12 366.42,-130.12 366.42,-130.12 408.58,-130.12 408.58,-130.12 411.54,-130.12 414.5,-133.08 414.5,-136.04 414.5,-136.04 414.5,-141.96 414.5,-141.96 414.5,-144.92 411.54,-147.88 408.58,-147.88"/>
<text text-anchor="start" x="368.75" y="-135.32" font-family="Helvetica,sans-Serif" font-size="9.00">marker.ts</text>
</a>
</g>
</g>
<!-- src/store/route.ts&#45;&gt;src/store/marker.ts -->
<g id="edge30" class="edge">
<title>src/store/route.ts&#45;&gt;src/store/marker.ts</title>
<path fill="none" stroke="#000000" stroke-width="2" stroke-opacity="0.200000" d="M345.98,-148.68C347.88,-148.22 349.82,-147.76 351.76,-147.3"/>
<polygon fill="#000000" fill-opacity="0.200000" stroke="#000000" stroke-width="2" stroke-opacity="0.200000" points="351.92,-149.42 357.27,-145.98 350.94,-145.33 351.92,-149.42"/>
</g>
<!-- src/store/traverse.ts&#45;&gt;src/consts.ts -->
<g id="edge32" class="edge">
<title>src/store/traverse.ts&#45;&gt;src/consts.ts</title>
<path fill="none" stroke="#000000" stroke-width="2" stroke-opacity="0.200000" d="M342.99,-115.74C344.62,-114.62 346.14,-113.37 347.5,-112 357.42,-101.95 348.77,-90.86 360.5,-83 378.08,-71.22 401.82,-70.38 421.29,-72.53"/>
<polygon fill="#000000" fill-opacity="0.200000" stroke="#000000" stroke-width="2" stroke-opacity="0.200000" points="420.96,-74.61 427.19,-73.34 421.52,-70.45 420.96,-74.61"/>
</g>
<!-- src/store/traverse.ts&#45;&gt;src/store/mode.ts -->
<g id="edge35" class="edge">
<title>src/store/traverse.ts&#45;&gt;src/store/mode.ts</title>
<path fill="none" stroke="#000000" stroke-width="2" stroke-opacity="0.200000" d="M339,-134.36C341.95,-136.08 344.88,-137.98 347.5,-140 354.22,-145.19 353.86,-148.71 360.5,-154 360.82,-154.25 361.14,-154.5 361.46,-154.75"/>
<polygon fill="#000000" fill-opacity="0.200000" stroke="#000000" stroke-width="2" stroke-opacity="0.200000" points="360.05,-156.33 366.19,-157.98 362.42,-152.86 360.05,-156.33"/>
</g>
<!-- src/store/traverse.ts&#45;&gt;src/store/map.ts -->
<g id="edge33" class="edge">
<title>src/store/traverse.ts&#45;&gt;src/store/map.ts</title>
<path fill="none" stroke="#000000" stroke-width="2" stroke-opacity="0.200000" d="M347.91,-118.21C349.21,-117.91 350.51,-117.59 351.82,-117.28"/>
<polygon fill="#000000" fill-opacity="0.200000" stroke="#000000" stroke-width="2" stroke-opacity="0.200000" points="352.09,-119.38 357.44,-115.94 351.12,-115.29 352.09,-119.38"/>
</g>
<!-- src/store/traverse.ts&#45;&gt;src/store/marker.ts -->
<g id="edge34" class="edge">
<title>src/store/traverse.ts&#45;&gt;src/store/marker.ts</title>
<path fill="none" stroke="#000000" stroke-width="2" stroke-opacity="0.200000" d="M347.91,-130.94C349.21,-131.21 350.51,-131.48 351.82,-131.75"/>
<polygon fill="#000000" fill-opacity="0.200000" stroke="#000000" stroke-width="2" stroke-opacity="0.200000" points="351.12,-133.75 357.42,-132.92 351.98,-129.64 351.12,-133.75"/>
</g>
<!-- src/store/render.ts&#45;&gt;src/consts.ts -->
<g id="edge22" class="edge">
<title>src/store/render.ts&#45;&gt;src/consts.ts</title>
<path fill="none" stroke="#000000" stroke-width="2" stroke-opacity="0.200000" d="M133.19,-116C140.69,-104 155.43,-82.8 173,-70 217.99,-37.21 234.81,-34.41 289.5,-24 314.82,-19.18 322.4,-18.14 347.5,-24 383.7,-32.44 389.6,-43.71 422.5,-61 425.8,-62.73 429.25,-64.6 432.65,-66.47"/>
<polygon fill="#000000" fill-opacity="0.200000" stroke="#000000" stroke-width="2" stroke-opacity="0.200000" points="431.43,-68.19 437.69,-69.27 433.47,-64.52 431.43,-68.19"/>
</g>
<!-- src/store/render.ts&#45;&gt;src/store/mode.ts -->
<g id="edge26" class="edge">
<title>src/store/render.ts&#45;&gt;src/store/mode.ts</title>
<path fill="none" stroke="#000000" stroke-width="2" stroke-opacity="0.200000" d="M154.32,-133.31C193.01,-145.3 263.31,-166.42 289.5,-170 315.04,-173.49 321.72,-170.33 347.5,-170 348.77,-169.98 350.06,-169.96 351.37,-169.94"/>
<polygon fill="#000000" fill-opacity="0.200000" stroke="#000000" stroke-width="2" stroke-opacity="0.200000" points="351.09,-172.05 357.04,-169.83 351,-167.85 351.09,-172.05"/>
</g>
<!-- src/store/render.ts&#45;&gt;src/store/traverse.ts -->
<g id="edge27" class="edge">
<title>src/store/render.ts&#45;&gt;src/store/traverse.ts</title>
<path fill="none" stroke="#000000" stroke-width="2" stroke-opacity="0.200000" d="M154.24,-125C186.98,-125 243.04,-125 280.18,-125"/>
<polygon fill="#000000" fill-opacity="0.200000" stroke="#000000" stroke-width="2" stroke-opacity="0.200000" points="280.17,-127.1 286.17,-125 280.17,-122.9 280.17,-127.1"/>
</g>
<!-- src/store/render.ts&#45;&gt;src/store/map.ts -->
<g id="edge25" class="edge">
<title>src/store/render.ts&#45;&gt;src/store/map.ts</title>
<path fill="none" stroke="#000000" stroke-width="2" stroke-opacity="0.200000" d="M135.41,-115.93C143.58,-106.87 157.55,-93.53 173,-88 246.06,-61.88 272,-75.13 347.5,-93 351.37,-93.92 355.35,-95.16 359.23,-96.56"/>
<polygon fill="#000000" fill-opacity="0.200000" stroke="#000000" stroke-width="2" stroke-opacity="0.200000" points="358.29,-98.45 364.64,-98.69 359.82,-94.54 358.29,-98.45"/>
</g>
<!-- src/store/fetch.ts -->
<g id="node15" class="node">
<title>src/store/fetch.ts</title>
<g id="a_node15"><a xlink:href="src/store/fetch.ts" xlink:title="fetch.ts">
<path fill="#ddfeff" stroke="black" d="M248.33,-111.88C248.33,-111.88 206.17,-111.88 206.17,-111.88 203.21,-111.88 200.25,-108.92 200.25,-105.96 200.25,-105.96 200.25,-100.04 200.25,-100.04 200.25,-97.08 203.21,-94.12 206.17,-94.12 206.17,-94.12 248.33,-94.12 248.33,-94.12 251.29,-94.12 254.25,-97.08 254.25,-100.04 254.25,-100.04 254.25,-105.96 254.25,-105.96 254.25,-108.92 251.29,-111.88 248.33,-111.88"/>
<text text-anchor="start" x="213" y="-99.33" font-family="Helvetica,sans-Serif" font-size="9.00">fetch.ts</text>
</a>
</g>
</g>
<!-- src/store/render.ts&#45;&gt;src/store/fetch.ts -->
<g id="edge24" class="edge">
<title>src/store/render.ts&#45;&gt;src/store/fetch.ts</title>
<path fill="none" stroke="#000000" stroke-width="2" stroke-opacity="0.200000" d="M154.24,-119.1C165.6,-116.56 179.04,-113.56 191.22,-110.83"/>
<polygon fill="#000000" fill-opacity="0.200000" stroke="#000000" stroke-width="2" stroke-opacity="0.200000" points="191.46,-112.93 196.86,-109.57 190.55,-108.83 191.46,-112.93"/>
</g>
<!-- src/templates/debugPopup.hbs -->
<g id="node17" class="node">
<title>src/templates/debugPopup.hbs</title>
<g id="a_node17"><a xlink:href="src/templates/debugPopup.hbs" xlink:title="debugPopup.hbs">
<path fill="#ffffcc" stroke="black" d="M264.58,-237.88C264.58,-237.88 189.92,-237.88 189.92,-237.88 186.96,-237.88 184,-234.92 184,-231.96 184,-231.96 184,-226.04 184,-226.04 184,-223.08 186.96,-220.12 189.92,-220.12 189.92,-220.12 264.58,-220.12 264.58,-220.12 267.54,-220.12 270.5,-223.08 270.5,-226.04 270.5,-226.04 270.5,-231.96 270.5,-231.96 270.5,-234.92 267.54,-237.88 264.58,-237.88"/>
<text text-anchor="start" x="192" y="-225.32" font-family="Helvetica,sans-Serif" font-size="9.00">debugPopup.hbs</text>
</a>
</g>
</g>
<!-- src/store/render.ts&#45;&gt;src/templates/debugPopup.hbs -->
<g id="edge23" class="edge">
<title>src/store/render.ts&#45;&gt;src/templates/debugPopup.hbs</title>
<path fill="none" stroke="#000000" stroke-width="2" stroke-opacity="0.200000" d="M154.22,-130.04C158.35,-131.91 162.18,-134.48 165,-138 184.28,-162.11 154.39,-182.37 173,-207 175.41,-210.18 178.36,-212.91 181.62,-215.24"/>
<polygon fill="#000000" fill-opacity="0.200000" stroke="#000000" stroke-width="2" stroke-opacity="0.200000" points="180.35,-216.93 186.58,-218.2 182.5,-213.32 180.35,-216.93"/>
</g>
<!-- src/store/fetch.ts&#45;&gt;src/config.ts -->
<g id="edge15" class="edge">
<title>src/store/fetch.ts&#45;&gt;src/config.ts</title>
<path fill="none" stroke="#000000" stroke-width="2" stroke-opacity="0.200000" d="M254.61,-102.15C264.21,-100.53 274.44,-97.07 281.5,-90 292.16,-79.32 280.75,-69.29 289.5,-57 290.25,-55.94 291.09,-54.93 291.99,-53.96"/>
<polygon fill="#000000" fill-opacity="0.200000" stroke="#000000" stroke-width="2" stroke-opacity="0.200000" points="293.15,-55.74 296.34,-50.24 290.41,-52.55 293.15,-55.74"/>
</g>
<!-- src/store/fetch.ts&#45;&gt;src/consts.ts -->
<g id="edge16" class="edge">
<title>src/store/fetch.ts&#45;&gt;src/consts.ts</title>
<path fill="none" stroke="#000000" stroke-width="2" stroke-opacity="0.200000" d="M254.56,-96.75C263.16,-94.66 272.75,-92.29 281.5,-90 342.87,-73.97 359.99,-57.29 422.5,-68 423.28,-68.13 424.07,-68.28 424.86,-68.45"/>
<polygon fill="#000000" fill-opacity="0.200000" stroke="#000000" stroke-width="2" stroke-opacity="0.200000" points="424.1,-70.42 430.44,-69.9 425.16,-66.36 424.1,-70.42"/>
</g>
<!-- src/store/fetch.ts&#45;&gt;src/store/mode.ts -->
<g id="edge18" class="edge">
<title>src/store/fetch.ts&#45;&gt;src/store/mode.ts</title>
<path fill="none" stroke="#000000" stroke-width="2" stroke-opacity="0.200000" d="M254.64,-101.14C285.35,-99.55 333.65,-99.01 347.5,-110 361.72,-121.29 350.91,-134.67 361.52,-152.77"/>
<polygon fill="#000000" fill-opacity="0.200000" stroke="#000000" stroke-width="2" stroke-opacity="0.200000" points="359.5,-153.56 364.71,-157.2 362.91,-151.11 359.5,-153.56"/>
</g>
<!-- src/store/fetch.ts&#45;&gt;src/store/route.ts -->
<g id="edge19" class="edge">
<title>src/store/fetch.ts&#45;&gt;src/store/route.ts</title>
<path fill="none" stroke="#000000" stroke-width="2" stroke-opacity="0.200000" d="M243.22,-112.34C255.55,-119.96 273.52,-130.9 289.5,-140 290.34,-140.48 291.19,-140.96 292.06,-141.44"/>
<polygon fill="#000000" fill-opacity="0.200000" stroke="#000000" stroke-width="2" stroke-opacity="0.200000" points="291.02,-143.27 297.29,-144.32 293.05,-139.59 291.02,-143.27"/>
</g>
<!-- src/store/fetch.ts&#45;&gt;src/store/traverse.ts -->
<g id="edge20" class="edge">
<title>src/store/fetch.ts&#45;&gt;src/store/traverse.ts</title>
<path fill="none" stroke="#000000" stroke-width="2" stroke-opacity="0.200000" d="M254.55,-109.48C262.72,-111.5 271.89,-113.76 280.65,-115.92"/>
<polygon fill="#000000" fill-opacity="0.200000" stroke="#000000" stroke-width="2" stroke-opacity="0.200000" points="279.95,-117.91 286.28,-117.3 280.95,-113.83 279.95,-117.91"/>
</g>
<!-- src/store/fetch.ts&#45;&gt;src/store/map.ts -->
<g id="edge17" class="edge">
<title>src/store/fetch.ts&#45;&gt;src/store/map.ts</title>
<path fill="none" stroke="#000000" stroke-width="2" stroke-opacity="0.200000" d="M254.41,-99.75C278.65,-97.3 315.64,-94.98 347.5,-99 348.8,-99.16 350.12,-99.36 351.45,-99.58"/>
<polygon fill="#000000" fill-opacity="0.200000" stroke="#000000" stroke-width="2" stroke-opacity="0.200000" points="350.98,-101.62 357.27,-100.73 351.79,-97.5 350.98,-101.62"/>
</g>
<!-- src/vite&#45;env.d.ts -->
<g id="node18" class="node">
<title>src/vite&#45;env.d.ts</title>
<g id="a_node18"><a xlink:href="src/vite-env.d.ts" xlink:title="vite&#45;env.d.ts">
<path fill="#ccffcc" stroke="black" d="M74.83,-424.88C74.83,-424.88 21.92,-424.88 21.92,-424.88 18.96,-424.88 16,-421.92 16,-418.96 16,-418.96 16,-413.04 16,-413.04 16,-410.08 18.96,-407.12 21.92,-407.12 21.92,-407.12 74.83,-407.12 74.83,-407.12 77.79,-407.12 80.75,-410.08 80.75,-413.04 80.75,-413.04 80.75,-418.96 80.75,-418.96 80.75,-421.92 77.79,-424.88 74.83,-424.88"/>
<text text-anchor="start" x="24" y="-412.32" font-family="Helvetica,sans-Serif" font-size="9.00">vite&#45;env.d.ts</text>
</a>
</g>
</g>
</g>
</svg>
