<?xml version="1.0" encoding="UTF-8" standalone="no"?>
<!DOCTYPE svg PUBLIC "-//W3C//DTD SVG 1.1//EN"
 "http://www.w3.org/Graphics/SVG/1.1/DTD/svg11.dtd">
<!-- Generated by graphviz version 10.0.1 (20240210.2158)
 -->
<!-- Title: dependency&#45;cruiser output Pages: 1 -->
<svg width="522pt" height="462pt"
 viewBox="0.00 0.00 521.50 462.00" xmlns="http://www.w3.org/2000/svg" xmlns:xlink="http://www.w3.org/1999/xlink">
<g id="graph0" class="graph" transform="scale(1 1) rotate(0) translate(4 458)">
<title>dependency&#45;cruiser output</title>
<polygon fill="white" stroke="none" points="-4,4 -4,-458 517.5,-458 517.5,4 -4,4"/>
<g id="clust1" class="cluster">
<title>cluster_src</title>
<path fill="#ffffff" stroke="black" stroke-width="2" d="M20,-8C20,-8 493.5,-8 493.5,-8 499.5,-8 505.5,-14 505.5,-20 505.5,-20 505.5,-434 505.5,-434 505.5,-440 499.5,-446 493.5,-446 493.5,-446 20,-446 20,-446 14,-446 8,-440 8,-434 8,-434 8,-20 8,-20 8,-14 14,-8 20,-8"/>
<text text-anchor="middle" x="256.75" y="-433.45" font-family="Helvetica,sans-Serif" font-weight="bold" font-size="9.00">src</text>
</g>
<g id="clust2" class="cluster">
<title>cluster_src/modules</title>
<path fill="#ffffff" stroke="black" stroke-width="2" d="M110.12,-332C110.12,-332 162.38,-332 162.38,-332 168.38,-332 174.38,-338 174.38,-344 174.38,-344 174.38,-402 174.38,-402 174.38,-408 168.38,-414 162.38,-414 162.38,-414 110.12,-414 110.12,-414 104.12,-414 98.12,-408 98.12,-402 98.12,-402 98.12,-344 98.12,-344 98.12,-338 104.12,-332 110.12,-332"/>
<text text-anchor="middle" x="136.25" y="-401.45" font-family="Helvetica,sans-Serif" font-weight="bold" font-size="9.00">modules</text>
</g>
<g id="clust3" class="cluster">
<title>cluster_src/store</title>
<path fill="#ffffff" stroke="black" stroke-width="2" d="M100.75,-64C100.75,-64 423.5,-64 423.5,-64 429.5,-64 435.5,-70 435.5,-76 435.5,-76 435.5,-164 435.5,-164 435.5,-170 429.5,-176 423.5,-176 423.5,-176 100.75,-176 100.75,-176 94.75,-176 88.75,-170 88.75,-164 88.75,-164 88.75,-76 88.75,-76 88.75,-70 94.75,-64 100.75,-64"/>
<text text-anchor="middle" x="262.12" y="-163.45" font-family="Helvetica,sans-Serif" font-weight="bold" font-size="9.00">store</text>
</g>
<g id="clust4" class="cluster">
<title>cluster_src/templates</title>
<path fill="#ffffff" stroke="black" stroke-width="2" d="M195.75,-184C195.75,-184 280.25,-184 280.25,-184 286.25,-184 292.25,-190 292.25,-196 292.25,-196 292.25,-314 292.25,-314 292.25,-320 286.25,-326 280.25,-326 280.25,-326 195.75,-326 195.75,-326 189.75,-326 183.75,-320 183.75,-314 183.75,-314 183.75,-196 183.75,-196 183.75,-190 189.75,-184 195.75,-184"/>
<text text-anchor="middle" x="238" y="-313.45" font-family="Helvetica,sans-Serif" font-weight="bold" font-size="9.00">templates</text>
</g>
<!-- src/config.ts -->
<g id="node1" class="node">
<title>src/config.ts</title>
<g id="a_node1"><a xlink:href="src/config.ts" xlink:title="config.ts">
<path fill="#ddfeff" stroke="black" d="M351.46,-47.88C351.46,-47.88 309.29,-47.88 309.29,-47.88 306.33,-47.88 303.38,-44.92 303.38,-41.96 303.38,-41.96 303.38,-36.04 303.38,-36.04 303.38,-33.08 306.33,-30.12 309.29,-30.12 309.29,-30.12 351.46,-30.12 351.46,-30.12 354.42,-30.12 357.38,-33.08 357.38,-36.04 357.38,-36.04 357.38,-41.96 357.38,-41.96 357.38,-44.92 354.42,-47.88 351.46,-47.88"/>
<text text-anchor="start" x="313.5" y="-35.33" font-family="Helvetica,sans-Serif" font-size="9.00">config.ts</text>
</a>
</g>
</g>
<!-- src/consts.ts -->
<g id="node2" class="node">
<title>src/consts.ts</title>
<g id="a_node2"><a xlink:href="src/consts.ts" xlink:title="consts.ts">
<path fill="#ddfeff" stroke="black" d="M491.58,-60.88C491.58,-60.88 449.42,-60.88 449.42,-60.88 446.46,-60.88 443.5,-57.92 443.5,-54.96 443.5,-54.96 443.5,-49.04 443.5,-49.04 443.5,-46.08 446.46,-43.12 449.42,-43.12 449.42,-43.12 491.58,-43.12 491.58,-43.12 494.54,-43.12 497.5,-46.08 497.5,-49.04 497.5,-49.04 497.5,-54.96 497.5,-54.96 497.5,-57.92 494.54,-60.88 491.58,-60.88"/>
<text text-anchor="start" x="452.88" y="-48.33" font-family="Helvetica,sans-Serif" font-size="9.00">consts.ts</text>
</a>
</g>
</g>
<!-- src/main.ts -->
<g id="node3" class="node">
<title>src/main.ts</title>
<g id="a_node3"><a xlink:href="src/main.ts" xlink:title="main.ts">
<path fill="#ddfeff" stroke="black" d="M69.46,-357.88C69.46,-357.88 27.29,-357.88 27.29,-357.88 24.33,-357.88 21.38,-354.92 21.38,-351.96 21.38,-351.96 21.38,-346.04 21.38,-346.04 21.38,-343.08 24.33,-340.12 27.29,-340.12 27.29,-340.12 69.46,-340.12 69.46,-340.12 72.42,-340.12 75.38,-343.08 75.38,-346.04 75.38,-346.04 75.38,-351.96 75.38,-351.96 75.38,-354.92 72.42,-357.88 69.46,-357.88"/>
<text text-anchor="start" x="33.75" y="-345.32" font-family="Helvetica,sans-Serif" font-size="9.00">main.ts</text>
</a>
</g>
</g>
<!-- src/modules/control.mts -->
<g id="node4" class="node">
<title>src/modules/control.mts</title>
<g id="a_node4"><a xlink:href="src/modules/control.mts" xlink:title="control.mts">
<path fill="#ddfeff" stroke="black" d="M160.46,-357.88C160.46,-357.88 112.04,-357.88 112.04,-357.88 109.08,-357.88 106.12,-354.92 106.12,-351.96 106.12,-351.96 106.12,-346.04 106.12,-346.04 106.12,-343.08 109.08,-340.12 112.04,-340.12 112.04,-340.12 160.46,-340.12 160.46,-340.12 163.42,-340.12 166.38,-343.08 166.38,-346.04 166.38,-346.04 166.38,-351.96 166.38,-351.96 166.38,-354.92 163.42,-357.88 160.46,-357.88"/>
<text text-anchor="start" x="114.12" y="-345.32" font-family="Helvetica,sans-Serif" font-size="9.00">control.mts</text>
</a>
</g>
</g>
<!-- src/main.ts&#45;&gt;src/modules/control.mts -->
<g id="edge1" class="edge">
<title>src/main.ts&#45;&gt;src/modules/control.mts</title>
<path fill="none" stroke="#000000" stroke-width="2" stroke-opacity="0.200000" d="M75.61,-349C82.34,-349 89.71,-349 96.91,-349"/>
<polygon fill="#000000" fill-opacity="0.200000" stroke="#000000" stroke-width="2" stroke-opacity="0.200000" points="96.85,-351.1 102.85,-349 96.85,-346.9 96.85,-351.1"/>
</g>
<!-- src/modules/map.mts -->
<g id="node5" class="node">
<title>src/modules/map.mts</title>
<g id="a_node5"><a xlink:href="src/modules/map.mts" xlink:title="map.mts">
<path fill="#ddfeff" stroke="black" d="M157.33,-387.88C157.33,-387.88 115.17,-387.88 115.17,-387.88 112.21,-387.88 109.25,-384.92 109.25,-381.96 109.25,-381.96 109.25,-376.04 109.25,-376.04 109.25,-373.08 112.21,-370.12 115.17,-370.12 115.17,-370.12 157.33,-370.12 157.33,-370.12 160.29,-370.12 163.25,-373.08 163.25,-376.04 163.25,-376.04 163.25,-381.96 163.25,-381.96 163.25,-384.92 160.29,-387.88 157.33,-387.88"/>
<text text-anchor="start" x="119" y="-375.32" font-family="Helvetica,sans-Serif" font-size="9.00">map.mts</text>
</a>
</g>
</g>
<!-- src/main.ts&#45;&gt;src/modules/map.mts -->
<g id="edge2" class="edge">
<title>src/main.ts&#45;&gt;src/modules/map.mts</title>
<path fill="none" stroke="#000000" stroke-width="2" stroke-opacity="0.200000" d="M73.04,-358.24C78.2,-360.19 83.64,-362.2 88.75,-364 92.65,-365.37 96.74,-366.76 100.82,-368.12"/>
<polygon fill="#000000" fill-opacity="0.200000" stroke="#000000" stroke-width="2" stroke-opacity="0.200000" points="99.87,-370.01 106.22,-369.89 101.18,-366.02 99.87,-370.01"/>
</g>
<!-- src/style.css -->
<g id="node6" class="node">
<title>src/style.css</title>
<g id="a_node6"><a xlink:href="src/style.css" xlink:title="style.css">
<path fill="#ffffcc" stroke="black" d="M157.33,-323.88C157.33,-323.88 115.17,-323.88 115.17,-323.88 112.21,-323.88 109.25,-320.92 109.25,-317.96 109.25,-317.96 109.25,-312.04 109.25,-312.04 109.25,-309.08 112.21,-306.12 115.17,-306.12 115.17,-306.12 157.33,-306.12 157.33,-306.12 160.29,-306.12 163.25,-309.08 163.25,-312.04 163.25,-312.04 163.25,-317.96 163.25,-317.96 163.25,-320.92 160.29,-323.88 157.33,-323.88"/>
<text text-anchor="start" x="119" y="-311.32" font-family="Helvetica,sans-Serif" font-size="9.00">style.css</text>
</a>
</g>
</g>
<!-- src/main.ts&#45;&gt;src/style.css -->
<g id="edge3" class="edge">
<title>src/main.ts&#45;&gt;src/style.css</title>
<path fill="none" stroke="#000000" stroke-width="2" stroke-opacity="0.200000" d="M65.93,-339.76C72.85,-336.12 81.06,-332.08 88.75,-329 92.46,-327.51 96.39,-326.1 100.33,-324.78"/>
<polygon fill="#000000" fill-opacity="0.200000" stroke="#000000" stroke-width="2" stroke-opacity="0.200000" points="100.94,-326.79 106.02,-322.97 99.66,-322.79 100.94,-326.79"/>
</g>
<!-- src/modules/control.mts&#45;&gt;src/consts.ts -->
<g id="edge4" class="edge">
<title>src/modules/control.mts&#45;&gt;src/consts.ts</title>
<path fill="none" stroke="#000000" stroke-width="2" stroke-opacity="0.200000" d="M162.04,-358.31C193.9,-368.67 250.12,-381.45 292.25,-361 384.85,-316.04 389.41,-271.05 435.5,-179 453.72,-142.6 463.06,-95.29 467.04,-69.93"/>
<polygon fill="#000000" fill-opacity="0.200000" stroke="#000000" stroke-width="2" stroke-opacity="0.200000" points="469.11,-70.3 467.91,-64.06 464.95,-69.69 469.11,-70.3"/>
</g>
<!-- src/store/mode.ts -->
<g id="node7" class="node">
<title>src/store/mode.ts</title>
<g id="a_node7"><a xlink:href="src/store/mode.ts" xlink:title="mode.ts">
<path fill="#ddfeff" stroke="black" d="M421.58,-89.88C421.58,-89.88 379.42,-89.88 379.42,-89.88 376.46,-89.88 373.5,-86.92 373.5,-83.96 373.5,-83.96 373.5,-78.04 373.5,-78.04 373.5,-75.08 376.46,-72.12 379.42,-72.12 379.42,-72.12 421.58,-72.12 421.58,-72.12 424.54,-72.12 427.5,-75.08 427.5,-78.04 427.5,-78.04 427.5,-83.96 427.5,-83.96 427.5,-86.92 424.54,-89.88 421.58,-89.88"/>
<text text-anchor="start" x="384.38" y="-77.33" font-family="Helvetica,sans-Serif" font-size="9.00">mode.ts</text>
</a>
</g>
</g>
<!-- src/modules/control.mts&#45;&gt;src/store/mode.ts -->
<g id="edge5" class="edge">
<title>src/modules/control.mts&#45;&gt;src/store/mode.ts</title>
<path fill="none" stroke="#000000" stroke-width="2" stroke-opacity="0.200000" d="M166.82,-358.33C200.45,-366.99 255.45,-375.02 292.25,-349 366.54,-296.47 335.65,-243.52 360.5,-156 367.28,-132.11 359.16,-120.26 374.17,-97.35"/>
<polygon fill="#000000" fill-opacity="0.200000" stroke="#000000" stroke-width="2" stroke-opacity="0.200000" points="375.74,-98.77 377.55,-92.68 372.33,-96.31 375.74,-98.77"/>
</g>
<!-- src/store/route.ts -->
<g id="node8" class="node">
<title>src/store/route.ts</title>
<g id="a_node8"><a xlink:href="src/store/route.ts" xlink:title="route.ts">
<path fill="#ddfeff" stroke="black" d="M351.46,-149.88C351.46,-149.88 309.29,-149.88 309.29,-149.88 306.33,-149.88 303.38,-146.92 303.38,-143.96 303.38,-143.96 303.38,-138.04 303.38,-138.04 303.38,-135.08 306.33,-132.12 309.29,-132.12 309.29,-132.12 351.46,-132.12 351.46,-132.12 354.42,-132.12 357.38,-135.08 357.38,-138.04 357.38,-138.04 357.38,-143.96 357.38,-143.96 357.38,-146.92 354.42,-149.88 351.46,-149.88"/>
<text text-anchor="start" x="315.38" y="-137.32" font-family="Helvetica,sans-Serif" font-size="9.00">route.ts</text>
</a>
</g>
</g>
<!-- src/modules/control.mts&#45;&gt;src/store/route.ts -->
<g id="edge6" class="edge">
<title>src/modules/control.mts&#45;&gt;src/store/route.ts</title>
<path fill="none" stroke="#000000" stroke-width="2" stroke-opacity="0.200000" d="M166.65,-351.21C206.37,-353.53 274.29,-354.91 292.25,-339 319.02,-315.28 326.71,-203.08 328.72,-158.92"/>
<polygon fill="#000000" fill-opacity="0.200000" stroke="#000000" stroke-width="2" stroke-opacity="0.200000" points="330.81,-159.24 328.96,-153.16 326.61,-159.06 330.81,-159.24"/>
</g>
<!-- src/store/traversal.ts -->
<g id="node9" class="node">
<title>src/store/traversal.ts</title>
<g id="a_node9"><a xlink:href="src/store/traversal.ts" xlink:title="traversal.ts">
<path fill="#ddfeff" stroke="black" d="M354.58,-119.88C354.58,-119.88 306.17,-119.88 306.17,-119.88 303.21,-119.88 300.25,-116.92 300.25,-113.96 300.25,-113.96 300.25,-108.04 300.25,-108.04 300.25,-105.08 303.21,-102.12 306.17,-102.12 306.17,-102.12 354.58,-102.12 354.58,-102.12 357.54,-102.12 360.5,-105.08 360.5,-108.04 360.5,-108.04 360.5,-113.96 360.5,-113.96 360.5,-116.92 357.54,-119.88 354.58,-119.88"/>
<text text-anchor="start" x="308.25" y="-107.33" font-family="Helvetica,sans-Serif" font-size="9.00">traversal.ts</text>
</a>
</g>
</g>
<!-- src/modules/control.mts&#45;&gt;src/store/traversal.ts -->
<g id="edge7" class="edge">
<title>src/modules/control.mts&#45;&gt;src/store/traversal.ts</title>
<path fill="none" stroke="#000000" stroke-width="2" stroke-opacity="0.200000" d="M166.7,-342.88C172.34,-341.83 178.22,-340.81 183.75,-340 207.73,-336.47 275.65,-346.66 292.25,-329 306.5,-313.84 290.97,-170.29 302.13,-128.55"/>
<polygon fill="#000000" fill-opacity="0.200000" stroke="#000000" stroke-width="2" stroke-opacity="0.200000" points="304.04,-129.41 304.41,-123.06 300.16,-127.79 304.04,-129.41"/>
</g>
<!-- src/templates/control.hbs -->
<g id="node10" class="node">
<title>src/templates/control.hbs</title>
<g id="a_node10"><a xlink:href="src/templates/control.hbs" xlink:title="control.hbs">
<path fill="#ffffcc" stroke="black" d="M262.58,-239.88C262.58,-239.88 213.42,-239.88 213.42,-239.88 210.46,-239.88 207.5,-236.92 207.5,-233.96 207.5,-233.96 207.5,-228.04 207.5,-228.04 207.5,-225.08 210.46,-222.12 213.42,-222.12 213.42,-222.12 262.58,-222.12 262.58,-222.12 265.54,-222.12 268.5,-225.08 268.5,-228.04 268.5,-228.04 268.5,-233.96 268.5,-233.96 268.5,-236.92 265.54,-239.88 262.58,-239.88"/>
<text text-anchor="start" x="215.5" y="-227.32" font-family="Helvetica,sans-Serif" font-size="9.00">control.hbs</text>
</a>
</g>
</g>
<!-- src/modules/control.mts&#45;&gt;src/templates/control.hbs -->
<g id="edge8" class="edge">
<title>src/modules/control.mts&#45;&gt;src/templates/control.hbs</title>
<path fill="none" stroke="#000000" stroke-width="2" stroke-opacity="0.200000" d="M166.55,-343.28C170.09,-341.47 173.31,-339.1 175.75,-336 188.17,-320.22 170.93,-261.45 183.75,-246 187.66,-241.28 192.94,-237.98 198.65,-235.69"/>
<polygon fill="#000000" fill-opacity="0.200000" stroke="#000000" stroke-width="2" stroke-opacity="0.200000" points="199.23,-237.71 204.33,-233.91 197.98,-233.7 199.23,-237.71"/>
</g>
<!-- src/templates/routePanel.hbs -->
<g id="node11" class="node">
<title>src/templates/routePanel.hbs</title>
<g id="a_node11"><a xlink:href="src/templates/routePanel.hbs" xlink:title="routePanel.hbs">
<path fill="#ffffcc" stroke="black" d="M271.21,-269.88C271.21,-269.88 204.79,-269.88 204.79,-269.88 201.83,-269.88 198.88,-266.92 198.88,-263.96 198.88,-263.96 198.88,-258.04 198.88,-258.04 198.88,-255.08 201.83,-252.12 204.79,-252.12 204.79,-252.12 271.21,-252.12 271.21,-252.12 274.17,-252.12 277.12,-255.08 277.12,-258.04 277.12,-258.04 277.12,-263.96 277.12,-263.96 277.12,-266.92 274.17,-269.88 271.21,-269.88"/>
<text text-anchor="start" x="206.88" y="-257.32" font-family="Helvetica,sans-Serif" font-size="9.00">routePanel.hbs</text>
</a>
</g>
</g>
<!-- src/modules/control.mts&#45;&gt;src/templates/routePanel.hbs -->
<g id="edge9" class="edge">
<title>src/modules/control.mts&#45;&gt;src/templates/routePanel.hbs</title>
<path fill="none" stroke="#000000" stroke-width="2" stroke-opacity="0.200000" d="M166.81,-342.98C170.22,-341.22 173.33,-338.94 175.75,-336 192.85,-315.23 166.12,-296.32 183.75,-276 185.86,-273.57 188.32,-271.52 191.02,-269.79"/>
<polygon fill="#000000" fill-opacity="0.200000" stroke="#000000" stroke-width="2" stroke-opacity="0.200000" points="191.51,-271.9 195.9,-267.3 189.6,-268.16 191.51,-271.9"/>
</g>
<!-- src/templates/traversalPanel.hbs -->
<g id="node12" class="node">
<title>src/templates/traversalPanel.hbs</title>
<g id="a_node12"><a xlink:href="src/templates/traversalPanel.hbs" xlink:title="traversalPanel.hbs">
<path fill="#ffffcc" stroke="black" d="M278.33,-299.88C278.33,-299.88 197.67,-299.88 197.67,-299.88 194.71,-299.88 191.75,-296.92 191.75,-293.96 191.75,-293.96 191.75,-288.04 191.75,-288.04 191.75,-285.08 194.71,-282.12 197.67,-282.12 197.67,-282.12 278.33,-282.12 278.33,-282.12 281.29,-282.12 284.25,-285.08 284.25,-288.04 284.25,-288.04 284.25,-293.96 284.25,-293.96 284.25,-296.92 281.29,-299.88 278.33,-299.88"/>
<text text-anchor="start" x="199.75" y="-287.32" font-family="Helvetica,sans-Serif" font-size="9.00">traversalPanel.hbs</text>
</a>
</g>
</g>
<!-- src/modules/control.mts&#45;&gt;src/templates/traversalPanel.hbs -->
<g id="edge10" class="edge">
<title>src/modules/control.mts&#45;&gt;src/templates/traversalPanel.hbs</title>
<path fill="none" stroke="#000000" stroke-width="2" stroke-opacity="0.200000" d="M166.66,-340.13C169.78,-338.88 172.87,-337.5 175.75,-336 180.27,-333.65 201.61,-317.77 217.84,-305.54"/>
<polygon fill="#000000" fill-opacity="0.200000" stroke="#000000" stroke-width="2" stroke-opacity="0.200000" points="218.92,-307.35 222.44,-302.06 216.39,-304 218.92,-307.35"/>
</g>
<!-- src/modules/map.mts&#45;&gt;src/store/route.ts -->
<g id="edge13" class="edge">
<title>src/modules/map.mts&#45;&gt;src/store/route.ts</title>
<path fill="none" stroke="#000000" stroke-width="2" stroke-opacity="0.200000" d="M155.09,-388.34C186.82,-403.52 253.37,-428.61 292.25,-395 327.8,-364.27 329.97,-211.77 329.63,-159.01"/>
<polygon fill="#000000" fill-opacity="0.200000" stroke="#000000" stroke-width="2" stroke-opacity="0.200000" points="331.74,-159.11 329.58,-153.13 327.54,-159.15 331.74,-159.11"/>
</g>
<!-- src/modules/map.mts&#45;&gt;src/store/traversal.ts -->
<g id="edge14" class="edge">
<title>src/modules/map.mts&#45;&gt;src/store/traversal.ts</title>
<path fill="none" stroke="#000000" stroke-width="2" stroke-opacity="0.200000" d="M163.63,-380.69C199.15,-381.34 261.46,-376.47 292.25,-338 305.86,-321 290.35,-171.45 302.08,-128.56"/>
<polygon fill="#000000" fill-opacity="0.200000" stroke="#000000" stroke-width="2" stroke-opacity="0.200000" points="304.01,-129.4 304.39,-123.06 300.13,-127.77 304.01,-129.4"/>
</g>
<!-- src/store/featureGroup.ts -->
<g id="node13" class="node">
<title>src/store/featureGroup.ts</title>
<g id="a_node13"><a xlink:href="src/store/featureGroup.ts" xlink:title="featureGroup.ts">
<path fill="#ddfeff" stroke="black" d="M169.83,-116.88C169.83,-116.88 102.67,-116.88 102.67,-116.88 99.71,-116.88 96.75,-113.92 96.75,-110.96 96.75,-110.96 96.75,-105.04 96.75,-105.04 96.75,-102.08 99.71,-99.12 102.67,-99.12 102.67,-99.12 169.83,-99.12 169.83,-99.12 172.79,-99.12 175.75,-102.08 175.75,-105.04 175.75,-105.04 175.75,-110.96 175.75,-110.96 175.75,-113.92 172.79,-116.88 169.83,-116.88"/>
<text text-anchor="start" x="104.75" y="-104.33" font-family="Helvetica,sans-Serif" font-size="9.00">featureGroup.ts</text>
</a>
</g>
</g>
<!-- src/modules/map.mts&#45;&gt;src/store/featureGroup.ts -->
<g id="edge11" class="edge">
<title>src/modules/map.mts&#45;&gt;src/store/featureGroup.ts</title>
<path fill="none" stroke="#000000" stroke-width="2" stroke-opacity="0.200000" d="M108.95,-376.44C98.32,-373.76 87.91,-368.44 84.75,-358 81.03,-345.72 81.03,-139.28 84.75,-127 85.66,-123.99 87.19,-121.44 89.17,-119.28"/>
<polygon fill="#000000" fill-opacity="0.200000" stroke="#000000" stroke-width="2" stroke-opacity="0.200000" points="90.33,-121.04 93.85,-115.74 87.8,-117.69 90.33,-121.04"/>
</g>
<!-- src/store/map.ts -->
<g id="node14" class="node">
<title>src/store/map.ts</title>
<g id="a_node14"><a xlink:href="src/store/map.ts" xlink:title="map.ts">
<path fill="#ddfeff" stroke="black" d="M421.58,-149.88C421.58,-149.88 379.42,-149.88 379.42,-149.88 376.46,-149.88 373.5,-146.92 373.5,-143.96 373.5,-143.96 373.5,-138.04 373.5,-138.04 373.5,-135.08 376.46,-132.12 379.42,-132.12 379.42,-132.12 421.58,-132.12 421.58,-132.12 424.54,-132.12 427.5,-135.08 427.5,-138.04 427.5,-138.04 427.5,-143.96 427.5,-143.96 427.5,-146.92 424.54,-149.88 421.58,-149.88"/>
<text text-anchor="start" x="387" y="-137.32" font-family="Helvetica,sans-Serif" font-size="9.00">map.ts</text>
</a>
</g>
</g>
<!-- src/modules/map.mts&#45;&gt;src/store/map.ts -->
<g id="edge12" class="edge">
<title>src/modules/map.mts&#45;&gt;src/store/map.ts</title>
<path fill="none" stroke="#000000" stroke-width="2" stroke-opacity="0.200000" d="M148.66,-388.3C157.6,-394.96 170.68,-403.37 183.75,-407 261.35,-428.56 314.64,-433.21 360.5,-367 383.94,-333.16 394.96,-206.52 398.33,-159.09"/>
<polygon fill="#000000" fill-opacity="0.200000" stroke="#000000" stroke-width="2" stroke-opacity="0.200000" points="400.41,-159.38 398.73,-153.25 396.22,-159.1 400.41,-159.38"/>
</g>
<!-- src/store/mode.ts&#45;&gt;src/consts.ts -->
<g id="edge25" class="edge">
<title>src/store/mode.ts&#45;&gt;src/consts.ts</title>
<path fill="none" stroke="#000000" stroke-width="2" stroke-opacity="0.200000" d="M426.47,-71.7C429.52,-70.49 432.59,-69.24 435.5,-68 437.81,-67.02 440.19,-65.97 442.57,-64.9"/>
<polygon fill="#000000" fill-opacity="0.200000" stroke="#000000" stroke-width="2" stroke-opacity="0.200000" points="443.23,-66.91 447.8,-62.49 441.47,-63.09 443.23,-66.91"/>
</g>
<!-- src/store/route.ts&#45;&gt;src/consts.ts -->
<g id="edge26" class="edge">
<title>src/store/route.ts&#45;&gt;src/consts.ts</title>
<path fill="none" stroke="#000000" stroke-width="2" stroke-opacity="0.200000" d="M354.52,-131.67C356.78,-130.05 358.84,-128.17 360.5,-126 377.11,-104.35 353.56,-84.62 373.5,-66 382.23,-57.85 410.77,-54.43 434.48,-53"/>
<polygon fill="#000000" fill-opacity="0.200000" stroke="#000000" stroke-width="2" stroke-opacity="0.200000" points="434.37,-55.11 440.26,-52.71 434.16,-50.92 434.37,-55.11"/>
</g>
<!-- src/store/route.ts&#45;&gt;src/store/mode.ts -->
<g id="edge29" class="edge">
<title>src/store/route.ts&#45;&gt;src/store/mode.ts</title>
<path fill="none" stroke="#000000" stroke-width="2" stroke-opacity="0.200000" d="M353.53,-131.72C356.08,-130.06 358.48,-128.16 360.5,-126 368.95,-116.96 365.42,-109.43 374.16,-97.21"/>
<polygon fill="#000000" fill-opacity="0.200000" stroke="#000000" stroke-width="2" stroke-opacity="0.200000" points="375.74,-98.6 378.02,-92.66 372.54,-95.88 375.74,-98.6"/>
</g>
<!-- src/store/route.ts&#45;&gt;src/store/map.ts -->
<g id="edge27" class="edge">
<title>src/store/route.ts&#45;&gt;src/store/map.ts</title>
<path fill="none" stroke="#000000" stroke-width="2" stroke-opacity="0.200000" d="M357.52,-141C359.75,-141 362.03,-141 364.32,-141"/>
<polygon fill="#000000" fill-opacity="0.200000" stroke="#000000" stroke-width="2" stroke-opacity="0.200000" points="364.06,-143.1 370.06,-141 364.06,-138.9 364.06,-143.1"/>
</g>
<!-- src/store/marker.ts -->
<g id="node17" class="node">
<title>src/store/marker.ts</title>
<g id="a_node17"><a xlink:href="src/store/marker.ts" xlink:title="marker.ts">
<path fill="#ddfeff" stroke="black" d="M421.58,-119.88C421.58,-119.88 379.42,-119.88 379.42,-119.88 376.46,-119.88 373.5,-116.92 373.5,-113.96 373.5,-113.96 373.5,-108.04 373.5,-108.04 373.5,-105.08 376.46,-102.12 379.42,-102.12 379.42,-102.12 421.58,-102.12 421.58,-102.12 424.54,-102.12 427.5,-105.08 427.5,-108.04 427.5,-108.04 427.5,-113.96 427.5,-113.96 427.5,-116.92 424.54,-119.88 421.58,-119.88"/>
<text text-anchor="start" x="381.75" y="-107.33" font-family="Helvetica,sans-Serif" font-size="9.00">marker.ts</text>
</a>
</g>
</g>
<!-- src/store/route.ts&#45;&gt;src/store/marker.ts -->
<g id="edge28" class="edge">
<title>src/store/route.ts&#45;&gt;src/store/marker.ts</title>
<path fill="none" stroke="#000000" stroke-width="2" stroke-opacity="0.200000" d="M352.56,-131.67C358.25,-129.17 364.51,-126.41 370.54,-123.75"/>
<polygon fill="#000000" fill-opacity="0.200000" stroke="#000000" stroke-width="2" stroke-opacity="0.200000" points="371.15,-125.78 375.79,-121.44 369.46,-121.94 371.15,-125.78"/>
</g>
<!-- src/store/traversal.ts&#45;&gt;src/consts.ts -->
<g id="edge30" class="edge">
<title>src/store/traversal.ts&#45;&gt;src/consts.ts</title>
<path fill="none" stroke="#000000" stroke-width="2" stroke-opacity="0.200000" d="M356.29,-101.81C357.83,-100.68 359.26,-99.41 360.5,-98 373.7,-83.02 357.66,-67.15 373.5,-55 390.48,-41.98 414.57,-41.26 434.36,-43.78"/>
<polygon fill="#000000" fill-opacity="0.200000" stroke="#000000" stroke-width="2" stroke-opacity="0.200000" points="433.87,-45.83 440.12,-44.67 434.51,-41.68 433.87,-45.83"/>
</g>
<!-- src/store/traversal.ts&#45;&gt;src/store/mode.ts -->
<g id="edge33" class="edge">
<title>src/store/traversal.ts&#45;&gt;src/store/mode.ts</title>
<path fill="none" stroke="#000000" stroke-width="2" stroke-opacity="0.200000" d="M352.56,-101.67C358.25,-99.17 364.51,-96.41 370.54,-93.75"/>
<polygon fill="#000000" fill-opacity="0.200000" stroke="#000000" stroke-width="2" stroke-opacity="0.200000" points="371.15,-95.78 375.79,-91.44 369.46,-91.94 371.15,-95.78"/>
</g>
<!-- src/store/traversal.ts&#45;&gt;src/store/map.ts -->
<g id="edge31" class="edge">
<title>src/store/traversal.ts&#45;&gt;src/store/map.ts</title>
<path fill="none" stroke="#000000" stroke-width="2" stroke-opacity="0.200000" d="M352.56,-120.33C358.25,-122.83 364.51,-125.59 370.54,-128.25"/>
<polygon fill="#000000" fill-opacity="0.200000" stroke="#000000" stroke-width="2" stroke-opacity="0.200000" points="369.46,-130.06 375.79,-130.56 371.15,-126.22 369.46,-130.06"/>
</g>
<!-- src/store/traversal.ts&#45;&gt;src/store/marker.ts -->
<g id="edge32" class="edge">
<title>src/store/traversal.ts&#45;&gt;src/store/marker.ts</title>
<path fill="none" stroke="#000000" stroke-width="2" stroke-opacity="0.200000" d="M360.66,-111C361.97,-111 363.29,-111 364.6,-111"/>
<polygon fill="#000000" fill-opacity="0.200000" stroke="#000000" stroke-width="2" stroke-opacity="0.200000" points="364.22,-113.1 370.22,-111 364.22,-108.9 364.22,-113.1"/>
</g>
<!-- src/store/featureGroup.ts&#45;&gt;src/consts.ts -->
<g id="edge15" class="edge">
<title>src/store/featureGroup.ts&#45;&gt;src/consts.ts</title>
<path fill="none" stroke="#000000" stroke-width="2" stroke-opacity="0.200000" d="M145.72,-98.75C154.5,-89.63 168.96,-75.83 183.75,-67 231.14,-38.71 245.92,-33.71 300.25,-24 359.48,-13.42 378.52,-10.67 435.5,-30 440.92,-31.84 446.33,-34.73 451.19,-37.82"/>
<polygon fill="#000000" fill-opacity="0.200000" stroke="#000000" stroke-width="2" stroke-opacity="0.200000" points="449.66,-39.32 455.8,-41 452.05,-35.87 449.66,-39.32"/>
</g>
<!-- src/store/featureGroup.ts&#45;&gt;src/store/mode.ts -->
<g id="edge18" class="edge">
<title>src/store/featureGroup.ts&#45;&gt;src/store/mode.ts</title>
<path fill="none" stroke="#000000" stroke-width="2" stroke-opacity="0.200000" d="M149.53,-98.85C158.49,-92.76 171.23,-85.29 183.75,-82 245.64,-65.72 321.01,-70.72 364.31,-75.85"/>
<polygon fill="#000000" fill-opacity="0.200000" stroke="#000000" stroke-width="2" stroke-opacity="0.200000" points="363.83,-77.91 370.04,-76.57 364.35,-73.74 363.83,-77.91"/>
</g>
<!-- src/store/featureGroup.ts&#45;&gt;src/store/traversal.ts -->
<g id="edge19" class="edge">
<title>src/store/featureGroup.ts&#45;&gt;src/store/traversal.ts</title>
<path fill="none" stroke="#000000" stroke-width="2" stroke-opacity="0.200000" d="M176.05,-111.59C178.66,-111.75 181.24,-111.89 183.75,-112 229.29,-113.96 242.6,-112.79 291.02,-112"/>
<polygon fill="#000000" fill-opacity="0.200000" stroke="#000000" stroke-width="2" stroke-opacity="0.200000" points="290.8,-114.11 296.76,-111.91 290.73,-109.91 290.8,-114.11"/>
</g>
<!-- src/templates/debugPopup.hbs -->
<g id="node15" class="node">
<title>src/templates/debugPopup.hbs</title>
<g id="a_node15"><a xlink:href="src/templates/debugPopup.hbs" xlink:title="debugPopup.hbs">
<path fill="#ffffcc" stroke="black" d="M275.33,-209.88C275.33,-209.88 200.67,-209.88 200.67,-209.88 197.71,-209.88 194.75,-206.92 194.75,-203.96 194.75,-203.96 194.75,-198.04 194.75,-198.04 194.75,-195.08 197.71,-192.12 200.67,-192.12 200.67,-192.12 275.33,-192.12 275.33,-192.12 278.29,-192.12 281.25,-195.08 281.25,-198.04 281.25,-198.04 281.25,-203.96 281.25,-203.96 281.25,-206.92 278.29,-209.88 275.33,-209.88"/>
<text text-anchor="start" x="202.75" y="-197.32" font-family="Helvetica,sans-Serif" font-size="9.00">debugPopup.hbs</text>
</a>
</g>
</g>
<!-- src/store/featureGroup.ts&#45;&gt;src/templates/debugPopup.hbs -->
<g id="edge16" class="edge">
<title>src/store/featureGroup.ts&#45;&gt;src/templates/debugPopup.hbs</title>
<path fill="none" stroke="#000000" stroke-width="2" stroke-opacity="0.200000" d="M171.81,-117.2C173.25,-118.33 174.58,-119.59 175.75,-121 192.34,-141.05 167.84,-158.41 183.75,-179 186.19,-182.16 189.16,-184.86 192.44,-187.19"/>
<polygon fill="#000000" fill-opacity="0.200000" stroke="#000000" stroke-width="2" stroke-opacity="0.200000" points="191.19,-188.88 197.42,-190.13 193.33,-185.27 191.19,-188.88"/>
</g>
<!-- src/store/geojson.ts -->
<g id="node16" class="node">
<title>src/store/geojson.ts</title>
<g id="a_node16"><a xlink:href="src/store/geojson.ts" xlink:title="geojson.ts">
<path fill="#ddfeff" stroke="black" d="M261.08,-105.88C261.08,-105.88 214.92,-105.88 214.92,-105.88 211.96,-105.88 209,-102.92 209,-99.96 209,-99.96 209,-94.04 209,-94.04 209,-91.08 211.96,-88.12 214.92,-88.12 214.92,-88.12 261.08,-88.12 261.08,-88.12 264.04,-88.12 267,-91.08 267,-94.04 267,-94.04 267,-99.96 267,-99.96 267,-102.92 264.04,-105.88 261.08,-105.88"/>
<text text-anchor="start" x="217" y="-93.33" font-family="Helvetica,sans-Serif" font-size="9.00">geojson.ts</text>
</a>
</g>
</g>
<!-- src/store/featureGroup.ts&#45;&gt;src/store/geojson.ts -->
<g id="edge17" class="edge">
<title>src/store/featureGroup.ts&#45;&gt;src/store/geojson.ts</title>
<path fill="none" stroke="#000000" stroke-width="2" stroke-opacity="0.200000" d="M176.1,-103.72C183.89,-102.86 192.05,-101.96 199.78,-101.1"/>
<polygon fill="#000000" fill-opacity="0.200000" stroke="#000000" stroke-width="2" stroke-opacity="0.200000" points="199.86,-103.21 205.59,-100.46 199.4,-99.03 199.86,-103.21"/>
</g>
<!-- src/store/geojson.ts&#45;&gt;src/config.ts -->
<g id="edge20" class="edge">
<title>src/store/geojson.ts&#45;&gt;src/config.ts</title>
<path fill="none" stroke="#000000" stroke-width="2" stroke-opacity="0.200000" d="M267.37,-95.55C276.3,-93.77 285.57,-90.37 292.25,-84 301.31,-75.37 292.65,-66.94 300.25,-57 301.06,-55.94 301.96,-54.92 302.91,-53.96"/>
<polygon fill="#000000" fill-opacity="0.200000" stroke="#000000" stroke-width="2" stroke-opacity="0.200000" points="304.23,-55.59 307.55,-50.17 301.57,-52.34 304.23,-55.59"/>
</g>
<!-- src/store/geojson.ts&#45;&gt;src/consts.ts -->
<g id="edge21" class="edge">
<title>src/store/geojson.ts&#45;&gt;src/consts.ts</title>
<path fill="none" stroke="#000000" stroke-width="2" stroke-opacity="0.200000" d="M267.45,-91.03C275.55,-89.06 284.32,-86.69 292.25,-84 323.63,-73.36 333.83,-73.67 360.5,-54 367.6,-48.76 365.48,-42.66 373.5,-39 394.33,-29.49 420.16,-33.77 439.77,-39.87"/>
<polygon fill="#000000" fill-opacity="0.200000" stroke="#000000" stroke-width="2" stroke-opacity="0.200000" points="439.09,-41.85 445.44,-41.78 440.43,-37.87 439.09,-41.85"/>
</g>
<!-- src/store/geojson.ts&#45;&gt;src/store/mode.ts -->
<g id="edge22" class="edge">
<title>src/store/geojson.ts&#45;&gt;src/store/mode.ts</title>
<path fill="none" stroke="#000000" stroke-width="2" stroke-opacity="0.200000" d="M267.32,-94.18C294.4,-91.48 335.3,-87.4 364.42,-84.5"/>
<polygon fill="#000000" fill-opacity="0.200000" stroke="#000000" stroke-width="2" stroke-opacity="0.200000" points="364.28,-86.62 370.04,-83.94 363.86,-82.44 364.28,-86.62"/>
</g>
<!-- src/store/geojson.ts&#45;&gt;src/store/route.ts -->
<g id="edge23" class="edge">
<title>src/store/geojson.ts&#45;&gt;src/store/route.ts</title>
<path fill="none" stroke="#000000" stroke-width="2" stroke-opacity="0.200000" d="M258.17,-106.33C270.99,-112.57 288.05,-120.88 302.25,-127.8"/>
<polygon fill="#000000" fill-opacity="0.200000" stroke="#000000" stroke-width="2" stroke-opacity="0.200000" points="301.2,-129.62 307.51,-130.36 303.04,-125.84 301.2,-129.62"/>
</g>
<!-- src/store/geojson.ts&#45;&gt;src/store/traversal.ts -->
<g id="edge24" class="edge">
<title>src/store/geojson.ts&#45;&gt;src/store/traversal.ts</title>
<path fill="none" stroke="#000000" stroke-width="2" stroke-opacity="0.200000" d="M267.1,-101.35C274.7,-102.53 283.07,-103.83 291.13,-105.07"/>
<polygon fill="#000000" fill-opacity="0.200000" stroke="#000000" stroke-width="2" stroke-opacity="0.200000" points="290.8,-107.15 297.05,-105.99 291.44,-103 290.8,-107.15"/>
</g>
<!-- src/vite&#45;env.d.ts -->
<g id="node18" class="node">
<title>src/vite&#45;env.d.ts</title>
<g id="a_node18"><a xlink:href="src/vite-env.d.ts" xlink:title="vite&#45;env.d.ts">
<path fill="#ccffcc" stroke="black" d="M74.83,-403.88C74.83,-403.88 21.92,-403.88 21.92,-403.88 18.96,-403.88 16,-400.92 16,-397.96 16,-397.96 16,-392.04 16,-392.04 16,-389.08 18.96,-386.12 21.92,-386.12 21.92,-386.12 74.83,-386.12 74.83,-386.12 77.79,-386.12 80.75,-389.08 80.75,-392.04 80.75,-392.04 80.75,-397.96 80.75,-397.96 80.75,-400.92 77.79,-403.88 74.83,-403.88"/>
<text text-anchor="start" x="24" y="-391.32" font-family="Helvetica,sans-Serif" font-size="9.00">vite&#45;env.d.ts</text>
</a>
</g>
</g>
</g>
</svg>
