<?xml version="1.0" encoding="UTF-8" standalone="no"?>
<!DOCTYPE svg PUBLIC "-//W3C//DTD SVG 1.1//EN"
 "http://www.w3.org/Graphics/SVG/1.1/DTD/svg11.dtd">
<!-- Generated by graphviz version 10.0.1 (20240210.2158)
 -->
<!-- Title: dependency&#45;cruiser output Pages: 1 -->
<svg width="612pt" height="424pt"
 viewBox="0.00 0.00 611.50 424.00" xmlns="http://www.w3.org/2000/svg" xmlns:xlink="http://www.w3.org/1999/xlink">
<g id="graph0" class="graph" transform="scale(1 1) rotate(0) translate(4 420)">
<title>dependency&#45;cruiser output</title>
<polygon fill="white" stroke="none" points="-4,4 -4,-420 607.5,-420 607.5,4 -4,4"/>
<g id="clust1" class="cluster">
<title>cluster_src</title>
<path fill="#ffffff" stroke="black" stroke-width="2" d="M20,-8C20,-8 583.5,-8 583.5,-8 589.5,-8 595.5,-14 595.5,-20 595.5,-20 595.5,-396 595.5,-396 595.5,-402 589.5,-408 583.5,-408 583.5,-408 20,-408 20,-408 14,-408 8,-402 8,-396 8,-396 8,-20 8,-20 8,-14 14,-8 20,-8"/>
<text text-anchor="middle" x="301.75" y="-395.45" font-family="Helvetica,sans-Serif" font-weight="bold" font-size="9.00">src</text>
</g>
<g id="clust2" class="cluster">
<title>cluster_src/components</title>
<path fill="#ffffff" stroke="black" stroke-width="2" d="M283.5,-54C283.5,-54 372.5,-54 372.5,-54 378.5,-54 384.5,-60 384.5,-66 384.5,-66 384.5,-154 384.5,-154 384.5,-160 378.5,-166 372.5,-166 372.5,-166 283.5,-166 283.5,-166 277.5,-166 271.5,-160 271.5,-154 271.5,-154 271.5,-66 271.5,-66 271.5,-60 277.5,-54 283.5,-54"/>
<text text-anchor="middle" x="328" y="-153.45" font-family="Helvetica,sans-Serif" font-weight="bold" font-size="9.00">components</text>
</g>
<g id="clust3" class="cluster">
<title>cluster_src/modules</title>
<path fill="#ffffff" stroke="black" stroke-width="2" d="M100.75,-24C100.75,-24 181.5,-24 181.5,-24 187.5,-24 193.5,-30 193.5,-36 193.5,-36 193.5,-124 193.5,-124 193.5,-130 187.5,-136 181.5,-136 181.5,-136 100.75,-136 100.75,-136 94.75,-136 88.75,-130 88.75,-124 88.75,-124 88.75,-36 88.75,-36 88.75,-30 94.75,-24 100.75,-24"/>
<text text-anchor="middle" x="141.12" y="-123.45" font-family="Helvetica,sans-Serif" font-weight="bold" font-size="9.00">modules</text>
</g>
<g id="clust4" class="cluster">
<title>cluster_src/store</title>
<path fill="#ffffff" stroke="black" stroke-width="2" d="M213.5,-174C213.5,-174 513.5,-174 513.5,-174 519.5,-174 525.5,-180 525.5,-186 525.5,-186 525.5,-316 525.5,-316 525.5,-322 519.5,-328 513.5,-328 513.5,-328 213.5,-328 213.5,-328 207.5,-328 201.5,-322 201.5,-316 201.5,-316 201.5,-186 201.5,-186 201.5,-180 207.5,-174 213.5,-174"/>
<text text-anchor="middle" x="363.5" y="-315.45" font-family="Helvetica,sans-Serif" font-weight="bold" font-size="9.00">store</text>
</g>
<!-- src/components/CostPanel.svelte -->
<g id="node1" class="node">
<title>src/components/CostPanel.svelte</title>
<g id="a_node1"><a xlink:href="src/components/CostPanel.svelte" xlink:title="CostPanel.svelte">
<path fill="#febbff" stroke="black" d="M364.58,-79.88C364.58,-79.88 291.42,-79.88 291.42,-79.88 288.46,-79.88 285.5,-76.92 285.5,-73.96 285.5,-73.96 285.5,-68.04 285.5,-68.04 285.5,-65.08 288.46,-62.12 291.42,-62.12 291.42,-62.12 364.58,-62.12 364.58,-62.12 367.54,-62.12 370.5,-65.08 370.5,-68.04 370.5,-68.04 370.5,-73.96 370.5,-73.96 370.5,-76.92 367.54,-79.88 364.58,-79.88"/>
<text text-anchor="start" x="293.5" y="-67.33" font-family="Helvetica,sans-Serif" font-size="9.00">CostPanel.svelte</text>
</a>
</g>
</g>
<!-- src/components/DebugPopup.svelte -->
<g id="node2" class="node">
<title>src/components/DebugPopup.svelte</title>
<g id="a_node2"><a xlink:href="src/components/DebugPopup.svelte" xlink:title="DebugPopup.svelte">
<path fill="#febbff" stroke="black" d="M370.58,-139.88C370.58,-139.88 285.42,-139.88 285.42,-139.88 282.46,-139.88 279.5,-136.92 279.5,-133.96 279.5,-133.96 279.5,-128.04 279.5,-128.04 279.5,-125.08 282.46,-122.12 285.42,-122.12 285.42,-122.12 370.58,-122.12 370.58,-122.12 373.54,-122.12 376.5,-125.08 376.5,-128.04 376.5,-128.04 376.5,-133.96 376.5,-133.96 376.5,-136.92 373.54,-139.88 370.58,-139.88"/>
<text text-anchor="start" x="287.5" y="-127.33" font-family="Helvetica,sans-Serif" font-size="9.00">DebugPopup.svelte</text>
</a>
</g>
</g>
<!-- src/components/ModePanel.svelte -->
<g id="node3" class="node">
<title>src/components/ModePanel.svelte</title>
<g id="a_node3"><a xlink:href="src/components/ModePanel.svelte" xlink:title="ModePanel.svelte">
<path fill="#febbff" stroke="black" d="M366.83,-109.88C366.83,-109.88 289.17,-109.88 289.17,-109.88 286.21,-109.88 283.25,-106.92 283.25,-103.96 283.25,-103.96 283.25,-98.04 283.25,-98.04 283.25,-95.08 286.21,-92.12 289.17,-92.12 289.17,-92.12 366.83,-92.12 366.83,-92.12 369.79,-92.12 372.75,-95.08 372.75,-98.04 372.75,-98.04 372.75,-103.96 372.75,-103.96 372.75,-106.92 369.79,-109.88 366.83,-109.88"/>
<text text-anchor="start" x="291.25" y="-97.33" font-family="Helvetica,sans-Serif" font-size="9.00">ModePanel.svelte</text>
</a>
</g>
</g>
<!-- src/config.ts -->
<g id="node4" class="node">
<title>src/config.ts</title>
<g id="a_node4"><a xlink:href="src/config.ts" xlink:title="config.ts">
<path fill="#ddfeff" stroke="black" d="M442.58,-353.88C442.58,-353.88 400.42,-353.88 400.42,-353.88 397.46,-353.88 394.5,-350.92 394.5,-347.96 394.5,-347.96 394.5,-342.04 394.5,-342.04 394.5,-339.08 397.46,-336.12 400.42,-336.12 400.42,-336.12 442.58,-336.12 442.58,-336.12 445.54,-336.12 448.5,-339.08 448.5,-342.04 448.5,-342.04 448.5,-347.96 448.5,-347.96 448.5,-350.92 445.54,-353.88 442.58,-353.88"/>
<text text-anchor="start" x="404.62" y="-341.32" font-family="Helvetica,sans-Serif" font-size="9.00">config.ts</text>
</a>
</g>
</g>
<!-- src/consts.ts -->
<g id="node5" class="node">
<title>src/consts.ts</title>
<g id="a_node5"><a xlink:href="src/consts.ts" xlink:title="consts.ts">
<path fill="#ddfeff" stroke="black" d="M581.58,-302.88C581.58,-302.88 539.42,-302.88 539.42,-302.88 536.46,-302.88 533.5,-299.92 533.5,-296.96 533.5,-296.96 533.5,-291.04 533.5,-291.04 533.5,-288.08 536.46,-285.12 539.42,-285.12 539.42,-285.12 581.58,-285.12 581.58,-285.12 584.54,-285.12 587.5,-288.08 587.5,-291.04 587.5,-291.04 587.5,-296.96 587.5,-296.96 587.5,-299.92 584.54,-302.88 581.58,-302.88"/>
<text text-anchor="start" x="542.88" y="-290.32" font-family="Helvetica,sans-Serif" font-size="9.00">consts.ts</text>
</a>
</g>
</g>
<!-- src/main.ts -->
<g id="node6" class="node">
<title>src/main.ts</title>
<g id="a_node6"><a xlink:href="src/main.ts" xlink:title="main.ts">
<path fill="#ddfeff" stroke="black" d="M69.46,-94.88C69.46,-94.88 27.29,-94.88 27.29,-94.88 24.33,-94.88 21.38,-91.92 21.38,-88.96 21.38,-88.96 21.38,-83.04 21.38,-83.04 21.38,-80.08 24.33,-77.12 27.29,-77.12 27.29,-77.12 69.46,-77.12 69.46,-77.12 72.42,-77.12 75.38,-80.08 75.38,-83.04 75.38,-83.04 75.38,-88.96 75.38,-88.96 75.38,-91.92 72.42,-94.88 69.46,-94.88"/>
<text text-anchor="start" x="33.75" y="-82.33" font-family="Helvetica,sans-Serif" font-size="9.00">main.ts</text>
</a>
</g>
</g>
<!-- src/modules/cost_control.mts -->
<g id="node7" class="node">
<title>src/modules/cost_control.mts</title>
<g id="a_node7"><a xlink:href="src/modules/cost_control.mts" xlink:title="cost_control.mts">
<path fill="#ddfeff" stroke="black" d="M176.21,-79.88C176.21,-79.88 106.04,-79.88 106.04,-79.88 103.08,-79.88 100.12,-76.92 100.12,-73.96 100.12,-73.96 100.12,-68.04 100.12,-68.04 100.12,-65.08 103.08,-62.12 106.04,-62.12 106.04,-62.12 176.21,-62.12 176.21,-62.12 179.17,-62.12 182.12,-65.08 182.12,-68.04 182.12,-68.04 182.12,-73.96 182.12,-73.96 182.12,-76.92 179.17,-79.88 176.21,-79.88"/>
<text text-anchor="start" x="108.12" y="-67.33" font-family="Helvetica,sans-Serif" font-size="9.00">cost_control.mts</text>
</a>
</g>
</g>
<!-- src/main.ts&#45;&gt;src/modules/cost_control.mts -->
<g id="edge1" class="edge">
<title>src/main.ts&#45;&gt;src/modules/cost_control.mts</title>
<path fill="none" stroke="#000000" stroke-width="2" stroke-opacity="0.200000" d="M75.62,-81.66C80.45,-80.86 85.64,-80.01 90.89,-79.14"/>
<polygon fill="#000000" fill-opacity="0.200000" stroke="#000000" stroke-width="2" stroke-opacity="0.200000" points="91.18,-81.22 96.76,-78.17 90.49,-77.08 91.18,-81.22"/>
</g>
<!-- src/modules/map.mts -->
<g id="node8" class="node">
<title>src/modules/map.mts</title>
<g id="a_node8"><a xlink:href="src/modules/map.mts" xlink:title="map.mts">
<path fill="#ddfeff" stroke="black" d="M162.21,-49.88C162.21,-49.88 120.04,-49.88 120.04,-49.88 117.08,-49.88 114.12,-46.92 114.12,-43.96 114.12,-43.96 114.12,-38.04 114.12,-38.04 114.12,-35.08 117.08,-32.12 120.04,-32.12 120.04,-32.12 162.21,-32.12 162.21,-32.12 165.17,-32.12 168.12,-35.08 168.12,-38.04 168.12,-38.04 168.12,-43.96 168.12,-43.96 168.12,-46.92 165.17,-49.88 162.21,-49.88"/>
<text text-anchor="start" x="123.88" y="-37.33" font-family="Helvetica,sans-Serif" font-size="9.00">map.mts</text>
</a>
</g>
</g>
<!-- src/main.ts&#45;&gt;src/modules/map.mts -->
<g id="edge2" class="edge">
<title>src/main.ts&#45;&gt;src/modules/map.mts</title>
<path fill="none" stroke="#000000" stroke-width="2" stroke-opacity="0.200000" d="M59.36,-76.72C66.93,-70.13 77.86,-61.5 88.75,-56 93.99,-53.36 99.77,-51.1 105.51,-49.21"/>
<polygon fill="#000000" fill-opacity="0.200000" stroke="#000000" stroke-width="2" stroke-opacity="0.200000" points="105.78,-51.32 110.91,-47.57 104.56,-47.3 105.78,-51.32"/>
</g>
<!-- src/modules/mode_control.mts -->
<g id="node9" class="node">
<title>src/modules/mode_control.mts</title>
<g id="a_node9"><a xlink:href="src/modules/mode_control.mts" xlink:title="mode_control.mts">
<path fill="#ddfeff" stroke="black" d="M179.58,-109.88C179.58,-109.88 102.67,-109.88 102.67,-109.88 99.71,-109.88 96.75,-106.92 96.75,-103.96 96.75,-103.96 96.75,-98.04 96.75,-98.04 96.75,-95.08 99.71,-92.12 102.67,-92.12 102.67,-92.12 179.58,-92.12 179.58,-92.12 182.54,-92.12 185.5,-95.08 185.5,-98.04 185.5,-98.04 185.5,-103.96 185.5,-103.96 185.5,-106.92 182.54,-109.88 179.58,-109.88"/>
<text text-anchor="start" x="104.75" y="-97.33" font-family="Helvetica,sans-Serif" font-size="9.00">mode_control.mts</text>
</a>
</g>
</g>
<!-- src/main.ts&#45;&gt;src/modules/mode_control.mts -->
<g id="edge3" class="edge">
<title>src/main.ts&#45;&gt;src/modules/mode_control.mts</title>
<path fill="none" stroke="#000000" stroke-width="2" stroke-opacity="0.200000" d="M75.62,-90.34C79.48,-90.98 83.56,-91.65 87.72,-92.34"/>
<polygon fill="#000000" fill-opacity="0.200000" stroke="#000000" stroke-width="2" stroke-opacity="0.200000" points="87.08,-94.36 93.34,-93.27 87.76,-90.22 87.08,-94.36"/>
</g>
<!-- src/style.css -->
<g id="node10" class="node">
<title>src/style.css</title>
<g id="a_node10"><a xlink:href="src/style.css" xlink:title="style.css">
<path fill="#ffffcc" stroke="black" d="M162.21,-161.88C162.21,-161.88 120.04,-161.88 120.04,-161.88 117.08,-161.88 114.12,-158.92 114.12,-155.96 114.12,-155.96 114.12,-150.04 114.12,-150.04 114.12,-147.08 117.08,-144.12 120.04,-144.12 120.04,-144.12 162.21,-144.12 162.21,-144.12 165.17,-144.12 168.12,-147.08 168.12,-150.04 168.12,-150.04 168.12,-155.96 168.12,-155.96 168.12,-158.92 165.17,-161.88 162.21,-161.88"/>
<text text-anchor="start" x="123.88" y="-149.32" font-family="Helvetica,sans-Serif" font-size="9.00">style.css</text>
</a>
</g>
</g>
<!-- src/main.ts&#45;&gt;src/style.css -->
<g id="edge4" class="edge">
<title>src/main.ts&#45;&gt;src/style.css</title>
<path fill="none" stroke="#000000" stroke-width="2" stroke-opacity="0.200000" d="M53.84,-95.37C60.01,-107.31 72.28,-127.76 88.75,-139 93.73,-142.4 99.5,-144.97 105.34,-146.92"/>
<polygon fill="#000000" fill-opacity="0.200000" stroke="#000000" stroke-width="2" stroke-opacity="0.200000" points="104.6,-148.9 110.95,-148.53 105.76,-144.86 104.6,-148.9"/>
</g>
<!-- src/modules/cost_control.mts&#45;&gt;src/components/CostPanel.svelte -->
<g id="edge5" class="edge">
<title>src/modules/cost_control.mts&#45;&gt;src/components/CostPanel.svelte</title>
<path fill="none" stroke="#000000" stroke-width="2" stroke-opacity="0.200000" d="M182.24,-71C209.77,-71 246.52,-71 276.1,-71"/>
<polygon fill="#000000" fill-opacity="0.200000" stroke="#000000" stroke-width="2" stroke-opacity="0.200000" points="276.01,-73.1 282.01,-71 276.01,-68.9 276.01,-73.1"/>
</g>
<!-- src/store/map.ts -->
<g id="node11" class="node">
<title>src/store/map.ts</title>
<g id="a_node11"><a xlink:href="src/store/map.ts" xlink:title="map.ts">
<path fill="#ddfeff" stroke="black" d="M511.58,-199.88C511.58,-199.88 469.42,-199.88 469.42,-199.88 466.46,-199.88 463.5,-196.92 463.5,-193.96 463.5,-193.96 463.5,-188.04 463.5,-188.04 463.5,-185.08 466.46,-182.12 469.42,-182.12 469.42,-182.12 511.58,-182.12 511.58,-182.12 514.54,-182.12 517.5,-185.08 517.5,-188.04 517.5,-188.04 517.5,-193.96 517.5,-193.96 517.5,-196.92 514.54,-199.88 511.58,-199.88"/>
<text text-anchor="start" x="477" y="-187.32" font-family="Helvetica,sans-Serif" font-size="9.00">map.ts</text>
</a>
</g>
</g>
<!-- src/modules/map.mts&#45;&gt;src/store/map.ts -->
<g id="edge6" class="edge">
<title>src/modules/map.mts&#45;&gt;src/store/map.ts</title>
<path fill="none" stroke="#000000" stroke-width="2" stroke-opacity="0.200000" d="M163.91,-31.73C208.53,-14.29 312.2,18.2 384.5,-22 443.81,-54.97 473.92,-136.86 484.73,-173.17"/>
<polygon fill="#000000" fill-opacity="0.200000" stroke="#000000" stroke-width="2" stroke-opacity="0.200000" points="482.67,-173.64 486.34,-178.83 486.71,-172.49 482.67,-173.64"/>
</g>
<!-- src/store/render.ts -->
<g id="node12" class="node">
<title>src/store/render.ts</title>
<g id="a_node12"><a xlink:href="src/store/render.ts" xlink:title="render.ts">
<path fill="#ddfeff" stroke="black" d="M257.58,-261.88C257.58,-261.88 215.42,-261.88 215.42,-261.88 212.46,-261.88 209.5,-258.92 209.5,-255.96 209.5,-255.96 209.5,-250.04 209.5,-250.04 209.5,-247.08 212.46,-244.12 215.42,-244.12 215.42,-244.12 257.58,-244.12 257.58,-244.12 260.54,-244.12 263.5,-247.08 263.5,-250.04 263.5,-250.04 263.5,-255.96 263.5,-255.96 263.5,-258.92 260.54,-261.88 257.58,-261.88"/>
<text text-anchor="start" x="218.5" y="-249.32" font-family="Helvetica,sans-Serif" font-size="9.00">render.ts</text>
</a>
</g>
</g>
<!-- src/modules/map.mts&#45;&gt;src/store/render.ts -->
<g id="edge7" class="edge">
<title>src/modules/map.mts&#45;&gt;src/store/render.ts</title>
<path fill="none" stroke="#000000" stroke-width="2" stroke-opacity="0.200000" d="M168.53,-43.21C177.59,-45.26 187.05,-49.06 193.5,-56 217.78,-82.15 230.04,-191.82 234.02,-235.22"/>
<polygon fill="#000000" fill-opacity="0.200000" stroke="#000000" stroke-width="2" stroke-opacity="0.200000" points="231.91,-235.27 234.53,-241.07 236.1,-234.9 231.91,-235.27"/>
</g>
<!-- src/store/route.ts -->
<g id="node13" class="node">
<title>src/store/route.ts</title>
<g id="a_node13"><a xlink:href="src/store/route.ts" xlink:title="route.ts">
<path fill="#ddfeff" stroke="black" d="M442.58,-243.88C442.58,-243.88 400.42,-243.88 400.42,-243.88 397.46,-243.88 394.5,-240.92 394.5,-237.96 394.5,-237.96 394.5,-232.04 394.5,-232.04 394.5,-229.08 397.46,-226.12 400.42,-226.12 400.42,-226.12 442.58,-226.12 442.58,-226.12 445.54,-226.12 448.5,-229.08 448.5,-232.04 448.5,-232.04 448.5,-237.96 448.5,-237.96 448.5,-240.92 445.54,-243.88 442.58,-243.88"/>
<text text-anchor="start" x="406.5" y="-231.32" font-family="Helvetica,sans-Serif" font-size="9.00">route.ts</text>
</a>
</g>
</g>
<!-- src/modules/map.mts&#45;&gt;src/store/route.ts -->
<g id="edge8" class="edge">
<title>src/modules/map.mts&#45;&gt;src/store/route.ts</title>
<path fill="none" stroke="#000000" stroke-width="2" stroke-opacity="0.200000" d="M168.36,-40.13C227.93,-38.44 369.45,-36.04 384.5,-51 396.69,-63.11 384.89,-181 394.55,-217.76"/>
<polygon fill="#000000" fill-opacity="0.200000" stroke="#000000" stroke-width="2" stroke-opacity="0.200000" points="392.49,-218.28 396.73,-223.02 396.38,-216.67 392.49,-218.28"/>
</g>
<!-- src/store/traverse.ts -->
<g id="node14" class="node">
<title>src/store/traverse.ts</title>
<g id="a_node14"><a xlink:href="src/store/traverse.ts" xlink:title="traverse.ts">
<path fill="#ddfeff" stroke="black" d="M444.58,-213.88C444.58,-213.88 398.42,-213.88 398.42,-213.88 395.46,-213.88 392.5,-210.92 392.5,-207.96 392.5,-207.96 392.5,-202.04 392.5,-202.04 392.5,-199.08 395.46,-196.12 398.42,-196.12 398.42,-196.12 444.58,-196.12 444.58,-196.12 447.54,-196.12 450.5,-199.08 450.5,-202.04 450.5,-202.04 450.5,-207.96 450.5,-207.96 450.5,-210.92 447.54,-213.88 444.58,-213.88"/>
<text text-anchor="start" x="400.5" y="-201.32" font-family="Helvetica,sans-Serif" font-size="9.00">traverse.ts</text>
</a>
</g>
</g>
<!-- src/modules/map.mts&#45;&gt;src/store/traverse.ts -->
<g id="edge9" class="edge">
<title>src/modules/map.mts&#45;&gt;src/store/traverse.ts</title>
<path fill="none" stroke="#000000" stroke-width="2" stroke-opacity="0.200000" d="M168.39,-37.04C224.16,-29.24 351.96,-14.83 384.5,-41 407.07,-59.15 416.29,-147.93 419.29,-186.76"/>
<polygon fill="#000000" fill-opacity="0.200000" stroke="#000000" stroke-width="2" stroke-opacity="0.200000" points="417.19,-186.83 419.72,-192.67 421.38,-186.53 417.19,-186.83"/>
</g>
<!-- src/modules/mode_control.mts&#45;&gt;src/components/ModePanel.svelte -->
<g id="edge10" class="edge">
<title>src/modules/mode_control.mts&#45;&gt;src/components/ModePanel.svelte</title>
<path fill="none" stroke="#000000" stroke-width="2" stroke-opacity="0.200000" d="M185.94,-101C212.34,-101 246.13,-101 274.03,-101"/>
<polygon fill="#000000" fill-opacity="0.200000" stroke="#000000" stroke-width="2" stroke-opacity="0.200000" points="273.83,-103.1 279.83,-101 273.83,-98.9 273.83,-103.1"/>
</g>
<!-- src/store/render.ts&#45;&gt;src/components/DebugPopup.svelte -->
<g id="edge20" class="edge">
<title>src/store/render.ts&#45;&gt;src/components/DebugPopup.svelte</title>
<path fill="none" stroke="#000000" stroke-width="2" stroke-opacity="0.200000" d="M239.55,-243.78C243.5,-227.65 253.42,-193.84 271.5,-171 279.67,-160.69 291.16,-151.81 301.56,-145.06"/>
<polygon fill="#000000" fill-opacity="0.200000" stroke="#000000" stroke-width="2" stroke-opacity="0.200000" points="302.66,-146.85 306.66,-141.91 300.46,-143.27 302.66,-146.85"/>
</g>
<!-- src/store/render.ts&#45;&gt;src/consts.ts -->
<g id="edge21" class="edge">
<title>src/store/render.ts&#45;&gt;src/consts.ts</title>
<path fill="none" stroke="#000000" stroke-width="2" stroke-opacity="0.200000" d="M243.16,-262.23C249.31,-271.74 259.82,-286.6 271.5,-297 318.39,-338.78 331.99,-353.16 392.5,-370 450.09,-386.03 477.66,-385.84 525.5,-350 538.54,-340.23 547.63,-323.87 553.11,-311.34"/>
<polygon fill="#000000" fill-opacity="0.200000" stroke="#000000" stroke-width="2" stroke-opacity="0.200000" points="555.03,-312.2 555.33,-305.85 551.13,-310.63 555.03,-312.2"/>
</g>
<!-- src/store/render.ts&#45;&gt;src/store/traverse.ts -->
<g id="edge25" class="edge">
<title>src/store/render.ts&#45;&gt;src/store/traverse.ts</title>
<path fill="none" stroke="#000000" stroke-width="2" stroke-opacity="0.200000" d="M263.72,-246.12C295.15,-237.88 348.03,-224.01 383.58,-214.68"/>
<polygon fill="#000000" fill-opacity="0.200000" stroke="#000000" stroke-width="2" stroke-opacity="0.200000" points="384.03,-216.74 389.3,-213.18 382.96,-212.68 384.03,-216.74"/>
</g>
<!-- src/store/cost.ts -->
<g id="node15" class="node">
<title>src/store/cost.ts</title>
<g id="a_node15"><a xlink:href="src/store/cost.ts" xlink:title="cost.ts">
<path fill="#ddfeff" stroke="black" d="M442.58,-301.88C442.58,-301.88 400.42,-301.88 400.42,-301.88 397.46,-301.88 394.5,-298.92 394.5,-295.96 394.5,-295.96 394.5,-290.04 394.5,-290.04 394.5,-287.08 397.46,-284.12 400.42,-284.12 400.42,-284.12 442.58,-284.12 442.58,-284.12 445.54,-284.12 448.5,-287.08 448.5,-290.04 448.5,-290.04 448.5,-295.96 448.5,-295.96 448.5,-298.92 445.54,-301.88 442.58,-301.88"/>
<text text-anchor="start" x="408.75" y="-289.32" font-family="Helvetica,sans-Serif" font-size="9.00">cost.ts</text>
</a>
</g>
</g>
<!-- src/store/render.ts&#45;&gt;src/store/cost.ts -->
<g id="edge22" class="edge">
<title>src/store/render.ts&#45;&gt;src/store/cost.ts</title>
<path fill="none" stroke="#000000" stroke-width="2" stroke-opacity="0.200000" d="M242.89,-262.29C248.68,-271.24 258.78,-284.26 271.5,-290 291.1,-298.84 348.04,-297.47 385.58,-295.42"/>
<polygon fill="#000000" fill-opacity="0.200000" stroke="#000000" stroke-width="2" stroke-opacity="0.200000" points="385.32,-297.54 391.18,-295.09 385.07,-293.34 385.32,-297.54"/>
</g>
<!-- src/store/fetch.ts -->
<g id="node16" class="node">
<title>src/store/fetch.ts</title>
<g id="a_node16"><a xlink:href="src/store/fetch.ts" xlink:title="fetch.ts">
<path fill="#ddfeff" stroke="black" d="M349.08,-283.88C349.08,-283.88 306.92,-283.88 306.92,-283.88 303.96,-283.88 301,-280.92 301,-277.96 301,-277.96 301,-272.04 301,-272.04 301,-269.08 303.96,-266.12 306.92,-266.12 306.92,-266.12 349.08,-266.12 349.08,-266.12 352.04,-266.12 355,-269.08 355,-272.04 355,-272.04 355,-277.96 355,-277.96 355,-280.92 352.04,-283.88 349.08,-283.88"/>
<text text-anchor="start" x="313.75" y="-271.32" font-family="Helvetica,sans-Serif" font-size="9.00">fetch.ts</text>
</a>
</g>
</g>
<!-- src/store/render.ts&#45;&gt;src/store/fetch.ts -->
<g id="edge23" class="edge">
<title>src/store/render.ts&#45;&gt;src/store/fetch.ts</title>
<path fill="none" stroke="#000000" stroke-width="2" stroke-opacity="0.200000" d="M263.87,-259.48C272.62,-261.63 282.51,-264.06 291.82,-266.35"/>
<polygon fill="#000000" fill-opacity="0.200000" stroke="#000000" stroke-width="2" stroke-opacity="0.200000" points="291.24,-268.37 297.57,-267.77 292.25,-264.29 291.24,-268.37"/>
</g>
<!-- src/store/mode.ts -->
<g id="node17" class="node">
<title>src/store/mode.ts</title>
<g id="a_node17"><a xlink:href="src/store/mode.ts" xlink:title="mode.ts">
<path fill="#ddfeff" stroke="black" d="M511.58,-259.88C511.58,-259.88 469.42,-259.88 469.42,-259.88 466.46,-259.88 463.5,-256.92 463.5,-253.96 463.5,-253.96 463.5,-248.04 463.5,-248.04 463.5,-245.08 466.46,-242.12 469.42,-242.12 469.42,-242.12 511.58,-242.12 511.58,-242.12 514.54,-242.12 517.5,-245.08 517.5,-248.04 517.5,-248.04 517.5,-253.96 517.5,-253.96 517.5,-256.92 514.54,-259.88 511.58,-259.88"/>
<text text-anchor="start" x="474.38" y="-247.32" font-family="Helvetica,sans-Serif" font-size="9.00">mode.ts</text>
</a>
</g>
</g>
<!-- src/store/render.ts&#45;&gt;src/store/mode.ts -->
<g id="edge24" class="edge">
<title>src/store/render.ts&#45;&gt;src/store/mode.ts</title>
<path fill="none" stroke="#000000" stroke-width="2" stroke-opacity="0.200000" d="M263.99,-252.79C309.67,-252.43 403.27,-251.68 454.34,-251.28"/>
<polygon fill="#000000" fill-opacity="0.200000" stroke="#000000" stroke-width="2" stroke-opacity="0.200000" points="454.35,-253.38 460.34,-251.23 454.32,-249.18 454.35,-253.38"/>
</g>
<!-- src/store/route.ts&#45;&gt;src/consts.ts -->
<g id="edge26" class="edge">
<title>src/store/route.ts&#45;&gt;src/consts.ts</title>
<path fill="none" stroke="#000000" stroke-width="2" stroke-opacity="0.200000" d="M428.86,-244.35C436.05,-254.15 448.73,-269.19 463.5,-277 473.94,-282.52 501.5,-287.07 524.43,-290.07"/>
<polygon fill="#000000" fill-opacity="0.200000" stroke="#000000" stroke-width="2" stroke-opacity="0.200000" points="524.04,-292.14 530.26,-290.8 524.57,-287.97 524.04,-292.14"/>
</g>
<!-- src/store/route.ts&#45;&gt;src/store/map.ts -->
<g id="edge27" class="edge">
<title>src/store/route.ts&#45;&gt;src/store/map.ts</title>
<path fill="none" stroke="#000000" stroke-width="2" stroke-opacity="0.200000" d="M442,-225.64C444.95,-223.92 447.88,-222.02 450.5,-220 457.22,-214.81 456.86,-211.29 463.5,-206 463.82,-205.75 464.14,-205.5 464.46,-205.25"/>
<polygon fill="#000000" fill-opacity="0.200000" stroke="#000000" stroke-width="2" stroke-opacity="0.200000" points="465.42,-207.14 469.19,-202.02 463.05,-203.67 465.42,-207.14"/>
</g>
<!-- src/store/route.ts&#45;&gt;src/store/mode.ts -->
<g id="edge29" class="edge">
<title>src/store/route.ts&#45;&gt;src/store/mode.ts</title>
<path fill="none" stroke="#000000" stroke-width="2" stroke-opacity="0.200000" d="M448.98,-241.32C450.88,-241.78 452.82,-242.24 454.76,-242.7"/>
<polygon fill="#000000" fill-opacity="0.200000" stroke="#000000" stroke-width="2" stroke-opacity="0.200000" points="453.94,-244.67 460.27,-244.02 454.92,-240.58 453.94,-244.67"/>
</g>
<!-- src/store/marker.ts -->
<g id="node18" class="node">
<title>src/store/marker.ts</title>
<g id="a_node18"><a xlink:href="src/store/marker.ts" xlink:title="marker.ts">
<path fill="#ddfeff" stroke="black" d="M511.58,-229.88C511.58,-229.88 469.42,-229.88 469.42,-229.88 466.46,-229.88 463.5,-226.92 463.5,-223.96 463.5,-223.96 463.5,-218.04 463.5,-218.04 463.5,-215.08 466.46,-212.12 469.42,-212.12 469.42,-212.12 511.58,-212.12 511.58,-212.12 514.54,-212.12 517.5,-215.08 517.5,-218.04 517.5,-218.04 517.5,-223.96 517.5,-223.96 517.5,-226.92 514.54,-229.88 511.58,-229.88"/>
<text text-anchor="start" x="471.75" y="-217.32" font-family="Helvetica,sans-Serif" font-size="9.00">marker.ts</text>
</a>
</g>
</g>
<!-- src/store/route.ts&#45;&gt;src/store/marker.ts -->
<g id="edge28" class="edge">
<title>src/store/route.ts&#45;&gt;src/store/marker.ts</title>
<path fill="none" stroke="#000000" stroke-width="2" stroke-opacity="0.200000" d="M448.98,-229.47C450.88,-229.07 452.82,-228.67 454.76,-228.26"/>
<polygon fill="#000000" fill-opacity="0.200000" stroke="#000000" stroke-width="2" stroke-opacity="0.200000" points="454.81,-230.4 460.25,-227.11 453.95,-226.28 454.81,-230.4"/>
</g>
<!-- src/store/traverse.ts&#45;&gt;src/consts.ts -->
<g id="edge30" class="edge">
<title>src/store/traverse.ts&#45;&gt;src/consts.ts</title>
<path fill="none" stroke="#000000" stroke-width="2" stroke-opacity="0.200000" d="M444.36,-214.33C446.65,-215.97 448.77,-217.85 450.5,-220 463.81,-236.56 447.86,-251.62 463.5,-266 484.16,-284.99 498.82,-269.29 525.5,-278 528.23,-278.89 531.02,-279.95 533.78,-281.09"/>
<polygon fill="#000000" fill-opacity="0.200000" stroke="#000000" stroke-width="2" stroke-opacity="0.200000" points="532.74,-282.92 539.08,-283.44 534.45,-279.09 532.74,-282.92"/>
</g>
<!-- src/store/traverse.ts&#45;&gt;src/store/map.ts -->
<g id="edge31" class="edge">
<title>src/store/traverse.ts&#45;&gt;src/store/map.ts</title>
<path fill="none" stroke="#000000" stroke-width="2" stroke-opacity="0.200000" d="M450.91,-199.06C452.21,-198.79 453.51,-198.52 454.82,-198.25"/>
<polygon fill="#000000" fill-opacity="0.200000" stroke="#000000" stroke-width="2" stroke-opacity="0.200000" points="454.98,-200.36 460.42,-197.08 454.12,-196.25 454.98,-200.36"/>
</g>
<!-- src/store/traverse.ts&#45;&gt;src/store/mode.ts -->
<g id="edge33" class="edge">
<title>src/store/traverse.ts&#45;&gt;src/store/mode.ts</title>
<path fill="none" stroke="#000000" stroke-width="2" stroke-opacity="0.200000" d="M442.12,-214.21C445.05,-215.95 447.95,-217.89 450.5,-220 457.57,-225.83 456.53,-230.06 463.5,-236 463.8,-236.25 464.1,-236.51 464.41,-236.75"/>
<polygon fill="#000000" fill-opacity="0.200000" stroke="#000000" stroke-width="2" stroke-opacity="0.200000" points="462.72,-238.14 468.83,-239.9 465.16,-234.71 462.72,-238.14"/>
</g>
<!-- src/store/traverse.ts&#45;&gt;src/store/marker.ts -->
<g id="edge32" class="edge">
<title>src/store/traverse.ts&#45;&gt;src/store/marker.ts</title>
<path fill="none" stroke="#000000" stroke-width="2" stroke-opacity="0.200000" d="M450.91,-211.79C452.21,-212.09 453.51,-212.41 454.82,-212.72"/>
<polygon fill="#000000" fill-opacity="0.200000" stroke="#000000" stroke-width="2" stroke-opacity="0.200000" points="454.12,-214.71 460.44,-214.06 455.09,-210.62 454.12,-214.71"/>
</g>
<!-- src/store/cost.ts&#45;&gt;src/consts.ts -->
<g id="edge11" class="edge">
<title>src/store/cost.ts&#45;&gt;src/consts.ts</title>
<path fill="none" stroke="#000000" stroke-width="2" stroke-opacity="0.200000" d="M448.91,-293.19C470.33,-293.35 500.71,-293.57 524.21,-293.74"/>
<polygon fill="#000000" fill-opacity="0.200000" stroke="#000000" stroke-width="2" stroke-opacity="0.200000" points="524.12,-295.84 530.14,-293.79 524.15,-291.64 524.12,-295.84"/>
</g>
<!-- src/store/fetch.ts&#45;&gt;src/config.ts -->
<g id="edge12" class="edge">
<title>src/store/fetch.ts&#45;&gt;src/config.ts</title>
<path fill="none" stroke="#000000" stroke-width="2" stroke-opacity="0.200000" d="M355.23,-275.18C365.68,-276.62 376.98,-280.13 384.5,-288 396.25,-300.3 384.61,-312.11 392.45,-328.37"/>
<polygon fill="#000000" fill-opacity="0.200000" stroke="#000000" stroke-width="2" stroke-opacity="0.200000" points="390.47,-329.18 395.49,-333.08 394,-326.9 390.47,-329.18"/>
</g>
<!-- src/store/fetch.ts&#45;&gt;src/consts.ts -->
<g id="edge13" class="edge">
<title>src/store/fetch.ts&#45;&gt;src/consts.ts</title>
<path fill="none" stroke="#000000" stroke-width="2" stroke-opacity="0.200000" d="M355.23,-274.88C365.81,-276.25 377.21,-279.78 384.5,-288 395.18,-300.04 380.5,-349.26 392.5,-360 438.28,-400.98 512.56,-339.74 544.32,-309.38"/>
<polygon fill="#000000" fill-opacity="0.200000" stroke="#000000" stroke-width="2" stroke-opacity="0.200000" points="545.77,-310.9 548.6,-305.2 542.84,-307.89 545.77,-310.9"/>
</g>
<!-- src/store/fetch.ts&#45;&gt;src/store/map.ts -->
<g id="edge15" class="edge">
<title>src/store/fetch.ts&#45;&gt;src/store/map.ts</title>
<path fill="none" stroke="#000000" stroke-width="2" stroke-opacity="0.200000" d="M332.51,-265.85C340.15,-247.41 360.22,-206.18 392.5,-190 411.48,-180.49 435.28,-180.59 454.56,-183.14"/>
<polygon fill="#000000" fill-opacity="0.200000" stroke="#000000" stroke-width="2" stroke-opacity="0.200000" points="454.1,-185.19 460.35,-184.04 454.74,-181.04 454.1,-185.19"/>
</g>
<!-- src/store/fetch.ts&#45;&gt;src/store/route.ts -->
<g id="edge17" class="edge">
<title>src/store/fetch.ts&#45;&gt;src/store/route.ts</title>
<path fill="none" stroke="#000000" stroke-width="2" stroke-opacity="0.200000" d="M350.22,-265.72C362.38,-260.41 377.81,-253.66 391.11,-247.85"/>
<polygon fill="#000000" fill-opacity="0.200000" stroke="#000000" stroke-width="2" stroke-opacity="0.200000" points="391.65,-249.91 396.3,-245.58 389.96,-246.06 391.65,-249.91"/>
</g>
<!-- src/store/fetch.ts&#45;&gt;src/store/traverse.ts -->
<g id="edge18" class="edge">
<title>src/store/fetch.ts&#45;&gt;src/store/traverse.ts</title>
<path fill="none" stroke="#000000" stroke-width="2" stroke-opacity="0.200000" d="M340.29,-265.9C351.67,-256.62 369.64,-241.68 384.5,-228 388.2,-224.59 388.46,-223 392.5,-220 392.93,-219.68 393.37,-219.37 393.81,-219.05"/>
<polygon fill="#000000" fill-opacity="0.200000" stroke="#000000" stroke-width="2" stroke-opacity="0.200000" points="394.85,-220.88 398.8,-215.89 392.61,-217.33 394.85,-220.88"/>
</g>
<!-- src/store/fetch.ts&#45;&gt;src/store/cost.ts -->
<g id="edge14" class="edge">
<title>src/store/fetch.ts&#45;&gt;src/store/cost.ts</title>
<path fill="none" stroke="#000000" stroke-width="2" stroke-opacity="0.200000" d="M355.47,-280.21C364.76,-282.03 375.35,-284.12 385.25,-286.07"/>
<polygon fill="#000000" fill-opacity="0.200000" stroke="#000000" stroke-width="2" stroke-opacity="0.200000" points="384.83,-288.12 391.12,-287.22 385.64,-284 384.83,-288.12"/>
</g>
<!-- src/store/fetch.ts&#45;&gt;src/store/mode.ts -->
<g id="edge16" class="edge">
<title>src/store/fetch.ts&#45;&gt;src/store/mode.ts</title>
<path fill="none" stroke="#000000" stroke-width="2" stroke-opacity="0.200000" d="M355.22,-273.02C379.94,-270.9 417.93,-267.02 450.5,-261 451.79,-260.76 453.1,-260.5 454.42,-260.23"/>
<polygon fill="#000000" fill-opacity="0.200000" stroke="#000000" stroke-width="2" stroke-opacity="0.200000" points="454.83,-262.29 460.22,-258.93 453.91,-258.2 454.83,-262.29"/>
</g>
<!-- src/store/mode.ts&#45;&gt;src/consts.ts -->
<g id="edge19" class="edge">
<title>src/store/mode.ts&#45;&gt;src/consts.ts</title>
<path fill="none" stroke="#000000" stroke-width="2" stroke-opacity="0.200000" d="M517.94,-260.02C520.56,-261.23 523.12,-262.56 525.5,-264 532.22,-268.07 538.88,-273.53 544.49,-278.67"/>
<polygon fill="#000000" fill-opacity="0.200000" stroke="#000000" stroke-width="2" stroke-opacity="0.200000" points="543,-280.16 548.78,-282.8 545.91,-277.13 543,-280.16"/>
</g>
<!-- src/vite&#45;env.d.ts -->
<g id="node19" class="node">
<title>src/vite&#45;env.d.ts</title>
<g id="a_node19"><a xlink:href="src/vite-env.d.ts" xlink:title="vite&#45;env.d.ts">
<path fill="#ccffcc" stroke="black" d="M74.83,-260.88C74.83,-260.88 21.92,-260.88 21.92,-260.88 18.96,-260.88 16,-257.92 16,-254.96 16,-254.96 16,-249.04 16,-249.04 16,-246.08 18.96,-243.12 21.92,-243.12 21.92,-243.12 74.83,-243.12 74.83,-243.12 77.79,-243.12 80.75,-246.08 80.75,-249.04 80.75,-249.04 80.75,-254.96 80.75,-254.96 80.75,-257.92 77.79,-260.88 74.83,-260.88"/>
<text text-anchor="start" x="24" y="-248.32" font-family="Helvetica,sans-Serif" font-size="9.00">vite&#45;env.d.ts</text>
</a>
</g>
</g>
</g>
</svg>
