<?xml version="1.0" encoding="UTF-8" standalone="no"?>
<!DOCTYPE svg PUBLIC "-//W3C//DTD SVG 1.1//EN"
 "http://www.w3.org/Graphics/SVG/1.1/DTD/svg11.dtd">
<!-- Generated by graphviz version 10.0.1 (20240210.2158)
 -->
<!-- Title: dependency&#45;cruiser output Pages: 1 -->
<svg width="612pt" height="350pt"
 viewBox="0.00 0.00 611.50 350.00" xmlns="http://www.w3.org/2000/svg" xmlns:xlink="http://www.w3.org/1999/xlink">
<g id="graph0" class="graph" transform="scale(1 1) rotate(0) translate(4 346)">
<title>dependency&#45;cruiser output</title>
<polygon fill="white" stroke="none" points="-4,4 -4,-346 607.5,-346 607.5,4 -4,4"/>
<g id="clust1" class="cluster">
<title>cluster_src</title>
<path fill="#ffffff" stroke="black" stroke-width="2" d="M20,-8C20,-8 583.5,-8 583.5,-8 589.5,-8 595.5,-14 595.5,-20 595.5,-20 595.5,-322 595.5,-322 595.5,-328 589.5,-334 583.5,-334 583.5,-334 20,-334 20,-334 14,-334 8,-328 8,-322 8,-322 8,-20 8,-20 8,-14 14,-8 20,-8"/>
<text text-anchor="middle" x="301.75" y="-321.45" font-family="Helvetica,sans-Serif" font-weight="bold" font-size="9.00">src</text>
</g>
<g id="clust2" class="cluster">
<title>cluster_src/components</title>
<path fill="#ffffff" stroke="black" stroke-width="2" d="M283.5,-16C283.5,-16 372.5,-16 372.5,-16 378.5,-16 384.5,-22 384.5,-28 384.5,-28 384.5,-116 384.5,-116 384.5,-122 378.5,-128 372.5,-128 372.5,-128 283.5,-128 283.5,-128 277.5,-128 271.5,-122 271.5,-116 271.5,-116 271.5,-28 271.5,-28 271.5,-22 277.5,-16 283.5,-16"/>
<text text-anchor="middle" x="328" y="-115.45" font-family="Helvetica,sans-Serif" font-weight="bold" font-size="9.00">components</text>
</g>
<g id="clust3" class="cluster">
<title>cluster_src/modules</title>
<path fill="#ffffff" stroke="black" stroke-width="2" d="M100.75,-170C100.75,-170 181.5,-170 181.5,-170 187.5,-170 193.5,-176 193.5,-182 193.5,-182 193.5,-270 193.5,-270 193.5,-276 187.5,-282 181.5,-282 181.5,-282 100.75,-282 100.75,-282 94.75,-282 88.75,-276 88.75,-270 88.75,-270 88.75,-182 88.75,-182 88.75,-176 94.75,-170 100.75,-170"/>
<text text-anchor="middle" x="141.12" y="-269.45" font-family="Helvetica,sans-Serif" font-weight="bold" font-size="9.00">modules</text>
</g>
<g id="clust4" class="cluster">
<title>cluster_src/store</title>
<path fill="#ffffff" stroke="black" stroke-width="2" d="M213.5,-138C213.5,-138 513.5,-138 513.5,-138 519.5,-138 525.5,-144 525.5,-150 525.5,-150 525.5,-280 525.5,-280 525.5,-286 519.5,-292 513.5,-292 513.5,-292 213.5,-292 213.5,-292 207.5,-292 201.5,-286 201.5,-280 201.5,-280 201.5,-150 201.5,-150 201.5,-144 207.5,-138 213.5,-138"/>
<text text-anchor="middle" x="363.5" y="-279.45" font-family="Helvetica,sans-Serif" font-weight="bold" font-size="9.00">store</text>
</g>
<!-- src/components/CostPanel.svelte -->
<g id="node1" class="node">
<title>src/components/CostPanel.svelte</title>
<g id="a_node1"><a xlink:href="src/components/CostPanel.svelte" xlink:title="CostPanel.svelte">
<path fill="#febbff" stroke="black" d="M364.58,-41.88C364.58,-41.88 291.42,-41.88 291.42,-41.88 288.46,-41.88 285.5,-38.92 285.5,-35.96 285.5,-35.96 285.5,-30.04 285.5,-30.04 285.5,-27.08 288.46,-24.12 291.42,-24.12 291.42,-24.12 364.58,-24.12 364.58,-24.12 367.54,-24.12 370.5,-27.08 370.5,-30.04 370.5,-30.04 370.5,-35.96 370.5,-35.96 370.5,-38.92 367.54,-41.88 364.58,-41.88"/>
<text text-anchor="start" x="293.5" y="-29.32" font-family="Helvetica,sans-Serif" font-size="9.00">CostPanel.svelte</text>
</a>
</g>
</g>
<!-- src/components/DebugPopup.svelte -->
<g id="node2" class="node">
<title>src/components/DebugPopup.svelte</title>
<g id="a_node2"><a xlink:href="src/components/DebugPopup.svelte" xlink:title="DebugPopup.svelte">
<path fill="#febbff" stroke="black" d="M370.58,-101.88C370.58,-101.88 285.42,-101.88 285.42,-101.88 282.46,-101.88 279.5,-98.92 279.5,-95.96 279.5,-95.96 279.5,-90.04 279.5,-90.04 279.5,-87.08 282.46,-84.12 285.42,-84.12 285.42,-84.12 370.58,-84.12 370.58,-84.12 373.54,-84.12 376.5,-87.08 376.5,-90.04 376.5,-90.04 376.5,-95.96 376.5,-95.96 376.5,-98.92 373.54,-101.88 370.58,-101.88"/>
<text text-anchor="start" x="287.5" y="-89.33" font-family="Helvetica,sans-Serif" font-size="9.00">DebugPopup.svelte</text>
</a>
</g>
</g>
<!-- src/components/ModePanel.svelte -->
<g id="node3" class="node">
<title>src/components/ModePanel.svelte</title>
<g id="a_node3"><a xlink:href="src/components/ModePanel.svelte" xlink:title="ModePanel.svelte">
<path fill="#febbff" stroke="black" d="M366.83,-71.88C366.83,-71.88 289.17,-71.88 289.17,-71.88 286.21,-71.88 283.25,-68.92 283.25,-65.96 283.25,-65.96 283.25,-60.04 283.25,-60.04 283.25,-57.08 286.21,-54.12 289.17,-54.12 289.17,-54.12 366.83,-54.12 366.83,-54.12 369.79,-54.12 372.75,-57.08 372.75,-60.04 372.75,-60.04 372.75,-65.96 372.75,-65.96 372.75,-68.92 369.79,-71.88 366.83,-71.88"/>
<text text-anchor="start" x="291.25" y="-59.33" font-family="Helvetica,sans-Serif" font-size="9.00">ModePanel.svelte</text>
</a>
</g>
</g>
<!-- src/config.ts -->
<g id="node4" class="node">
<title>src/config.ts</title>
<g id="a_node4"><a xlink:href="src/config.ts" xlink:title="config.ts">
<path fill="#ddfeff" stroke="black" d="M442.58,-129.88C442.58,-129.88 400.42,-129.88 400.42,-129.88 397.46,-129.88 394.5,-126.92 394.5,-123.96 394.5,-123.96 394.5,-118.04 394.5,-118.04 394.5,-115.08 397.46,-112.12 400.42,-112.12 400.42,-112.12 442.58,-112.12 442.58,-112.12 445.54,-112.12 448.5,-115.08 448.5,-118.04 448.5,-118.04 448.5,-123.96 448.5,-123.96 448.5,-126.92 445.54,-129.88 442.58,-129.88"/>
<text text-anchor="start" x="404.62" y="-117.33" font-family="Helvetica,sans-Serif" font-size="9.00">config.ts</text>
</a>
</g>
</g>
<!-- src/consts.ts -->
<g id="node5" class="node">
<title>src/consts.ts</title>
<g id="a_node5"><a xlink:href="src/consts.ts" xlink:title="consts.ts">
<path fill="#ddfeff" stroke="black" d="M581.58,-169.88C581.58,-169.88 539.42,-169.88 539.42,-169.88 536.46,-169.88 533.5,-166.92 533.5,-163.96 533.5,-163.96 533.5,-158.04 533.5,-158.04 533.5,-155.08 536.46,-152.12 539.42,-152.12 539.42,-152.12 581.58,-152.12 581.58,-152.12 584.54,-152.12 587.5,-155.08 587.5,-158.04 587.5,-158.04 587.5,-163.96 587.5,-163.96 587.5,-166.92 584.54,-169.88 581.58,-169.88"/>
<text text-anchor="start" x="542.88" y="-157.32" font-family="Helvetica,sans-Serif" font-size="9.00">consts.ts</text>
</a>
</g>
</g>
<!-- src/main.ts -->
<g id="node6" class="node">
<title>src/main.ts</title>
<g id="a_node6"><a xlink:href="src/main.ts" xlink:title="main.ts">
<path fill="#ddfeff" stroke="black" d="M69.46,-238.88C69.46,-238.88 27.29,-238.88 27.29,-238.88 24.33,-238.88 21.38,-235.92 21.38,-232.96 21.38,-232.96 21.38,-227.04 21.38,-227.04 21.38,-224.08 24.33,-221.12 27.29,-221.12 27.29,-221.12 69.46,-221.12 69.46,-221.12 72.42,-221.12 75.38,-224.08 75.38,-227.04 75.38,-227.04 75.38,-232.96 75.38,-232.96 75.38,-235.92 72.42,-238.88 69.46,-238.88"/>
<text text-anchor="start" x="33.75" y="-226.32" font-family="Helvetica,sans-Serif" font-size="9.00">main.ts</text>
</a>
</g>
</g>
<!-- src/modules/cost_control.mts -->
<g id="node7" class="node">
<title>src/modules/cost_control.mts</title>
<g id="a_node7"><a xlink:href="src/modules/cost_control.mts" xlink:title="cost_control.mts">
<path fill="#ddfeff" stroke="black" d="M176.21,-195.88C176.21,-195.88 106.04,-195.88 106.04,-195.88 103.08,-195.88 100.12,-192.92 100.12,-189.96 100.12,-189.96 100.12,-184.04 100.12,-184.04 100.12,-181.08 103.08,-178.12 106.04,-178.12 106.04,-178.12 176.21,-178.12 176.21,-178.12 179.17,-178.12 182.12,-181.08 182.12,-184.04 182.12,-184.04 182.12,-189.96 182.12,-189.96 182.12,-192.92 179.17,-195.88 176.21,-195.88"/>
<text text-anchor="start" x="108.12" y="-183.32" font-family="Helvetica,sans-Serif" font-size="9.00">cost_control.mts</text>
</a>
</g>
</g>
<!-- src/main.ts&#45;&gt;src/modules/cost_control.mts -->
<g id="edge1" class="edge">
<title>src/main.ts&#45;&gt;src/modules/cost_control.mts</title>
<path fill="none" stroke="#000000" stroke-width="2" stroke-opacity="0.200000" d="M60.12,-220.85C67.7,-214.79 78.33,-207.05 88.75,-202 90.69,-201.06 92.7,-200.17 94.75,-199.32"/>
<polygon fill="#000000" fill-opacity="0.200000" stroke="#000000" stroke-width="2" stroke-opacity="0.200000" points="95.1,-201.44 99.97,-197.35 93.62,-197.51 95.1,-201.44"/>
</g>
<!-- src/modules/map.mts -->
<g id="node8" class="node">
<title>src/modules/map.mts</title>
<g id="a_node8"><a xlink:href="src/modules/map.mts" xlink:title="map.mts">
<path fill="#ddfeff" stroke="black" d="M162.21,-225.88C162.21,-225.88 120.04,-225.88 120.04,-225.88 117.08,-225.88 114.12,-222.92 114.12,-219.96 114.12,-219.96 114.12,-214.04 114.12,-214.04 114.12,-211.08 117.08,-208.12 120.04,-208.12 120.04,-208.12 162.21,-208.12 162.21,-208.12 165.17,-208.12 168.12,-211.08 168.12,-214.04 168.12,-214.04 168.12,-219.96 168.12,-219.96 168.12,-222.92 165.17,-225.88 162.21,-225.88"/>
<text text-anchor="start" x="123.88" y="-213.32" font-family="Helvetica,sans-Serif" font-size="9.00">map.mts</text>
</a>
</g>
</g>
<!-- src/main.ts&#45;&gt;src/modules/map.mts -->
<g id="edge2" class="edge">
<title>src/main.ts&#45;&gt;src/modules/map.mts</title>
<path fill="none" stroke="#000000" stroke-width="2" stroke-opacity="0.200000" d="M75.62,-226.24C84.84,-224.92 95.35,-223.41 105.17,-222.01"/>
<polygon fill="#000000" fill-opacity="0.200000" stroke="#000000" stroke-width="2" stroke-opacity="0.200000" points="105.3,-224.11 110.94,-221.18 104.7,-219.95 105.3,-224.11"/>
</g>
<!-- src/modules/mode_control.mts -->
<g id="node9" class="node">
<title>src/modules/mode_control.mts</title>
<g id="a_node9"><a xlink:href="src/modules/mode_control.mts" xlink:title="mode_control.mts">
<path fill="#ddfeff" stroke="black" d="M179.58,-255.88C179.58,-255.88 102.67,-255.88 102.67,-255.88 99.71,-255.88 96.75,-252.92 96.75,-249.96 96.75,-249.96 96.75,-244.04 96.75,-244.04 96.75,-241.08 99.71,-238.12 102.67,-238.12 102.67,-238.12 179.58,-238.12 179.58,-238.12 182.54,-238.12 185.5,-241.08 185.5,-244.04 185.5,-244.04 185.5,-249.96 185.5,-249.96 185.5,-252.92 182.54,-255.88 179.58,-255.88"/>
<text text-anchor="start" x="104.75" y="-243.32" font-family="Helvetica,sans-Serif" font-size="9.00">mode_control.mts</text>
</a>
</g>
</g>
<!-- src/main.ts&#45;&gt;src/modules/mode_control.mts -->
<g id="edge3" class="edge">
<title>src/main.ts&#45;&gt;src/modules/mode_control.mts</title>
<path fill="none" stroke="#000000" stroke-width="2" stroke-opacity="0.200000" d="M75.62,-234.92C79.48,-235.64 83.56,-236.4 87.72,-237.18"/>
<polygon fill="#000000" fill-opacity="0.200000" stroke="#000000" stroke-width="2" stroke-opacity="0.200000" points="87.06,-239.2 93.35,-238.24 87.84,-235.07 87.06,-239.2"/>
</g>
<!-- src/style.css -->
<g id="node10" class="node">
<title>src/style.css</title>
<g id="a_node10"><a xlink:href="src/style.css" xlink:title="style.css">
<path fill="#ffffcc" stroke="black" d="M162.21,-307.88C162.21,-307.88 120.04,-307.88 120.04,-307.88 117.08,-307.88 114.12,-304.92 114.12,-301.96 114.12,-301.96 114.12,-296.04 114.12,-296.04 114.12,-293.08 117.08,-290.12 120.04,-290.12 120.04,-290.12 162.21,-290.12 162.21,-290.12 165.17,-290.12 168.12,-293.08 168.12,-296.04 168.12,-296.04 168.12,-301.96 168.12,-301.96 168.12,-304.92 165.17,-307.88 162.21,-307.88"/>
<text text-anchor="start" x="123.88" y="-295.32" font-family="Helvetica,sans-Serif" font-size="9.00">style.css</text>
</a>
</g>
</g>
<!-- src/main.ts&#45;&gt;src/style.css -->
<g id="edge4" class="edge">
<title>src/main.ts&#45;&gt;src/style.css</title>
<path fill="none" stroke="#000000" stroke-width="2" stroke-opacity="0.200000" d="M56.97,-239.18C63.57,-247.32 73.21,-259.65 80.75,-271 84.71,-276.97 83.08,-280.61 88.75,-285 93.56,-288.73 99.3,-291.46 105.16,-293.47"/>
<polygon fill="#000000" fill-opacity="0.200000" stroke="#000000" stroke-width="2" stroke-opacity="0.200000" points="104.5,-295.46 110.85,-295.09 105.65,-291.43 104.5,-295.46"/>
</g>
<!-- src/modules/cost_control.mts&#45;&gt;src/components/CostPanel.svelte -->
<g id="edge5" class="edge">
<title>src/modules/cost_control.mts&#45;&gt;src/components/CostPanel.svelte</title>
<path fill="none" stroke="#000000" stroke-width="2" stroke-opacity="0.200000" d="M146.2,-177.68C154.5,-159.5 174.85,-118.71 201.5,-92 227.45,-65.98 237.84,-62.73 271.5,-48 273.77,-47.01 276.13,-46.06 278.52,-45.17"/>
<polygon fill="#000000" fill-opacity="0.200000" stroke="#000000" stroke-width="2" stroke-opacity="0.200000" points="278.94,-47.25 283.93,-43.32 277.57,-43.28 278.94,-47.25"/>
</g>
<!-- src/store/map.ts -->
<g id="node11" class="node">
<title>src/store/map.ts</title>
<g id="a_node11"><a xlink:href="src/store/map.ts" xlink:title="map.ts">
<path fill="#ddfeff" stroke="black" d="M511.58,-265.88C511.58,-265.88 469.42,-265.88 469.42,-265.88 466.46,-265.88 463.5,-262.92 463.5,-259.96 463.5,-259.96 463.5,-254.04 463.5,-254.04 463.5,-251.08 466.46,-248.12 469.42,-248.12 469.42,-248.12 511.58,-248.12 511.58,-248.12 514.54,-248.12 517.5,-251.08 517.5,-254.04 517.5,-254.04 517.5,-259.96 517.5,-259.96 517.5,-262.92 514.54,-265.88 511.58,-265.88"/>
<text text-anchor="start" x="477" y="-253.32" font-family="Helvetica,sans-Serif" font-size="9.00">map.ts</text>
</a>
</g>
</g>
<!-- src/modules/map.mts&#45;&gt;src/store/map.ts -->
<g id="edge6" class="edge">
<title>src/modules/map.mts&#45;&gt;src/store/map.ts</title>
<path fill="none" stroke="#000000" stroke-width="2" stroke-opacity="0.200000" d="M168.56,-223.81C213.97,-235.12 309.87,-257.28 392.5,-265 418.17,-267.4 424.85,-267.6 450.5,-265 451.79,-264.87 453.1,-264.71 454.42,-264.54"/>
<polygon fill="#000000" fill-opacity="0.200000" stroke="#000000" stroke-width="2" stroke-opacity="0.200000" points="454.59,-266.64 460.19,-263.63 453.93,-262.49 454.59,-266.64"/>
</g>
<!-- src/store/render.ts -->
<g id="node12" class="node">
<title>src/store/render.ts</title>
<g id="a_node12"><a xlink:href="src/store/render.ts" xlink:title="render.ts">
<path fill="#ddfeff" stroke="black" d="M257.58,-173.88C257.58,-173.88 215.42,-173.88 215.42,-173.88 212.46,-173.88 209.5,-170.92 209.5,-167.96 209.5,-167.96 209.5,-162.04 209.5,-162.04 209.5,-159.08 212.46,-156.12 215.42,-156.12 215.42,-156.12 257.58,-156.12 257.58,-156.12 260.54,-156.12 263.5,-159.08 263.5,-162.04 263.5,-162.04 263.5,-167.96 263.5,-167.96 263.5,-170.92 260.54,-173.88 257.58,-173.88"/>
<text text-anchor="start" x="218.5" y="-161.32" font-family="Helvetica,sans-Serif" font-size="9.00">render.ts</text>
</a>
</g>
</g>
<!-- src/modules/map.mts&#45;&gt;src/store/render.ts -->
<g id="edge7" class="edge">
<title>src/modules/map.mts&#45;&gt;src/store/render.ts</title>
<path fill="none" stroke="#000000" stroke-width="2" stroke-opacity="0.200000" d="M168.61,-211.64C176.89,-209.35 185.85,-206.21 193.5,-202 203.67,-196.4 213.49,-187.98 221.08,-180.58"/>
<polygon fill="#000000" fill-opacity="0.200000" stroke="#000000" stroke-width="2" stroke-opacity="0.200000" points="222.53,-182.09 225.24,-176.34 219.54,-179.15 222.53,-182.09"/>
</g>
<!-- src/store/route.ts -->
<g id="node13" class="node">
<title>src/store/route.ts</title>
<g id="a_node13"><a xlink:href="src/store/route.ts" xlink:title="route.ts">
<path fill="#ddfeff" stroke="black" d="M442.58,-251.88C442.58,-251.88 400.42,-251.88 400.42,-251.88 397.46,-251.88 394.5,-248.92 394.5,-245.96 394.5,-245.96 394.5,-240.04 394.5,-240.04 394.5,-237.08 397.46,-234.12 400.42,-234.12 400.42,-234.12 442.58,-234.12 442.58,-234.12 445.54,-234.12 448.5,-237.08 448.5,-240.04 448.5,-240.04 448.5,-245.96 448.5,-245.96 448.5,-248.92 445.54,-251.88 442.58,-251.88"/>
<text text-anchor="start" x="406.5" y="-239.32" font-family="Helvetica,sans-Serif" font-size="9.00">route.ts</text>
</a>
</g>
</g>
<!-- src/modules/map.mts&#45;&gt;src/store/route.ts -->
<g id="edge8" class="edge">
<title>src/modules/map.mts&#45;&gt;src/store/route.ts</title>
<path fill="none" stroke="#000000" stroke-width="2" stroke-opacity="0.200000" d="M168.56,-219.47C218.96,-224.18 328.77,-234.43 385.31,-239.71"/>
<polygon fill="#000000" fill-opacity="0.200000" stroke="#000000" stroke-width="2" stroke-opacity="0.200000" points="385.05,-241.8 391.22,-240.27 385.44,-237.62 385.05,-241.8"/>
</g>
<!-- src/store/traverse.ts -->
<g id="node14" class="node">
<title>src/store/traverse.ts</title>
<g id="a_node14"><a xlink:href="src/store/traverse.ts" xlink:title="traverse.ts">
<path fill="#ddfeff" stroke="black" d="M444.58,-221.88C444.58,-221.88 398.42,-221.88 398.42,-221.88 395.46,-221.88 392.5,-218.92 392.5,-215.96 392.5,-215.96 392.5,-210.04 392.5,-210.04 392.5,-207.08 395.46,-204.12 398.42,-204.12 398.42,-204.12 444.58,-204.12 444.58,-204.12 447.54,-204.12 450.5,-207.08 450.5,-210.04 450.5,-210.04 450.5,-215.96 450.5,-215.96 450.5,-218.92 447.54,-221.88 444.58,-221.88"/>
<text text-anchor="start" x="400.5" y="-209.32" font-family="Helvetica,sans-Serif" font-size="9.00">traverse.ts</text>
</a>
</g>
</g>
<!-- src/modules/map.mts&#45;&gt;src/store/traverse.ts -->
<g id="edge9" class="edge">
<title>src/modules/map.mts&#45;&gt;src/store/traverse.ts</title>
<path fill="none" stroke="#000000" stroke-width="2" stroke-opacity="0.200000" d="M168.31,-216.81C211.24,-216.46 299.52,-215.64 383.32,-214"/>
<polygon fill="#000000" fill-opacity="0.200000" stroke="#000000" stroke-width="2" stroke-opacity="0.200000" points="383.22,-216.11 389.18,-213.89 383.14,-211.91 383.22,-216.11"/>
</g>
<!-- src/modules/mode_control.mts&#45;&gt;src/components/ModePanel.svelte -->
<g id="edge10" class="edge">
<title>src/modules/mode_control.mts&#45;&gt;src/components/ModePanel.svelte</title>
<path fill="none" stroke="#000000" stroke-width="2" stroke-opacity="0.200000" d="M185.58,-238.84C188.57,-236.99 191.27,-234.74 193.5,-232 207.18,-215.24 191.42,-154.14 201.5,-135 220.2,-99.5 235.8,-96.3 271.5,-78 273.23,-77.11 275.02,-76.27 276.85,-75.48"/>
<polygon fill="#000000" fill-opacity="0.200000" stroke="#000000" stroke-width="2" stroke-opacity="0.200000" points="277.41,-77.51 282.24,-73.38 275.89,-73.6 277.41,-77.51"/>
</g>
<!-- src/modules/mode_control.mts&#45;&gt;src/consts.ts -->
<g id="edge11" class="edge">
<title>src/modules/mode_control.mts&#45;&gt;src/consts.ts</title>
<path fill="none" stroke="#000000" stroke-width="2" stroke-opacity="0.200000" d="M185.61,-254.05C188.51,-255.67 191.19,-257.63 193.5,-260 204.65,-271.41 189.51,-284.47 201.5,-295 243.6,-331.98 270.97,-307 327,-307 327,-307 327,-307 422.5,-307 468.59,-307 490.83,-325.36 525.5,-295 542.92,-279.75 553.4,-211.36 557.5,-178.6"/>
<polygon fill="#000000" fill-opacity="0.200000" stroke="#000000" stroke-width="2" stroke-opacity="0.200000" points="559.54,-179.24 558.17,-173.04 555.37,-178.74 559.54,-179.24"/>
</g>
<!-- src/modules/mode_control.mts&#45;&gt;src/store/route.ts -->
<g id="edge13" class="edge">
<title>src/modules/mode_control.mts&#45;&gt;src/store/route.ts</title>
<path fill="none" stroke="#000000" stroke-width="2" stroke-opacity="0.200000" d="M185.83,-253.56C191.1,-254.16 196.41,-254.66 201.5,-255 282.65,-260.44 304.22,-268.03 384.5,-255 385.44,-254.85 386.39,-254.67 387.35,-254.48"/>
<polygon fill="#000000" fill-opacity="0.200000" stroke="#000000" stroke-width="2" stroke-opacity="0.200000" points="387.72,-256.55 393.04,-253.06 386.71,-252.48 387.72,-256.55"/>
</g>
<!-- src/modules/mode_control.mts&#45;&gt;src/store/traverse.ts -->
<g id="edge14" class="edge">
<title>src/modules/mode_control.mts&#45;&gt;src/store/traverse.ts</title>
<path fill="none" stroke="#000000" stroke-width="2" stroke-opacity="0.200000" d="M185.94,-242.01C232.71,-236.63 309.21,-227.66 383.62,-218.09"/>
<polygon fill="#000000" fill-opacity="0.200000" stroke="#000000" stroke-width="2" stroke-opacity="0.200000" points="383.52,-220.22 389.21,-217.37 382.99,-216.05 383.52,-220.22"/>
</g>
<!-- src/store/mode.ts -->
<g id="node15" class="node">
<title>src/store/mode.ts</title>
<g id="a_node15"><a xlink:href="src/store/mode.ts" xlink:title="mode.ts">
<path fill="#ddfeff" stroke="black" d="M511.58,-205.88C511.58,-205.88 469.42,-205.88 469.42,-205.88 466.46,-205.88 463.5,-202.92 463.5,-199.96 463.5,-199.96 463.5,-194.04 463.5,-194.04 463.5,-191.08 466.46,-188.12 469.42,-188.12 469.42,-188.12 511.58,-188.12 511.58,-188.12 514.54,-188.12 517.5,-191.08 517.5,-194.04 517.5,-194.04 517.5,-199.96 517.5,-199.96 517.5,-202.92 514.54,-205.88 511.58,-205.88"/>
<text text-anchor="start" x="474.38" y="-193.32" font-family="Helvetica,sans-Serif" font-size="9.00">mode.ts</text>
</a>
</g>
</g>
<!-- src/modules/mode_control.mts&#45;&gt;src/store/mode.ts -->
<g id="edge12" class="edge">
<title>src/modules/mode_control.mts&#45;&gt;src/store/mode.ts</title>
<path fill="none" stroke="#000000" stroke-width="2" stroke-opacity="0.200000" d="M176.12,-256.35C184.36,-258.25 193.2,-259.97 201.5,-261 256.42,-267.79 407.4,-292.71 450.5,-258 465.24,-246.13 453.68,-232.21 464.41,-213.46"/>
<polygon fill="#000000" fill-opacity="0.200000" stroke="#000000" stroke-width="2" stroke-opacity="0.200000" points="465.95,-214.9 467.71,-208.79 462.53,-212.48 465.95,-214.9"/>
</g>
<!-- src/store/render.ts&#45;&gt;src/components/DebugPopup.svelte -->
<g id="edge24" class="edge">
<title>src/store/render.ts&#45;&gt;src/components/DebugPopup.svelte</title>
<path fill="none" stroke="#000000" stroke-width="2" stroke-opacity="0.200000" d="M240.19,-155.84C244.11,-144.04 252.47,-123.46 272.09,-106.83"/>
<polygon fill="#000000" fill-opacity="0.200000" stroke="#000000" stroke-width="2" stroke-opacity="0.200000" points="273.31,-108.54 276.78,-103.21 270.75,-105.21 273.31,-108.54"/>
</g>
<!-- src/store/render.ts&#45;&gt;src/consts.ts -->
<g id="edge25" class="edge">
<title>src/store/render.ts&#45;&gt;src/consts.ts</title>
<path fill="none" stroke="#000000" stroke-width="2" stroke-opacity="0.200000" d="M259.99,-155.75C263.79,-154.37 267.73,-153.06 271.5,-152 320.67,-138.15 348.22,-166.96 384.5,-131 397.69,-117.93 378.17,-101.8 392.5,-90 402.02,-82.16 520.2,-90.55 525.5,-94 542.5,-105.07 551.39,-127.41 555.75,-143.24"/>
<polygon fill="#000000" fill-opacity="0.200000" stroke="#000000" stroke-width="2" stroke-opacity="0.200000" points="553.63,-143.42 557.1,-148.74 557.71,-142.41 553.63,-143.42"/>
</g>
<!-- src/store/render.ts&#45;&gt;src/store/traverse.ts -->
<g id="edge29" class="edge">
<title>src/store/render.ts&#45;&gt;src/store/traverse.ts</title>
<path fill="none" stroke="#000000" stroke-width="2" stroke-opacity="0.200000" d="M242.96,-174.14C248.8,-182.99 258.94,-195.92 271.5,-202 306.56,-218.97 351.76,-219.81 383.14,-217.61"/>
<polygon fill="#000000" fill-opacity="0.200000" stroke="#000000" stroke-width="2" stroke-opacity="0.200000" points="383.18,-219.72 388.99,-217.13 382.84,-215.53 383.18,-219.72"/>
</g>
<!-- src/store/render.ts&#45;&gt;src/store/mode.ts -->
<g id="edge28" class="edge">
<title>src/store/render.ts&#45;&gt;src/store/mode.ts</title>
<path fill="none" stroke="#000000" stroke-width="2" stroke-opacity="0.200000" d="M263.93,-164.78C293.46,-164.88 342.63,-166.07 384.5,-172 408.1,-175.34 434.16,-181.53 454.42,-186.92"/>
<polygon fill="#000000" fill-opacity="0.200000" stroke="#000000" stroke-width="2" stroke-opacity="0.200000" points="453.74,-188.91 460.08,-188.45 454.84,-184.86 453.74,-188.91"/>
</g>
<!-- src/store/cost.ts -->
<g id="node16" class="node">
<title>src/store/cost.ts</title>
<g id="a_node16"><a xlink:href="src/store/cost.ts" xlink:title="cost.ts">
<path fill="#ddfeff" stroke="black" d="M442.58,-163.88C442.58,-163.88 400.42,-163.88 400.42,-163.88 397.46,-163.88 394.5,-160.92 394.5,-157.96 394.5,-157.96 394.5,-152.04 394.5,-152.04 394.5,-149.08 397.46,-146.12 400.42,-146.12 400.42,-146.12 442.58,-146.12 442.58,-146.12 445.54,-146.12 448.5,-149.08 448.5,-152.04 448.5,-152.04 448.5,-157.96 448.5,-157.96 448.5,-160.92 445.54,-163.88 442.58,-163.88"/>
<text text-anchor="start" x="408.75" y="-151.32" font-family="Helvetica,sans-Serif" font-size="9.00">cost.ts</text>
</a>
</g>
</g>
<!-- src/store/render.ts&#45;&gt;src/store/cost.ts -->
<g id="edge26" class="edge">
<title>src/store/render.ts&#45;&gt;src/store/cost.ts</title>
<path fill="none" stroke="#000000" stroke-width="2" stroke-opacity="0.200000" d="M263.84,-161.7C266.42,-161.44 269.01,-161.2 271.5,-161 310.33,-157.94 354.97,-156.4 385.19,-155.66"/>
<polygon fill="#000000" fill-opacity="0.200000" stroke="#000000" stroke-width="2" stroke-opacity="0.200000" points="385.11,-157.76 391.06,-155.52 385.01,-153.56 385.11,-157.76"/>
</g>
<!-- src/store/fetch.ts -->
<g id="node17" class="node">
<title>src/store/fetch.ts</title>
<g id="a_node17"><a xlink:href="src/store/fetch.ts" xlink:title="fetch.ts">
<path fill="#ddfeff" stroke="black" d="M349.08,-195.88C349.08,-195.88 306.92,-195.88 306.92,-195.88 303.96,-195.88 301,-192.92 301,-189.96 301,-189.96 301,-184.04 301,-184.04 301,-181.08 303.96,-178.12 306.92,-178.12 306.92,-178.12 349.08,-178.12 349.08,-178.12 352.04,-178.12 355,-181.08 355,-184.04 355,-184.04 355,-189.96 355,-189.96 355,-192.92 352.04,-195.88 349.08,-195.88"/>
<text text-anchor="start" x="313.75" y="-183.32" font-family="Helvetica,sans-Serif" font-size="9.00">fetch.ts</text>
</a>
</g>
</g>
<!-- src/store/render.ts&#45;&gt;src/store/fetch.ts -->
<g id="edge27" class="edge">
<title>src/store/render.ts&#45;&gt;src/store/fetch.ts</title>
<path fill="none" stroke="#000000" stroke-width="2" stroke-opacity="0.200000" d="M263.87,-171.48C272.62,-173.63 282.51,-176.06 291.82,-178.35"/>
<polygon fill="#000000" fill-opacity="0.200000" stroke="#000000" stroke-width="2" stroke-opacity="0.200000" points="291.24,-180.37 297.57,-179.77 292.25,-176.29 291.24,-180.37"/>
</g>
<!-- src/store/route.ts&#45;&gt;src/consts.ts -->
<g id="edge30" class="edge">
<title>src/store/route.ts&#45;&gt;src/consts.ts</title>
<path fill="none" stroke="#000000" stroke-width="2" stroke-opacity="0.200000" d="M444.36,-233.67C446.65,-232.03 448.77,-230.15 450.5,-228 463.81,-211.44 447.97,-196.5 463.5,-182 482.31,-164.44 495.57,-173.23 524.55,-168.87"/>
<polygon fill="#000000" fill-opacity="0.200000" stroke="#000000" stroke-width="2" stroke-opacity="0.200000" points="524.67,-170.99 530.18,-167.82 523.9,-166.86 524.67,-170.99"/>
</g>
<!-- src/store/route.ts&#45;&gt;src/store/map.ts -->
<g id="edge31" class="edge">
<title>src/store/route.ts&#45;&gt;src/store/map.ts</title>
<path fill="none" stroke="#000000" stroke-width="2" stroke-opacity="0.200000" d="M448.98,-248.53C450.88,-248.93 452.82,-249.33 454.76,-249.74"/>
<polygon fill="#000000" fill-opacity="0.200000" stroke="#000000" stroke-width="2" stroke-opacity="0.200000" points="453.95,-251.72 460.25,-250.89 454.81,-247.6 453.95,-251.72"/>
</g>
<!-- src/store/route.ts&#45;&gt;src/store/mode.ts -->
<g id="edge33" class="edge">
<title>src/store/route.ts&#45;&gt;src/store/mode.ts</title>
<path fill="none" stroke="#000000" stroke-width="2" stroke-opacity="0.200000" d="M442.12,-233.79C445.05,-232.05 447.95,-230.11 450.5,-228 457.57,-222.17 456.53,-217.94 463.5,-212 463.8,-211.75 464.1,-211.49 464.41,-211.25"/>
<polygon fill="#000000" fill-opacity="0.200000" stroke="#000000" stroke-width="2" stroke-opacity="0.200000" points="465.16,-213.29 468.83,-208.1 462.72,-209.86 465.16,-213.29"/>
</g>
<!-- src/store/marker.ts -->
<g id="node18" class="node">
<title>src/store/marker.ts</title>
<g id="a_node18"><a xlink:href="src/store/marker.ts" xlink:title="marker.ts">
<path fill="#ddfeff" stroke="black" d="M511.58,-235.88C511.58,-235.88 469.42,-235.88 469.42,-235.88 466.46,-235.88 463.5,-232.92 463.5,-229.96 463.5,-229.96 463.5,-224.04 463.5,-224.04 463.5,-221.08 466.46,-218.12 469.42,-218.12 469.42,-218.12 511.58,-218.12 511.58,-218.12 514.54,-218.12 517.5,-221.08 517.5,-224.04 517.5,-224.04 517.5,-229.96 517.5,-229.96 517.5,-232.92 514.54,-235.88 511.58,-235.88"/>
<text text-anchor="start" x="471.75" y="-223.32" font-family="Helvetica,sans-Serif" font-size="9.00">marker.ts</text>
</a>
</g>
</g>
<!-- src/store/route.ts&#45;&gt;src/store/marker.ts -->
<g id="edge32" class="edge">
<title>src/store/route.ts&#45;&gt;src/store/marker.ts</title>
<path fill="none" stroke="#000000" stroke-width="2" stroke-opacity="0.200000" d="M448.98,-236.68C450.88,-236.22 452.82,-235.76 454.76,-235.3"/>
<polygon fill="#000000" fill-opacity="0.200000" stroke="#000000" stroke-width="2" stroke-opacity="0.200000" points="454.92,-237.42 460.27,-233.98 453.94,-233.33 454.92,-237.42"/>
</g>
<!-- src/store/traverse.ts&#45;&gt;src/consts.ts -->
<g id="edge34" class="edge">
<title>src/store/traverse.ts&#45;&gt;src/consts.ts</title>
<path fill="none" stroke="#000000" stroke-width="2" stroke-opacity="0.200000" d="M428.49,-203.81C435.55,-193.84 448.27,-178.37 463.5,-171 482.3,-161.91 505.54,-159.3 524.45,-159.01"/>
<polygon fill="#000000" fill-opacity="0.200000" stroke="#000000" stroke-width="2" stroke-opacity="0.200000" points="524.31,-161.11 530.32,-159.03 524.32,-156.91 524.31,-161.11"/>
</g>
<!-- src/store/traverse.ts&#45;&gt;src/store/map.ts -->
<g id="edge35" class="edge">
<title>src/store/traverse.ts&#45;&gt;src/store/map.ts</title>
<path fill="none" stroke="#000000" stroke-width="2" stroke-opacity="0.200000" d="M442,-222.36C444.95,-224.08 447.88,-225.98 450.5,-228 457.22,-233.19 456.86,-236.71 463.5,-242 463.82,-242.25 464.14,-242.5 464.46,-242.75"/>
<polygon fill="#000000" fill-opacity="0.200000" stroke="#000000" stroke-width="2" stroke-opacity="0.200000" points="463.05,-244.33 469.19,-245.98 465.42,-240.86 463.05,-244.33"/>
</g>
<!-- src/store/traverse.ts&#45;&gt;src/store/mode.ts -->
<g id="edge37" class="edge">
<title>src/store/traverse.ts&#45;&gt;src/store/mode.ts</title>
<path fill="none" stroke="#000000" stroke-width="2" stroke-opacity="0.200000" d="M450.91,-206.21C452.21,-205.91 453.51,-205.59 454.82,-205.28"/>
<polygon fill="#000000" fill-opacity="0.200000" stroke="#000000" stroke-width="2" stroke-opacity="0.200000" points="455.09,-207.38 460.44,-203.94 454.12,-203.29 455.09,-207.38"/>
</g>
<!-- src/store/traverse.ts&#45;&gt;src/store/marker.ts -->
<g id="edge36" class="edge">
<title>src/store/traverse.ts&#45;&gt;src/store/marker.ts</title>
<path fill="none" stroke="#000000" stroke-width="2" stroke-opacity="0.200000" d="M450.91,-218.94C452.21,-219.21 453.51,-219.48 454.82,-219.75"/>
<polygon fill="#000000" fill-opacity="0.200000" stroke="#000000" stroke-width="2" stroke-opacity="0.200000" points="454.12,-221.75 460.42,-220.92 454.98,-217.64 454.12,-221.75"/>
</g>
<!-- src/store/mode.ts&#45;&gt;src/consts.ts -->
<g id="edge23" class="edge">
<title>src/store/mode.ts&#45;&gt;src/consts.ts</title>
<path fill="none" stroke="#000000" stroke-width="2" stroke-opacity="0.200000" d="M517.76,-187.66C520.41,-186.51 523.03,-185.28 525.5,-184 530.36,-181.47 535.37,-178.39 539.99,-175.31"/>
<polygon fill="#000000" fill-opacity="0.200000" stroke="#000000" stroke-width="2" stroke-opacity="0.200000" points="541.1,-177.1 544.84,-171.96 538.71,-173.64 541.1,-177.1"/>
</g>
<!-- src/store/cost.ts&#45;&gt;src/consts.ts -->
<g id="edge15" class="edge">
<title>src/store/cost.ts&#45;&gt;src/consts.ts</title>
<path fill="none" stroke="#000000" stroke-width="2" stroke-opacity="0.200000" d="M448.78,-154.8C467.74,-154.82 494.16,-155.15 524.18,-157.04"/>
<polygon fill="#000000" fill-opacity="0.200000" stroke="#000000" stroke-width="2" stroke-opacity="0.200000" points="524.02,-159.13 530.15,-157.44 524.3,-154.94 524.02,-159.13"/>
</g>
<!-- src/store/fetch.ts&#45;&gt;src/config.ts -->
<g id="edge16" class="edge">
<title>src/store/fetch.ts&#45;&gt;src/config.ts</title>
<path fill="none" stroke="#000000" stroke-width="2" stroke-opacity="0.200000" d="M355.44,-186.71C365.8,-185.24 376.98,-181.73 384.5,-174 395.2,-163 385.25,-152.3 392.67,-137.37"/>
<polygon fill="#000000" fill-opacity="0.200000" stroke="#000000" stroke-width="2" stroke-opacity="0.200000" points="394.19,-138.88 395.75,-132.72 390.69,-136.56 394.19,-138.88"/>
</g>
<!-- src/store/fetch.ts&#45;&gt;src/consts.ts -->
<g id="edge17" class="edge">
<title>src/store/fetch.ts&#45;&gt;src/consts.ts</title>
<path fill="none" stroke="#000000" stroke-width="2" stroke-opacity="0.200000" d="M355.49,-187.06C365.98,-185.66 377.25,-182.12 384.5,-174 394.63,-162.65 381.13,-116.11 392.5,-106 436.82,-66.59 510.07,-118.69 542.8,-146.09"/>
<polygon fill="#000000" fill-opacity="0.200000" stroke="#000000" stroke-width="2" stroke-opacity="0.200000" points="541.28,-147.55 547.2,-149.86 544.01,-144.36 541.28,-147.55"/>
</g>
<!-- src/store/fetch.ts&#45;&gt;src/store/map.ts -->
<g id="edge19" class="edge">
<title>src/store/fetch.ts&#45;&gt;src/store/map.ts</title>
<path fill="none" stroke="#000000" stroke-width="2" stroke-opacity="0.200000" d="M333.77,-196.17C342.73,-212.28 363.82,-245.17 392.5,-258 411.74,-266.61 435.36,-266.56 454.47,-264.26"/>
<polygon fill="#000000" fill-opacity="0.200000" stroke="#000000" stroke-width="2" stroke-opacity="0.200000" points="454.54,-266.37 460.18,-263.45 453.95,-262.21 454.54,-266.37"/>
</g>
<!-- src/store/fetch.ts&#45;&gt;src/store/route.ts -->
<g id="edge21" class="edge">
<title>src/store/fetch.ts&#45;&gt;src/store/route.ts</title>
<path fill="none" stroke="#000000" stroke-width="2" stroke-opacity="0.200000" d="M342.43,-196.12C355.14,-204.65 374.86,-217.61 392.5,-228 393.31,-228.48 394.13,-228.95 394.97,-229.43"/>
<polygon fill="#000000" fill-opacity="0.200000" stroke="#000000" stroke-width="2" stroke-opacity="0.200000" points="393.7,-231.13 399.96,-232.22 395.74,-227.46 393.7,-231.13"/>
</g>
<!-- src/store/fetch.ts&#45;&gt;src/store/traverse.ts -->
<g id="edge22" class="edge">
<title>src/store/fetch.ts&#45;&gt;src/store/traverse.ts</title>
<path fill="none" stroke="#000000" stroke-width="2" stroke-opacity="0.200000" d="M355.47,-194.52C364.27,-197.02 374.25,-199.86 383.7,-202.54"/>
<polygon fill="#000000" fill-opacity="0.200000" stroke="#000000" stroke-width="2" stroke-opacity="0.200000" points="382.92,-204.5 389.27,-204.12 384.07,-200.46 382.92,-204.5"/>
</g>
<!-- src/store/fetch.ts&#45;&gt;src/store/mode.ts -->
<g id="edge20" class="edge">
<title>src/store/fetch.ts&#45;&gt;src/store/mode.ts</title>
<path fill="none" stroke="#000000" stroke-width="2" stroke-opacity="0.200000" d="M355.14,-188.63C382.11,-190.31 424.34,-192.94 454.24,-194.8"/>
<polygon fill="#000000" fill-opacity="0.200000" stroke="#000000" stroke-width="2" stroke-opacity="0.200000" points="453.96,-196.89 460.08,-195.17 454.22,-192.7 453.96,-196.89"/>
</g>
<!-- src/store/fetch.ts&#45;&gt;src/store/cost.ts -->
<g id="edge18" class="edge">
<title>src/store/fetch.ts&#45;&gt;src/store/cost.ts</title>
<path fill="none" stroke="#000000" stroke-width="2" stroke-opacity="0.200000" d="M355.47,-177.74C364.95,-174.43 375.79,-170.64 385.86,-167.11"/>
<polygon fill="#000000" fill-opacity="0.200000" stroke="#000000" stroke-width="2" stroke-opacity="0.200000" points="386.27,-169.2 391.24,-165.23 384.88,-165.23 386.27,-169.2"/>
</g>
<!-- src/vite&#45;env.d.ts -->
<g id="node19" class="node">
<title>src/vite&#45;env.d.ts</title>
<g id="a_node19"><a xlink:href="src/vite-env.d.ts" xlink:title="vite&#45;env.d.ts">
<path fill="#ccffcc" stroke="black" d="M74.83,-294.88C74.83,-294.88 21.92,-294.88 21.92,-294.88 18.96,-294.88 16,-291.92 16,-288.96 16,-288.96 16,-283.04 16,-283.04 16,-280.08 18.96,-277.12 21.92,-277.12 21.92,-277.12 74.83,-277.12 74.83,-277.12 77.79,-277.12 80.75,-280.08 80.75,-283.04 80.75,-283.04 80.75,-288.96 80.75,-288.96 80.75,-291.92 77.79,-294.88 74.83,-294.88"/>
<text text-anchor="start" x="24" y="-282.32" font-family="Helvetica,sans-Serif" font-size="9.00">vite&#45;env.d.ts</text>
</a>
</g>
</g>
</g>
</svg>
